%TF.GenerationSoftware,KiCad,Pcbnew,8.0.8*%
%TF.CreationDate,2025-05-04T20:59:54-05:00*%
%TF.ProjectId,Feedback_sleeve,46656564-6261-4636-9b5f-736c65657665,rev?*%
%TF.SameCoordinates,Original*%
%TF.FileFunction,Soldermask,Top*%
%TF.FilePolarity,Negative*%
%FSLAX46Y46*%
G04 Gerber Fmt 4.6, Leading zero omitted, Abs format (unit mm)*
G04 Created by KiCad (PCBNEW 8.0.8) date 2025-05-04 20:59:54*
%MOMM*%
%LPD*%
G01*
G04 APERTURE LIST*
G04 Aperture macros list*
%AMRoundRect*
0 Rectangle with rounded corners*
0 $1 Rounding radius*
0 $2 $3 $4 $5 $6 $7 $8 $9 X,Y pos of 4 corners*
0 Add a 4 corners polygon primitive as box body*
4,1,4,$2,$3,$4,$5,$6,$7,$8,$9,$2,$3,0*
0 Add four circle primitives for the rounded corners*
1,1,$1+$1,$2,$3*
1,1,$1+$1,$4,$5*
1,1,$1+$1,$6,$7*
1,1,$1+$1,$8,$9*
0 Add four rect primitives between the rounded corners*
20,1,$1+$1,$2,$3,$4,$5,0*
20,1,$1+$1,$4,$5,$6,$7,0*
20,1,$1+$1,$6,$7,$8,$9,0*
20,1,$1+$1,$8,$9,$2,$3,0*%
G04 Aperture macros list end*
%ADD10R,2.200000X1.600000*%
%ADD11O,1.699999X0.299999*%
%ADD12RoundRect,0.250000X-0.550000X-0.550000X0.550000X-0.550000X0.550000X0.550000X-0.550000X0.550000X0*%
%ADD13C,1.600000*%
%ADD14R,1.600000X1.600000*%
%ADD15O,1.600000X1.600000*%
%ADD16RoundRect,0.250000X-0.750000X0.600000X-0.750000X-0.600000X0.750000X-0.600000X0.750000X0.600000X0*%
%ADD17O,2.000000X1.700000*%
%ADD18RoundRect,0.062500X0.675000X0.062500X-0.675000X0.062500X-0.675000X-0.062500X0.675000X-0.062500X0*%
%ADD19RoundRect,0.200000X1.175000X0.800000X-1.175000X0.800000X-1.175000X-0.800000X1.175000X-0.800000X0*%
%ADD20RoundRect,0.200000X-1.175000X-0.800000X1.175000X-0.800000X1.175000X0.800000X-1.175000X0.800000X0*%
%ADD21C,1.700000*%
%ADD22RoundRect,0.110000X-0.440000X1.140000X-0.440000X-1.140000X0.440000X-1.140000X0.440000X1.140000X0*%
G04 APERTURE END LIST*
D10*
%TO.C,C11*%
X243000000Y-40500000D03*
X246000000Y-40500000D03*
%TD*%
%TO.C,C9*%
X243000000Y-31000000D03*
X246000000Y-31000000D03*
%TD*%
D11*
%TO.C,U7*%
X242900002Y-22999999D03*
X242900002Y-23499998D03*
X242900002Y-24000000D03*
X242900002Y-24499999D03*
X242900002Y-25000001D03*
X247000001Y-25000001D03*
X247000001Y-24499999D03*
X247000001Y-24000000D03*
X247000001Y-23499998D03*
X247000001Y-22999999D03*
%TD*%
D12*
%TO.C,J7*%
X242900000Y-17500000D03*
D13*
X246500000Y-17500000D03*
%TD*%
D10*
%TO.C,C1*%
X274500000Y-29500000D03*
X277500000Y-29500000D03*
%TD*%
D11*
%TO.C,U9*%
X80200002Y-21499999D03*
X80200002Y-21999998D03*
X80200002Y-22500000D03*
X80200002Y-22999999D03*
X80200002Y-23500001D03*
X84300001Y-23500001D03*
X84300001Y-22999999D03*
X84300001Y-22500000D03*
X84300001Y-21999998D03*
X84300001Y-21499999D03*
%TD*%
D10*
%TO.C,C6*%
X80800000Y-30500000D03*
X83800000Y-30500000D03*
%TD*%
D11*
%TO.C,U2*%
X274400002Y-21499999D03*
X274400002Y-21999998D03*
X274400002Y-22500000D03*
X274400002Y-22999999D03*
X274400002Y-23500001D03*
X278500001Y-23500001D03*
X278500001Y-22999999D03*
X278500001Y-22500000D03*
X278500001Y-21999998D03*
X278500001Y-21499999D03*
%TD*%
D12*
%TO.C,J8*%
X274900000Y-16000000D03*
D13*
X278500000Y-16000000D03*
%TD*%
D10*
%TO.C,C2*%
X173000000Y-33500000D03*
X176000000Y-33500000D03*
%TD*%
%TO.C,C5*%
X16500000Y-49000000D03*
X19500000Y-49000000D03*
%TD*%
D11*
%TO.C,U5*%
X112500002Y-21999999D03*
X112500002Y-22499998D03*
X112500002Y-23000000D03*
X112500002Y-23499999D03*
X112500002Y-24000001D03*
X116600001Y-24000001D03*
X116600001Y-23499999D03*
X116600001Y-23000000D03*
X116600001Y-22499998D03*
X116600001Y-21999999D03*
%TD*%
D10*
%TO.C,C10*%
X46500000Y-40000000D03*
X49500000Y-40000000D03*
%TD*%
%TO.C,C3*%
X112600000Y-30000000D03*
X115600000Y-30000000D03*
%TD*%
D12*
%TO.C,J2*%
X45200000Y-16000000D03*
D13*
X48800000Y-16000000D03*
%TD*%
D10*
%TO.C,C15*%
X207000000Y-43500000D03*
X210000000Y-43500000D03*
%TD*%
D11*
%TO.C,U8*%
X207500002Y-23999999D03*
X207500002Y-24499998D03*
X207500002Y-25000000D03*
X207500002Y-25499999D03*
X207500002Y-26000001D03*
X211600001Y-26000001D03*
X211600001Y-25499999D03*
X211600001Y-25000000D03*
X211600001Y-24499998D03*
X211600001Y-23999999D03*
%TD*%
D12*
%TO.C,J6*%
X207900000Y-18000000D03*
D13*
X211500000Y-18000000D03*
%TD*%
D10*
%TO.C,C14*%
X16500000Y-29000000D03*
X19500000Y-29000000D03*
%TD*%
D12*
%TO.C,J3*%
X81000000Y-17000000D03*
D13*
X84600000Y-17000000D03*
%TD*%
D10*
%TO.C,C13*%
X207500000Y-32000000D03*
X210500000Y-32000000D03*
%TD*%
D11*
%TO.C,U4*%
X173400002Y-25999999D03*
X173400002Y-26499998D03*
X173400002Y-27000000D03*
X173400002Y-27499999D03*
X173400002Y-28000001D03*
X177500001Y-28000001D03*
X177500001Y-27499999D03*
X177500001Y-27000000D03*
X177500001Y-26499998D03*
X177500001Y-25999999D03*
%TD*%
D14*
%TO.C,RN2*%
X69760000Y-43500000D03*
D15*
X72300000Y-43500000D03*
X74840000Y-43500000D03*
X77380000Y-43500000D03*
X79920000Y-43500000D03*
X82460000Y-43500000D03*
X85000000Y-43500000D03*
X87540000Y-43500000D03*
X90080000Y-43500000D03*
%TD*%
D16*
%TO.C,J9*%
X91500000Y-53500000D03*
D17*
X91500000Y-56000000D03*
%TD*%
D11*
%TO.C,U10*%
X45000002Y-21999999D03*
X45000002Y-22499998D03*
X45000002Y-23000000D03*
X45000002Y-23499999D03*
X45000002Y-24000001D03*
X49100001Y-24000001D03*
X49100001Y-23499999D03*
X49100001Y-23000000D03*
X49100001Y-22499998D03*
X49100001Y-21999999D03*
%TD*%
D18*
%TO.C,U3*%
X147725000Y-55900000D03*
X147725000Y-55500000D03*
X147725000Y-55100000D03*
X147725000Y-54700000D03*
X147725000Y-54300000D03*
X147725000Y-53900000D03*
X147725000Y-53500000D03*
X147725000Y-53100000D03*
X147725000Y-52700000D03*
X147725000Y-52300000D03*
X147725000Y-51900000D03*
X147725000Y-51500000D03*
X142000000Y-51500000D03*
X142000000Y-51900000D03*
X142000000Y-52300000D03*
X142000000Y-52700000D03*
X142000000Y-53100000D03*
X142000000Y-53500000D03*
X142000000Y-53900000D03*
X142000000Y-54300000D03*
X142000000Y-54700000D03*
X142000000Y-55100000D03*
X142000000Y-55500000D03*
X142000000Y-55900000D03*
%TD*%
D12*
%TO.C,J4*%
X112500000Y-16500000D03*
D13*
X116100000Y-16500000D03*
%TD*%
D10*
%TO.C,C16*%
X16500000Y-39500000D03*
X19500000Y-39500000D03*
%TD*%
D14*
%TO.C,RN1*%
X168760000Y-43000000D03*
D15*
X171300000Y-43000000D03*
X173840000Y-43000000D03*
X176380000Y-43000000D03*
X178920000Y-43000000D03*
X181460000Y-43000000D03*
X184000000Y-43000000D03*
X186540000Y-43000000D03*
X189080000Y-43000000D03*
%TD*%
D10*
%TO.C,C12*%
X112600000Y-38500000D03*
X115600000Y-38500000D03*
%TD*%
D12*
%TO.C,J1*%
X16700000Y-15500000D03*
D13*
X20300000Y-15500000D03*
%TD*%
D10*
%TO.C,C7*%
X273500000Y-39500000D03*
X276500000Y-39500000D03*
%TD*%
%TO.C,C4*%
X45500000Y-29500000D03*
X48500000Y-29500000D03*
%TD*%
D12*
%TO.C,J5*%
X173900000Y-20000000D03*
D13*
X177500000Y-20000000D03*
%TD*%
D11*
%TO.C,U6*%
X16000002Y-20999999D03*
X16000002Y-21499998D03*
X16000002Y-22000000D03*
X16000002Y-22499999D03*
X16000002Y-23000001D03*
X20100001Y-23000001D03*
X20100001Y-22499999D03*
X20100001Y-22000000D03*
X20100001Y-21499998D03*
X20100001Y-20999999D03*
%TD*%
D19*
%TO.C,U1*%
X137147500Y-19030000D03*
X137147500Y-21570000D03*
X137147500Y-24110000D03*
X137147500Y-26650000D03*
X137147500Y-29190000D03*
X137147500Y-31730000D03*
X137147500Y-34270000D03*
D20*
X153312500Y-34270000D03*
X153312500Y-31730000D03*
X153312500Y-29190000D03*
X153312500Y-26650000D03*
X153312500Y-24110000D03*
X153312500Y-21570000D03*
X153312500Y-19030000D03*
D21*
X150230994Y-22840000D03*
X150230994Y-25380000D03*
X150230994Y-27920000D03*
X150230994Y-30460000D03*
X140070994Y-30460000D03*
X140070994Y-27920000D03*
X140070994Y-25380000D03*
X140070994Y-22840000D03*
X143960000Y-18000000D03*
X143960000Y-20540000D03*
X143960000Y-23080000D03*
X143960000Y-25620000D03*
X146500000Y-25620000D03*
X146500000Y-23080000D03*
X146500000Y-20540000D03*
X146500000Y-18000000D03*
D22*
X144230000Y-31624811D03*
X146230000Y-31624811D03*
%TD*%
D10*
%TO.C,C8*%
X243000000Y-52000000D03*
X246000000Y-52000000D03*
%TD*%
M02*
