%TF.GenerationSoftware,KiCad,Pcbnew,8.0.8*%
%TF.CreationDate,2025-05-04T20:59:53-05:00*%
%TF.ProjectId,Feedback_sleeve,46656564-6261-4636-9b5f-736c65657665,rev?*%
%TF.SameCoordinates,Original*%
%TF.FileFunction,Copper,L4,Inr*%
%TF.FilePolarity,Positive*%
%FSLAX46Y46*%
G04 Gerber Fmt 4.6, Leading zero omitted, Abs format (unit mm)*
G04 Created by KiCad (PCBNEW 8.0.8) date 2025-05-04 20:59:53*
%MOMM*%
%LPD*%
G01*
G04 APERTURE LIST*
G04 Aperture macros list*
%AMRoundRect*
0 Rectangle with rounded corners*
0 $1 Rounding radius*
0 $2 $3 $4 $5 $6 $7 $8 $9 X,Y pos of 4 corners*
0 Add a 4 corners polygon primitive as box body*
4,1,4,$2,$3,$4,$5,$6,$7,$8,$9,$2,$3,0*
0 Add four circle primitives for the rounded corners*
1,1,$1+$1,$2,$3*
1,1,$1+$1,$4,$5*
1,1,$1+$1,$6,$7*
1,1,$1+$1,$8,$9*
0 Add four rect primitives between the rounded corners*
20,1,$1+$1,$2,$3,$4,$5,0*
20,1,$1+$1,$4,$5,$6,$7,0*
20,1,$1+$1,$6,$7,$8,$9,0*
20,1,$1+$1,$8,$9,$2,$3,0*%
G04 Aperture macros list end*
%TA.AperFunction,ComponentPad*%
%ADD10RoundRect,0.250000X-0.550000X-0.550000X0.550000X-0.550000X0.550000X0.550000X-0.550000X0.550000X0*%
%TD*%
%TA.AperFunction,ComponentPad*%
%ADD11C,1.600000*%
%TD*%
%TA.AperFunction,ComponentPad*%
%ADD12R,1.600000X1.600000*%
%TD*%
%TA.AperFunction,ComponentPad*%
%ADD13O,1.600000X1.600000*%
%TD*%
%TA.AperFunction,ComponentPad*%
%ADD14RoundRect,0.250000X-0.750000X0.600000X-0.750000X-0.600000X0.750000X-0.600000X0.750000X0.600000X0*%
%TD*%
%TA.AperFunction,ComponentPad*%
%ADD15O,2.000000X1.700000*%
%TD*%
%TA.AperFunction,ViaPad*%
%ADD16C,0.600000*%
%TD*%
%TA.AperFunction,Conductor*%
%ADD17C,0.200000*%
%TD*%
G04 APERTURE END LIST*
D10*
%TO.N,Net-(J7-Pin_1)*%
%TO.C,J7*%
X242900000Y-17500000D03*
D11*
%TO.N,Net-(J7-Pin_2)*%
X246500000Y-17500000D03*
%TD*%
D10*
%TO.N,Net-(J8-Pin_1)*%
%TO.C,J8*%
X274900000Y-16000000D03*
D11*
%TO.N,Net-(J8-Pin_2)*%
X278500000Y-16000000D03*
%TD*%
D10*
%TO.N,Net-(J2-Pin_1)*%
%TO.C,J2*%
X45200000Y-16000000D03*
D11*
%TO.N,Net-(J2-Pin_2)*%
X48800000Y-16000000D03*
%TD*%
D10*
%TO.N,Net-(J6-Pin_1)*%
%TO.C,J6*%
X207900000Y-18000000D03*
D11*
%TO.N,Net-(J6-Pin_2)*%
X211500000Y-18000000D03*
%TD*%
D10*
%TO.N,Net-(J3-Pin_1)*%
%TO.C,J3*%
X81000000Y-17000000D03*
D11*
%TO.N,Net-(J3-Pin_2)*%
X84600000Y-17000000D03*
%TD*%
D12*
%TO.N,Net-(RN1-common)*%
%TO.C,RN2*%
X69760000Y-43500000D03*
D13*
%TO.N,Net-(RN2-R1)*%
X72300000Y-43500000D03*
%TO.N,Net-(RN2-R2)*%
X74840000Y-43500000D03*
%TO.N,Net-(RN2-R3)*%
X77380000Y-43500000D03*
%TO.N,Net-(RN2-R4)*%
X79920000Y-43500000D03*
%TO.N,Net-(RN2-R5)*%
X82460000Y-43500000D03*
%TO.N,Net-(RN2-R6)*%
X85000000Y-43500000D03*
%TO.N,Net-(RN2-R7)*%
X87540000Y-43500000D03*
%TO.N,Net-(RN2-R8)*%
X90080000Y-43500000D03*
%TD*%
D14*
%TO.N,Net-(J9-Pin_1)*%
%TO.C,J9*%
X91500000Y-53500000D03*
D15*
%TO.N,Net-(J9-Pin_2)*%
X91500000Y-56000000D03*
%TD*%
D10*
%TO.N,Net-(J4-Pin_1)*%
%TO.C,J4*%
X112500000Y-16500000D03*
D11*
%TO.N,Net-(J4-Pin_2)*%
X116100000Y-16500000D03*
%TD*%
D12*
%TO.N,Net-(RN1-common)*%
%TO.C,RN1*%
X168760000Y-43000000D03*
D13*
%TO.N,Net-(RN1-R1)*%
X171300000Y-43000000D03*
%TO.N,Net-(RN1-R2)*%
X173840000Y-43000000D03*
%TO.N,Net-(RN1-R3)*%
X176380000Y-43000000D03*
%TO.N,Net-(RN1-R4)*%
X178920000Y-43000000D03*
%TO.N,Net-(RN1-R5)*%
X181460000Y-43000000D03*
%TO.N,Net-(RN1-R6)*%
X184000000Y-43000000D03*
%TO.N,Net-(RN1-R7)*%
X186540000Y-43000000D03*
%TO.N,Net-(RN1-R8)*%
X189080000Y-43000000D03*
%TD*%
D10*
%TO.N,Net-(J1-Pin_1)*%
%TO.C,J1*%
X16700000Y-15500000D03*
D11*
%TO.N,Net-(J1-Pin_2)*%
X20300000Y-15500000D03*
%TD*%
D10*
%TO.N,Net-(J5-Pin_1)*%
%TO.C,J5*%
X173900000Y-20000000D03*
D11*
%TO.N,Net-(J5-Pin_2)*%
X177500000Y-20000000D03*
%TD*%
D16*
%TO.N,Net-(U1-GND)*%
X17095500Y-50321100D03*
X171377100Y-27752000D03*
X205594700Y-44905300D03*
X14834800Y-28967500D03*
X179017600Y-27617400D03*
X47589500Y-23225400D03*
X110467800Y-24348000D03*
X172682700Y-34819700D03*
X112842700Y-40329300D03*
X208245400Y-30467500D03*
X50728400Y-23100000D03*
X209432800Y-25440000D03*
X272252400Y-23280900D03*
X171566300Y-23086900D03*
X79067000Y-30518700D03*
X46961400Y-31470500D03*
X244401700Y-50745200D03*
X243947400Y-39076400D03*
X44866000Y-39904100D03*
X17001400Y-40829300D03*
X240951400Y-30411500D03*
X274157400Y-40829300D03*
X78663200Y-23693200D03*
X271418700Y-28282100D03*
X110979400Y-29408200D03*
X155457500Y-21133100D03*
X13395100Y-22941500D03*
X214570700Y-25376200D03*
X245123800Y-24500000D03*
%TO.N,Net-(U2-REG)*%
X274410700Y-19564400D03*
X279125700Y-29974700D03*
%TO.N,Net-(U4-REG)*%
X175674700Y-34923400D03*
%TO.N,Net-(U5-REG)*%
X113469400Y-20366500D03*
X115453800Y-31382200D03*
%TO.N,Net-(U10-REG)*%
X45411400Y-21344600D03*
X49065500Y-30811900D03*
%TO.N,Net-(U6-REG)*%
X15016300Y-20335300D03*
X20090700Y-47685200D03*
%TO.N,Net-(U9-REG)*%
X76938700Y-22008700D03*
X82922700Y-31970500D03*
%TO.N,Net-(U7-REG)*%
X243781600Y-22118400D03*
X246384400Y-53336900D03*
%TO.N,Net-(J1-Pin_1)*%
X19292700Y-25376200D03*
%TO.N,Net-(J1-Pin_2)*%
X23082700Y-19564400D03*
%TO.N,Net-(J2-Pin_2)*%
X51017600Y-21908700D03*
%TO.N,Net-(J2-Pin_1)*%
X47668900Y-24070700D03*
%TO.N,Net-(J3-Pin_2)*%
X85786700Y-21656900D03*
%TO.N,Net-(J3-Pin_1)*%
X86280400Y-22742700D03*
%TO.N,Net-(J4-Pin_1)*%
X114461700Y-23761600D03*
%TO.N,Net-(J4-Pin_2)*%
X118886400Y-22470300D03*
%TO.N,Net-(J5-Pin_2)*%
X179457200Y-26300300D03*
%TO.N,Net-(J5-Pin_1)*%
X175926200Y-27900000D03*
%TO.N,Net-(J6-Pin_1)*%
X208896100Y-26420700D03*
%TO.N,Net-(J7-Pin_1)*%
X248395400Y-24250000D03*
%TO.N,Net-(J7-Pin_2)*%
X244868400Y-22227600D03*
%TO.N,Net-(J8-Pin_1)*%
X276779600Y-23010400D03*
%TO.N,Net-(J8-Pin_2)*%
X277122500Y-21666800D03*
%TO.N,Net-(J9-Pin_1)*%
X145754700Y-34211000D03*
X94890700Y-31188000D03*
%TO.N,Net-(U1-PC01_A1_D1)*%
X173685700Y-29242000D03*
X171845900Y-21950500D03*
X139125100Y-20375000D03*
%TO.N,Net-(U1-PC05_A5_D5_SCL)*%
X139557100Y-31818900D03*
%TO.N,Net-(U1-PA03_A8_D8_SCK)*%
X82011000Y-24176200D03*
%TO.N,Net-(U1-PC00_A0_D0)*%
X273512700Y-19481600D03*
X273612700Y-24641500D03*
X136778700Y-16617400D03*
%TO.N,Net-(U1-PC06_A6_D6_TX)*%
X133786700Y-34093900D03*
X205249400Y-31188000D03*
X206170900Y-26416600D03*
%TO.N,Net-(U1-PC02_A2_D2)*%
X139058900Y-24413400D03*
X113954100Y-25376200D03*
%TO.N,Net-(U1-PA04_A9_D9_MISO)*%
X46445800Y-24270700D03*
X151344000Y-29168400D03*
%TO.N,Net-(U1-PC04_A4_D4_SDA)*%
X133786700Y-28647700D03*
%TO.N,Net-(U1-PC07_A7_D7_RX)*%
X155190200Y-34138800D03*
%TO.N,Net-(U1-PC03_A3_D3)*%
X139058900Y-26342800D03*
X241421900Y-25985700D03*
%TO.N,Net-(RN1-common)*%
X139214400Y-36999800D03*
X247484100Y-22339600D03*
X157739200Y-36999800D03*
X20092300Y-40829300D03*
X20090700Y-27682400D03*
X116668800Y-21334700D03*
X53002700Y-39905700D03*
X115830300Y-36619000D03*
X82695300Y-21708700D03*
X278429300Y-20774000D03*
X20090700Y-20330100D03*
X248039400Y-31188000D03*
X247482700Y-41982700D03*
X212337400Y-31188000D03*
X211578700Y-45078700D03*
X175924200Y-26989200D03*
X49716200Y-21330200D03*
X155381200Y-22754500D03*
X209417200Y-23983900D03*
%TO.N,Net-(RN1-R6)*%
X81279700Y-45523400D03*
X81692800Y-21917300D03*
%TO.N,Net-(RN1-R7)*%
X205374400Y-24104900D03*
%TO.N,Net-(RN1-R2)*%
X18070000Y-44981300D03*
X18194400Y-21458700D03*
%TO.N,Net-(RN1-R8)*%
X205233400Y-25927500D03*
%TO.N,Net-(RN1-R5)*%
X78041100Y-22633100D03*
X79930700Y-54435200D03*
%TO.N,Net-(RN1-R3)*%
X43340400Y-23250000D03*
X44026700Y-48623400D03*
%TO.N,Net-(RN1-R1)*%
X13996600Y-21818200D03*
X145314800Y-42912200D03*
%TO.N,Net-(RN1-R4)*%
X144991400Y-43836400D03*
%TO.N,Net-(RN2-R5)*%
X277402700Y-45717500D03*
X275844500Y-22470700D03*
%TO.N,Net-(RN2-R6)*%
X146389300Y-53624600D03*
X272168000Y-21999100D03*
X94871000Y-53624600D03*
X271418700Y-51529300D03*
%TO.N,Net-(RN2-R7)*%
X155792100Y-24795800D03*
X147504600Y-44475500D03*
X244286900Y-24161600D03*
%TO.N,Net-(RN2-R4)*%
X146160000Y-52645400D03*
X171326500Y-25862500D03*
X155558000Y-25896600D03*
%TO.N,Net-(RN2-R8)*%
X241531400Y-23154400D03*
X241498700Y-42811600D03*
%TO.N,Net-(RN2-R2)*%
X140461900Y-42812200D03*
X106858700Y-42942100D03*
X110618800Y-23261600D03*
%TO.N,Net-(RN2-R3)*%
X172682700Y-39905700D03*
X174878000Y-26284700D03*
X146470800Y-41259900D03*
%TO.N,Net-(RN2-R1)*%
X73946700Y-24529200D03*
X112842700Y-50827800D03*
X109318900Y-22028000D03*
%TD*%
D17*
%TO.N,Net-(U1-GND)*%
X44866000Y-39904100D02*
X46961400Y-37808700D01*
X48273100Y-23799400D02*
X47699100Y-23225400D01*
X47699100Y-23225400D02*
X47589500Y-23225400D01*
X46961400Y-31470500D02*
X48273100Y-30158800D01*
X79067000Y-24097000D02*
X79067000Y-30518700D01*
X48273100Y-30158800D02*
X48273100Y-23799400D01*
X46961400Y-37808700D02*
X46961400Y-31470500D01*
X78663200Y-23693200D02*
X79067000Y-24097000D01*
%TO.N,Net-(U2-REG)*%
X274410700Y-25259700D02*
X279125700Y-29974700D01*
X274410700Y-19564400D02*
X274410700Y-25259700D01*
%TO.N,Net-(J2-Pin_1)*%
X47557400Y-24070700D02*
X46013100Y-22526400D01*
X46013100Y-22526400D02*
X46013100Y-21095400D01*
X47668900Y-24070700D02*
X47557400Y-24070700D01*
X45200000Y-20282400D02*
X45200000Y-16000000D01*
X45200100Y-20282400D02*
X45200000Y-20282400D01*
X46013100Y-21095400D02*
X45200100Y-20282400D01*
%TO.N,Net-(RN2-R6)*%
X85000000Y-43500000D02*
X85000000Y-44601700D01*
X85848100Y-44601700D02*
X94871000Y-53624600D01*
X85000000Y-44601700D02*
X85848100Y-44601700D01*
%TO.N,Net-(RN2-R1)*%
X72300000Y-26175900D02*
X72300000Y-43500000D01*
X73946700Y-24529200D02*
X72300000Y-26175900D01*
%TD*%
M02*
