%TF.GenerationSoftware,KiCad,Pcbnew,8.0.8*%
%TF.CreationDate,2025-05-01T05:04:39-05:00*%
%TF.ProjectId,Obstacle_detector,4f627374-6163-46c6-955f-646574656374,rev?*%
%TF.SameCoordinates,Original*%
%TF.FileFunction,Legend,Top*%
%TF.FilePolarity,Positive*%
%FSLAX46Y46*%
G04 Gerber Fmt 4.6, Leading zero omitted, Abs format (unit mm)*
G04 Created by KiCad (PCBNEW 8.0.8) date 2025-05-01 05:04:39*
%MOMM*%
%LPD*%
G01*
G04 APERTURE LIST*
%ADD10C,0.150000*%
%ADD11C,0.101600*%
%ADD12C,0.076200*%
%ADD13C,0.120000*%
%ADD14C,0.152400*%
%ADD15C,0.127000*%
%ADD16C,0.066040*%
%ADD17C,0.254000*%
G04 APERTURE END LIST*
D10*
X114753333Y-29534819D02*
X114420000Y-29058628D01*
X114181905Y-29534819D02*
X114181905Y-28534819D01*
X114181905Y-28534819D02*
X114562857Y-28534819D01*
X114562857Y-28534819D02*
X114658095Y-28582438D01*
X114658095Y-28582438D02*
X114705714Y-28630057D01*
X114705714Y-28630057D02*
X114753333Y-28725295D01*
X114753333Y-28725295D02*
X114753333Y-28868152D01*
X114753333Y-28868152D02*
X114705714Y-28963390D01*
X114705714Y-28963390D02*
X114658095Y-29011009D01*
X114658095Y-29011009D02*
X114562857Y-29058628D01*
X114562857Y-29058628D02*
X114181905Y-29058628D01*
X115086667Y-28534819D02*
X115705714Y-28534819D01*
X115705714Y-28534819D02*
X115372381Y-28915771D01*
X115372381Y-28915771D02*
X115515238Y-28915771D01*
X115515238Y-28915771D02*
X115610476Y-28963390D01*
X115610476Y-28963390D02*
X115658095Y-29011009D01*
X115658095Y-29011009D02*
X115705714Y-29106247D01*
X115705714Y-29106247D02*
X115705714Y-29344342D01*
X115705714Y-29344342D02*
X115658095Y-29439580D01*
X115658095Y-29439580D02*
X115610476Y-29487200D01*
X115610476Y-29487200D02*
X115515238Y-29534819D01*
X115515238Y-29534819D02*
X115229524Y-29534819D01*
X115229524Y-29534819D02*
X115134286Y-29487200D01*
X115134286Y-29487200D02*
X115086667Y-29439580D01*
X20417726Y-29534819D02*
X20084393Y-29058628D01*
X19846298Y-29534819D02*
X19846298Y-28534819D01*
X19846298Y-28534819D02*
X20227250Y-28534819D01*
X20227250Y-28534819D02*
X20322488Y-28582438D01*
X20322488Y-28582438D02*
X20370107Y-28630057D01*
X20370107Y-28630057D02*
X20417726Y-28725295D01*
X20417726Y-28725295D02*
X20417726Y-28868152D01*
X20417726Y-28868152D02*
X20370107Y-28963390D01*
X20370107Y-28963390D02*
X20322488Y-29011009D01*
X20322488Y-29011009D02*
X20227250Y-29058628D01*
X20227250Y-29058628D02*
X19846298Y-29058628D01*
X21370107Y-29534819D02*
X20798679Y-29534819D01*
X21084393Y-29534819D02*
X21084393Y-28534819D01*
X21084393Y-28534819D02*
X20989155Y-28677676D01*
X20989155Y-28677676D02*
X20893917Y-28772914D01*
X20893917Y-28772914D02*
X20798679Y-28820533D01*
X142600595Y-28004819D02*
X142600595Y-28814342D01*
X142600595Y-28814342D02*
X142648214Y-28909580D01*
X142648214Y-28909580D02*
X142695833Y-28957200D01*
X142695833Y-28957200D02*
X142791071Y-29004819D01*
X142791071Y-29004819D02*
X142981547Y-29004819D01*
X142981547Y-29004819D02*
X143076785Y-28957200D01*
X143076785Y-28957200D02*
X143124404Y-28909580D01*
X143124404Y-28909580D02*
X143172023Y-28814342D01*
X143172023Y-28814342D02*
X143172023Y-28004819D01*
X144124404Y-28004819D02*
X143648214Y-28004819D01*
X143648214Y-28004819D02*
X143600595Y-28481009D01*
X143600595Y-28481009D02*
X143648214Y-28433390D01*
X143648214Y-28433390D02*
X143743452Y-28385771D01*
X143743452Y-28385771D02*
X143981547Y-28385771D01*
X143981547Y-28385771D02*
X144076785Y-28433390D01*
X144076785Y-28433390D02*
X144124404Y-28481009D01*
X144124404Y-28481009D02*
X144172023Y-28576247D01*
X144172023Y-28576247D02*
X144172023Y-28814342D01*
X144172023Y-28814342D02*
X144124404Y-28909580D01*
X144124404Y-28909580D02*
X144076785Y-28957200D01*
X144076785Y-28957200D02*
X143981547Y-29004819D01*
X143981547Y-29004819D02*
X143743452Y-29004819D01*
X143743452Y-29004819D02*
X143648214Y-28957200D01*
X143648214Y-28957200D02*
X143600595Y-28909580D01*
X17988094Y-16012320D02*
X17988094Y-16821843D01*
X17988094Y-16821843D02*
X18035713Y-16917081D01*
X18035713Y-16917081D02*
X18083332Y-16964701D01*
X18083332Y-16964701D02*
X18178570Y-17012320D01*
X18178570Y-17012320D02*
X18369046Y-17012320D01*
X18369046Y-17012320D02*
X18464284Y-16964701D01*
X18464284Y-16964701D02*
X18511903Y-16917081D01*
X18511903Y-16917081D02*
X18559522Y-16821843D01*
X18559522Y-16821843D02*
X18559522Y-16012320D01*
X19464284Y-16345653D02*
X19464284Y-17012320D01*
X19226189Y-15964701D02*
X18988094Y-16678986D01*
X18988094Y-16678986D02*
X19607141Y-16678986D01*
X21035999Y-18222120D02*
X21035999Y-18460215D01*
X20797904Y-18364977D02*
X21035999Y-18460215D01*
X21035999Y-18460215D02*
X21274094Y-18364977D01*
X20893142Y-18650691D02*
X21035999Y-18460215D01*
X21035999Y-18460215D02*
X21178856Y-18650691D01*
X21035999Y-18222120D02*
X21035999Y-18460215D01*
X20797904Y-18364977D02*
X21035999Y-18460215D01*
X21035999Y-18460215D02*
X21274094Y-18364977D01*
X20893142Y-18650691D02*
X21035999Y-18460215D01*
X21035999Y-18460215D02*
X21178856Y-18650691D01*
X131253333Y-29534819D02*
X130920000Y-29058628D01*
X130681905Y-29534819D02*
X130681905Y-28534819D01*
X130681905Y-28534819D02*
X131062857Y-28534819D01*
X131062857Y-28534819D02*
X131158095Y-28582438D01*
X131158095Y-28582438D02*
X131205714Y-28630057D01*
X131205714Y-28630057D02*
X131253333Y-28725295D01*
X131253333Y-28725295D02*
X131253333Y-28868152D01*
X131253333Y-28868152D02*
X131205714Y-28963390D01*
X131205714Y-28963390D02*
X131158095Y-29011009D01*
X131158095Y-29011009D02*
X131062857Y-29058628D01*
X131062857Y-29058628D02*
X130681905Y-29058628D01*
X131586667Y-28534819D02*
X132253333Y-28534819D01*
X132253333Y-28534819D02*
X131824762Y-29534819D01*
X46833333Y-29534819D02*
X46500000Y-29058628D01*
X46261905Y-29534819D02*
X46261905Y-28534819D01*
X46261905Y-28534819D02*
X46642857Y-28534819D01*
X46642857Y-28534819D02*
X46738095Y-28582438D01*
X46738095Y-28582438D02*
X46785714Y-28630057D01*
X46785714Y-28630057D02*
X46833333Y-28725295D01*
X46833333Y-28725295D02*
X46833333Y-28868152D01*
X46833333Y-28868152D02*
X46785714Y-28963390D01*
X46785714Y-28963390D02*
X46738095Y-29011009D01*
X46738095Y-29011009D02*
X46642857Y-29058628D01*
X46642857Y-29058628D02*
X46261905Y-29058628D01*
X47738095Y-28534819D02*
X47261905Y-28534819D01*
X47261905Y-28534819D02*
X47214286Y-29011009D01*
X47214286Y-29011009D02*
X47261905Y-28963390D01*
X47261905Y-28963390D02*
X47357143Y-28915771D01*
X47357143Y-28915771D02*
X47595238Y-28915771D01*
X47595238Y-28915771D02*
X47690476Y-28963390D01*
X47690476Y-28963390D02*
X47738095Y-29011009D01*
X47738095Y-29011009D02*
X47785714Y-29106247D01*
X47785714Y-29106247D02*
X47785714Y-29344342D01*
X47785714Y-29344342D02*
X47738095Y-29439580D01*
X47738095Y-29439580D02*
X47690476Y-29487200D01*
X47690476Y-29487200D02*
X47595238Y-29534819D01*
X47595238Y-29534819D02*
X47357143Y-29534819D01*
X47357143Y-29534819D02*
X47261905Y-29487200D01*
X47261905Y-29487200D02*
X47214286Y-29439580D01*
X33957726Y-29348942D02*
X33624393Y-28872751D01*
X33386298Y-29348942D02*
X33386298Y-28348942D01*
X33386298Y-28348942D02*
X33767250Y-28348942D01*
X33767250Y-28348942D02*
X33862488Y-28396561D01*
X33862488Y-28396561D02*
X33910107Y-28444180D01*
X33910107Y-28444180D02*
X33957726Y-28539418D01*
X33957726Y-28539418D02*
X33957726Y-28682275D01*
X33957726Y-28682275D02*
X33910107Y-28777513D01*
X33910107Y-28777513D02*
X33862488Y-28825132D01*
X33862488Y-28825132D02*
X33767250Y-28872751D01*
X33767250Y-28872751D02*
X33386298Y-28872751D01*
X34338679Y-28444180D02*
X34386298Y-28396561D01*
X34386298Y-28396561D02*
X34481536Y-28348942D01*
X34481536Y-28348942D02*
X34719631Y-28348942D01*
X34719631Y-28348942D02*
X34814869Y-28396561D01*
X34814869Y-28396561D02*
X34862488Y-28444180D01*
X34862488Y-28444180D02*
X34910107Y-28539418D01*
X34910107Y-28539418D02*
X34910107Y-28634656D01*
X34910107Y-28634656D02*
X34862488Y-28777513D01*
X34862488Y-28777513D02*
X34291060Y-29348942D01*
X34291060Y-29348942D02*
X34910107Y-29348942D01*
X99833333Y-29034819D02*
X99500000Y-28558628D01*
X99261905Y-29034819D02*
X99261905Y-28034819D01*
X99261905Y-28034819D02*
X99642857Y-28034819D01*
X99642857Y-28034819D02*
X99738095Y-28082438D01*
X99738095Y-28082438D02*
X99785714Y-28130057D01*
X99785714Y-28130057D02*
X99833333Y-28225295D01*
X99833333Y-28225295D02*
X99833333Y-28368152D01*
X99833333Y-28368152D02*
X99785714Y-28463390D01*
X99785714Y-28463390D02*
X99738095Y-28511009D01*
X99738095Y-28511009D02*
X99642857Y-28558628D01*
X99642857Y-28558628D02*
X99261905Y-28558628D01*
X100690476Y-28368152D02*
X100690476Y-29034819D01*
X100452381Y-27987200D02*
X100214286Y-28701485D01*
X100214286Y-28701485D02*
X100833333Y-28701485D01*
X153988096Y-15012320D02*
X153988096Y-15821843D01*
X153988096Y-15821843D02*
X154035715Y-15917081D01*
X154035715Y-15917081D02*
X154083334Y-15964701D01*
X154083334Y-15964701D02*
X154178572Y-16012320D01*
X154178572Y-16012320D02*
X154369048Y-16012320D01*
X154369048Y-16012320D02*
X154464286Y-15964701D01*
X154464286Y-15964701D02*
X154511905Y-15917081D01*
X154511905Y-15917081D02*
X154559524Y-15821843D01*
X154559524Y-15821843D02*
X154559524Y-15012320D01*
X154988096Y-15107558D02*
X155035715Y-15059939D01*
X155035715Y-15059939D02*
X155130953Y-15012320D01*
X155130953Y-15012320D02*
X155369048Y-15012320D01*
X155369048Y-15012320D02*
X155464286Y-15059939D01*
X155464286Y-15059939D02*
X155511905Y-15107558D01*
X155511905Y-15107558D02*
X155559524Y-15202796D01*
X155559524Y-15202796D02*
X155559524Y-15298034D01*
X155559524Y-15298034D02*
X155511905Y-15440891D01*
X155511905Y-15440891D02*
X154940477Y-16012320D01*
X154940477Y-16012320D02*
X155559524Y-16012320D01*
X157036001Y-17222120D02*
X157036001Y-17460215D01*
X156797906Y-17364977D02*
X157036001Y-17460215D01*
X157036001Y-17460215D02*
X157274096Y-17364977D01*
X156893144Y-17650691D02*
X157036001Y-17460215D01*
X157036001Y-17460215D02*
X157178858Y-17650691D01*
X157036001Y-17222120D02*
X157036001Y-17460215D01*
X156797906Y-17364977D02*
X157036001Y-17460215D01*
X157036001Y-17460215D02*
X157274096Y-17364977D01*
X156893144Y-17650691D02*
X157036001Y-17460215D01*
X157036001Y-17460215D02*
X157178858Y-17650691D01*
X60333333Y-29534819D02*
X60000000Y-29058628D01*
X59761905Y-29534819D02*
X59761905Y-28534819D01*
X59761905Y-28534819D02*
X60142857Y-28534819D01*
X60142857Y-28534819D02*
X60238095Y-28582438D01*
X60238095Y-28582438D02*
X60285714Y-28630057D01*
X60285714Y-28630057D02*
X60333333Y-28725295D01*
X60333333Y-28725295D02*
X60333333Y-28868152D01*
X60333333Y-28868152D02*
X60285714Y-28963390D01*
X60285714Y-28963390D02*
X60238095Y-29011009D01*
X60238095Y-29011009D02*
X60142857Y-29058628D01*
X60142857Y-29058628D02*
X59761905Y-29058628D01*
X61190476Y-28534819D02*
X61000000Y-28534819D01*
X61000000Y-28534819D02*
X60904762Y-28582438D01*
X60904762Y-28582438D02*
X60857143Y-28630057D01*
X60857143Y-28630057D02*
X60761905Y-28772914D01*
X60761905Y-28772914D02*
X60714286Y-28963390D01*
X60714286Y-28963390D02*
X60714286Y-29344342D01*
X60714286Y-29344342D02*
X60761905Y-29439580D01*
X60761905Y-29439580D02*
X60809524Y-29487200D01*
X60809524Y-29487200D02*
X60904762Y-29534819D01*
X60904762Y-29534819D02*
X61095238Y-29534819D01*
X61095238Y-29534819D02*
X61190476Y-29487200D01*
X61190476Y-29487200D02*
X61238095Y-29439580D01*
X61238095Y-29439580D02*
X61285714Y-29344342D01*
X61285714Y-29344342D02*
X61285714Y-29106247D01*
X61285714Y-29106247D02*
X61238095Y-29011009D01*
X61238095Y-29011009D02*
X61190476Y-28963390D01*
X61190476Y-28963390D02*
X61095238Y-28915771D01*
X61095238Y-28915771D02*
X60904762Y-28915771D01*
X60904762Y-28915771D02*
X60809524Y-28963390D01*
X60809524Y-28963390D02*
X60761905Y-29011009D01*
X60761905Y-29011009D02*
X60714286Y-29106247D01*
X55100595Y-15179819D02*
X55100595Y-15989342D01*
X55100595Y-15989342D02*
X55148214Y-16084580D01*
X55148214Y-16084580D02*
X55195833Y-16132200D01*
X55195833Y-16132200D02*
X55291071Y-16179819D01*
X55291071Y-16179819D02*
X55481547Y-16179819D01*
X55481547Y-16179819D02*
X55576785Y-16132200D01*
X55576785Y-16132200D02*
X55624404Y-16084580D01*
X55624404Y-16084580D02*
X55672023Y-15989342D01*
X55672023Y-15989342D02*
X55672023Y-15179819D01*
X56052976Y-15179819D02*
X56672023Y-15179819D01*
X56672023Y-15179819D02*
X56338690Y-15560771D01*
X56338690Y-15560771D02*
X56481547Y-15560771D01*
X56481547Y-15560771D02*
X56576785Y-15608390D01*
X56576785Y-15608390D02*
X56624404Y-15656009D01*
X56624404Y-15656009D02*
X56672023Y-15751247D01*
X56672023Y-15751247D02*
X56672023Y-15989342D01*
X56672023Y-15989342D02*
X56624404Y-16084580D01*
X56624404Y-16084580D02*
X56576785Y-16132200D01*
X56576785Y-16132200D02*
X56481547Y-16179819D01*
X56481547Y-16179819D02*
X56195833Y-16179819D01*
X56195833Y-16179819D02*
X56100595Y-16132200D01*
X56100595Y-16132200D02*
X56052976Y-16084580D01*
D11*
X78918363Y-12540672D02*
X78918363Y-13260339D01*
X78918363Y-13260339D02*
X78960697Y-13345005D01*
X78960697Y-13345005D02*
X79003030Y-13387339D01*
X79003030Y-13387339D02*
X79087697Y-13429672D01*
X79087697Y-13429672D02*
X79257030Y-13429672D01*
X79257030Y-13429672D02*
X79341697Y-13387339D01*
X79341697Y-13387339D02*
X79384030Y-13345005D01*
X79384030Y-13345005D02*
X79426363Y-13260339D01*
X79426363Y-13260339D02*
X79426363Y-12540672D01*
X80315363Y-13429672D02*
X79807363Y-13429672D01*
X80061363Y-13429672D02*
X80061363Y-12540672D01*
X80061363Y-12540672D02*
X79976696Y-12667672D01*
X79976696Y-12667672D02*
X79892030Y-12752339D01*
X79892030Y-12752339D02*
X79807363Y-12794672D01*
D12*
X75929026Y-24258208D02*
X76016112Y-24287236D01*
X76016112Y-24287236D02*
X76161254Y-24287236D01*
X76161254Y-24287236D02*
X76219312Y-24258208D01*
X76219312Y-24258208D02*
X76248340Y-24229179D01*
X76248340Y-24229179D02*
X76277369Y-24171122D01*
X76277369Y-24171122D02*
X76277369Y-24113065D01*
X76277369Y-24113065D02*
X76248340Y-24055008D01*
X76248340Y-24055008D02*
X76219312Y-24025979D01*
X76219312Y-24025979D02*
X76161254Y-23996950D01*
X76161254Y-23996950D02*
X76045140Y-23967922D01*
X76045140Y-23967922D02*
X75987083Y-23938893D01*
X75987083Y-23938893D02*
X75958054Y-23909865D01*
X75958054Y-23909865D02*
X75929026Y-23851808D01*
X75929026Y-23851808D02*
X75929026Y-23793750D01*
X75929026Y-23793750D02*
X75958054Y-23735693D01*
X75958054Y-23735693D02*
X75987083Y-23706665D01*
X75987083Y-23706665D02*
X76045140Y-23677636D01*
X76045140Y-23677636D02*
X76190283Y-23677636D01*
X76190283Y-23677636D02*
X76277369Y-23706665D01*
X76770854Y-24258208D02*
X76712797Y-24287236D01*
X76712797Y-24287236D02*
X76596683Y-24287236D01*
X76596683Y-24287236D02*
X76538625Y-24258208D01*
X76538625Y-24258208D02*
X76509597Y-24200150D01*
X76509597Y-24200150D02*
X76509597Y-23967922D01*
X76509597Y-23967922D02*
X76538625Y-23909865D01*
X76538625Y-23909865D02*
X76596683Y-23880836D01*
X76596683Y-23880836D02*
X76712797Y-23880836D01*
X76712797Y-23880836D02*
X76770854Y-23909865D01*
X76770854Y-23909865D02*
X76799883Y-23967922D01*
X76799883Y-23967922D02*
X76799883Y-24025979D01*
X76799883Y-24025979D02*
X76509597Y-24084036D01*
X77293368Y-24258208D02*
X77235311Y-24287236D01*
X77235311Y-24287236D02*
X77119197Y-24287236D01*
X77119197Y-24287236D02*
X77061139Y-24258208D01*
X77061139Y-24258208D02*
X77032111Y-24200150D01*
X77032111Y-24200150D02*
X77032111Y-23967922D01*
X77032111Y-23967922D02*
X77061139Y-23909865D01*
X77061139Y-23909865D02*
X77119197Y-23880836D01*
X77119197Y-23880836D02*
X77235311Y-23880836D01*
X77235311Y-23880836D02*
X77293368Y-23909865D01*
X77293368Y-23909865D02*
X77322397Y-23967922D01*
X77322397Y-23967922D02*
X77322397Y-24025979D01*
X77322397Y-24025979D02*
X77032111Y-24084036D01*
X77815882Y-24258208D02*
X77757825Y-24287236D01*
X77757825Y-24287236D02*
X77641711Y-24287236D01*
X77641711Y-24287236D02*
X77583653Y-24258208D01*
X77583653Y-24258208D02*
X77554625Y-24200150D01*
X77554625Y-24200150D02*
X77554625Y-23967922D01*
X77554625Y-23967922D02*
X77583653Y-23909865D01*
X77583653Y-23909865D02*
X77641711Y-23880836D01*
X77641711Y-23880836D02*
X77757825Y-23880836D01*
X77757825Y-23880836D02*
X77815882Y-23909865D01*
X77815882Y-23909865D02*
X77844911Y-23967922D01*
X77844911Y-23967922D02*
X77844911Y-24025979D01*
X77844911Y-24025979D02*
X77554625Y-24084036D01*
X78367425Y-24287236D02*
X78367425Y-23677636D01*
X78367425Y-24258208D02*
X78309367Y-24287236D01*
X78309367Y-24287236D02*
X78193253Y-24287236D01*
X78193253Y-24287236D02*
X78135196Y-24258208D01*
X78135196Y-24258208D02*
X78106167Y-24229179D01*
X78106167Y-24229179D02*
X78077139Y-24171122D01*
X78077139Y-24171122D02*
X78077139Y-23996950D01*
X78077139Y-23996950D02*
X78106167Y-23938893D01*
X78106167Y-23938893D02*
X78135196Y-23909865D01*
X78135196Y-23909865D02*
X78193253Y-23880836D01*
X78193253Y-23880836D02*
X78309367Y-23880836D01*
X78309367Y-23880836D02*
X78367425Y-23909865D01*
X78918968Y-23880836D02*
X78918968Y-24287236D01*
X78657710Y-23880836D02*
X78657710Y-24200150D01*
X78657710Y-24200150D02*
X78686739Y-24258208D01*
X78686739Y-24258208D02*
X78744796Y-24287236D01*
X78744796Y-24287236D02*
X78831882Y-24287236D01*
X78831882Y-24287236D02*
X78889939Y-24258208D01*
X78889939Y-24258208D02*
X78918968Y-24229179D01*
X79209253Y-24287236D02*
X79209253Y-23880836D01*
X79209253Y-23677636D02*
X79180225Y-23706665D01*
X79180225Y-23706665D02*
X79209253Y-23735693D01*
X79209253Y-23735693D02*
X79238282Y-23706665D01*
X79238282Y-23706665D02*
X79209253Y-23677636D01*
X79209253Y-23677636D02*
X79209253Y-23735693D01*
X79499539Y-23880836D02*
X79499539Y-24287236D01*
X79499539Y-23938893D02*
X79528568Y-23909865D01*
X79528568Y-23909865D02*
X79586625Y-23880836D01*
X79586625Y-23880836D02*
X79673711Y-23880836D01*
X79673711Y-23880836D02*
X79731768Y-23909865D01*
X79731768Y-23909865D02*
X79760797Y-23967922D01*
X79760797Y-23967922D02*
X79760797Y-24287236D01*
X80138168Y-24287236D02*
X80080111Y-24258208D01*
X80080111Y-24258208D02*
X80051082Y-24229179D01*
X80051082Y-24229179D02*
X80022054Y-24171122D01*
X80022054Y-24171122D02*
X80022054Y-23996950D01*
X80022054Y-23996950D02*
X80051082Y-23938893D01*
X80051082Y-23938893D02*
X80080111Y-23909865D01*
X80080111Y-23909865D02*
X80138168Y-23880836D01*
X80138168Y-23880836D02*
X80225254Y-23880836D01*
X80225254Y-23880836D02*
X80283311Y-23909865D01*
X80283311Y-23909865D02*
X80312340Y-23938893D01*
X80312340Y-23938893D02*
X80341368Y-23996950D01*
X80341368Y-23996950D02*
X80341368Y-24171122D01*
X80341368Y-24171122D02*
X80312340Y-24229179D01*
X80312340Y-24229179D02*
X80283311Y-24258208D01*
X80283311Y-24258208D02*
X80225254Y-24287236D01*
X80225254Y-24287236D02*
X80138168Y-24287236D01*
X80544568Y-23677636D02*
X80950968Y-24287236D01*
X80950968Y-23677636D02*
X80544568Y-24287236D01*
X81183196Y-24287236D02*
X81183196Y-23677636D01*
X81444454Y-24113065D02*
X81734740Y-24113065D01*
X81386397Y-24287236D02*
X81589597Y-23677636D01*
X81589597Y-23677636D02*
X81792797Y-24287236D01*
X82112111Y-23677636D02*
X82228225Y-23677636D01*
X82228225Y-23677636D02*
X82286282Y-23706665D01*
X82286282Y-23706665D02*
X82344339Y-23764722D01*
X82344339Y-23764722D02*
X82373368Y-23880836D01*
X82373368Y-23880836D02*
X82373368Y-24084036D01*
X82373368Y-24084036D02*
X82344339Y-24200150D01*
X82344339Y-24200150D02*
X82286282Y-24258208D01*
X82286282Y-24258208D02*
X82228225Y-24287236D01*
X82228225Y-24287236D02*
X82112111Y-24287236D01*
X82112111Y-24287236D02*
X82054054Y-24258208D01*
X82054054Y-24258208D02*
X81995996Y-24200150D01*
X81995996Y-24200150D02*
X81966968Y-24084036D01*
X81966968Y-24084036D02*
X81966968Y-23880836D01*
X81966968Y-23880836D02*
X81995996Y-23764722D01*
X81995996Y-23764722D02*
X82054054Y-23706665D01*
X82054054Y-23706665D02*
X82112111Y-23677636D01*
D13*
%TO.C,R3*%
X113000000Y-30080000D02*
X116840000Y-30080000D01*
X113000000Y-31920000D02*
X116840000Y-31920000D01*
%TO.C,R1*%
X18664393Y-30080000D02*
X22504393Y-30080000D01*
X18664393Y-31920000D02*
X22504393Y-31920000D01*
%TO.C,U5*%
X143362500Y-29390000D02*
X142562500Y-29390000D01*
X143362500Y-29390000D02*
X144162500Y-29390000D01*
X143362500Y-32510000D02*
X142562500Y-32510000D01*
X143362500Y-32510000D02*
X144162500Y-32510000D01*
X142062500Y-29440000D02*
X141822500Y-29110000D01*
X142302500Y-29110000D01*
X142062500Y-29440000D01*
G36*
X142062500Y-29440000D02*
G01*
X141822500Y-29110000D01*
X142302500Y-29110000D01*
X142062500Y-29440000D01*
G37*
D14*
%TO.C,U4*%
X15409899Y-14906501D02*
X15409899Y-18208501D01*
X15409899Y-18208501D02*
X16147388Y-18208501D01*
X16147388Y-14906501D02*
X15409899Y-14906501D01*
X21352610Y-18208501D02*
X22090099Y-18208501D01*
X22090099Y-14906501D02*
X21352610Y-14906501D01*
X22090099Y-18208501D02*
X22090099Y-14906501D01*
D13*
%TO.C,R7*%
X129500000Y-30080000D02*
X133340000Y-30080000D01*
X129500000Y-31920000D02*
X133340000Y-31920000D01*
%TO.C,R5*%
X45080000Y-30080000D02*
X48920000Y-30080000D01*
X45080000Y-31920000D02*
X48920000Y-31920000D01*
%TO.C,R2*%
X32204393Y-29894123D02*
X36044393Y-29894123D01*
X32204393Y-31734123D02*
X36044393Y-31734123D01*
%TO.C,R4*%
X98080000Y-29580000D02*
X101920000Y-29580000D01*
X98080000Y-31420000D02*
X101920000Y-31420000D01*
D14*
%TO.C,U2*%
X151409901Y-13906501D02*
X151409901Y-17208501D01*
X151409901Y-17208501D02*
X152147390Y-17208501D01*
X152147390Y-13906501D02*
X151409901Y-13906501D01*
X157352612Y-17208501D02*
X158090101Y-17208501D01*
X158090101Y-13906501D02*
X157352612Y-13906501D01*
X158090101Y-17208501D02*
X158090101Y-13906501D01*
D13*
%TO.C,R6*%
X58580000Y-30080000D02*
X62420000Y-30080000D01*
X58580000Y-31920000D02*
X62420000Y-31920000D01*
%TO.C,U3*%
X55862500Y-16540000D02*
X53662500Y-16540000D01*
X55862500Y-16540000D02*
X58062500Y-16540000D01*
X55862500Y-23310000D02*
X53662500Y-23310000D01*
X55862500Y-23310000D02*
X58062500Y-23310000D01*
X52002500Y-17000000D02*
X51672500Y-17240000D01*
X51672500Y-16760000D01*
X52002500Y-17000000D01*
G36*
X52002500Y-17000000D02*
G01*
X51672500Y-17240000D01*
X51672500Y-16760000D01*
X52002500Y-17000000D01*
G37*
D15*
%TO.C,U1*%
X70261197Y-14476567D02*
X70261197Y-34804187D01*
X70261197Y-34804187D02*
X88058977Y-34804187D01*
X70931757Y-13806007D02*
X70261197Y-14476567D01*
D16*
X73944197Y-13722187D02*
X75722197Y-13722187D01*
X73944197Y-16389187D02*
X73944197Y-13722187D01*
X73944197Y-16389187D02*
X75722197Y-16389187D01*
X73944197Y-17786187D02*
X75722197Y-17786187D01*
X73944197Y-20455727D02*
X73944197Y-17786187D01*
X73944197Y-20455727D02*
X75722197Y-20455727D01*
D15*
X74655397Y-19734367D02*
X74655397Y-12381067D01*
X74660477Y-12381067D02*
X83654617Y-12381067D01*
D16*
X75722197Y-16389187D02*
X75722197Y-13722187D01*
X75722197Y-20455727D02*
X75722197Y-17786187D01*
X76611197Y-14484187D02*
X81691197Y-14484187D01*
X76611197Y-17024187D02*
X76611197Y-14484187D01*
X76611197Y-17024187D02*
X81691197Y-17024187D01*
X76611197Y-31629187D02*
X82326197Y-31629187D01*
X76611197Y-34169187D02*
X76611197Y-31629187D01*
X76611197Y-34169187D02*
X82326197Y-34169187D01*
X81691197Y-17024187D02*
X81691197Y-14484187D01*
X82326197Y-34169187D02*
X82326197Y-31629187D01*
X82580197Y-13722187D02*
X84358197Y-13722187D01*
X82580197Y-16389187D02*
X82580197Y-13722187D01*
X82580197Y-16389187D02*
X84358197Y-16389187D01*
X82580197Y-17786187D02*
X84358197Y-17786187D01*
X82580197Y-20455727D02*
X82580197Y-17786187D01*
X82580197Y-20455727D02*
X84358197Y-20455727D01*
D15*
X83654617Y-12381067D02*
X83654617Y-19734367D01*
X83654617Y-19734367D02*
X74655397Y-19734367D01*
D16*
X84358197Y-16389187D02*
X84358197Y-13722187D01*
X84358197Y-20455727D02*
X84358197Y-17786187D01*
D15*
X88058977Y-13806007D02*
X70931757Y-13806007D01*
X88058977Y-34804187D02*
X88058977Y-13806007D01*
D17*
X69499197Y-16643187D02*
G75*
G02*
X69245197Y-16643187I-127000J0D01*
G01*
X69245197Y-16643187D02*
G75*
G02*
X69499197Y-16643187I127000J0D01*
G01*
%TD*%
M02*
