%TF.GenerationSoftware,KiCad,Pcbnew,8.0.8*%
%TF.CreationDate,2025-05-04T21:01:19-05:00*%
%TF.ProjectId,Obstacle_detector,4f627374-6163-46c6-955f-646574656374,rev?*%
%TF.SameCoordinates,Original*%
%TF.FileFunction,Soldermask,Top*%
%TF.FilePolarity,Negative*%
%FSLAX46Y46*%
G04 Gerber Fmt 4.6, Leading zero omitted, Abs format (unit mm)*
G04 Created by KiCad (PCBNEW 8.0.8) date 2025-05-04 21:01:19*
%MOMM*%
%LPD*%
G01*
G04 APERTURE LIST*
G04 Aperture macros list*
%AMRoundRect*
0 Rectangle with rounded corners*
0 $1 Rounding radius*
0 $2 $3 $4 $5 $6 $7 $8 $9 X,Y pos of 4 corners*
0 Add a 4 corners polygon primitive as box body*
4,1,4,$2,$3,$4,$5,$6,$7,$8,$9,$2,$3,0*
0 Add four circle primitives for the rounded corners*
1,1,$1+$1,$2,$3*
1,1,$1+$1,$4,$5*
1,1,$1+$1,$6,$7*
1,1,$1+$1,$8,$9*
0 Add four rect primitives between the rounded corners*
20,1,$1+$1,$2,$3,$4,$5,0*
20,1,$1+$1,$4,$5,$6,$7,0*
20,1,$1+$1,$6,$7,$8,$9,0*
20,1,$1+$1,$8,$9,$2,$3,0*%
G04 Aperture macros list end*
%ADD10C,1.400000*%
%ADD11O,1.400000X1.400000*%
%ADD12RoundRect,0.150000X-0.512500X-0.150000X0.512500X-0.150000X0.512500X0.150000X-0.512500X0.150000X0*%
%ADD13R,0.530000X0.545000*%
%ADD14R,0.565000X0.530000*%
%ADD15R,2.345995X1.229995*%
%ADD16RoundRect,0.100000X-0.637500X-0.100000X0.637500X-0.100000X0.637500X0.100000X-0.637500X0.100000X0*%
%ADD17O,2.748280X1.998980*%
%ADD18O,1.016000X2.032000*%
%ADD19C,1.143000*%
G04 APERTURE END LIST*
D10*
%TO.C,R3*%
X109920000Y-30500000D03*
D11*
X115000000Y-30500000D03*
%TD*%
D10*
%TO.C,R1*%
X18044400Y-31000000D03*
D11*
X23124400Y-31000000D03*
%TD*%
D12*
%TO.C,U5*%
X138725000Y-29000000D03*
X138725000Y-29950000D03*
X138725000Y-30900000D03*
X141000000Y-30900000D03*
X141000000Y-29000000D03*
%TD*%
D13*
%TO.C,U4*%
X22250001Y-18115001D03*
X21500000Y-18115001D03*
X20750001Y-18115001D03*
X20000000Y-18115001D03*
X19249999Y-18115001D03*
X18500000Y-18115001D03*
X17749999Y-18115001D03*
D14*
X22667500Y-17057500D03*
D15*
X20000000Y-17057500D03*
D14*
X17332500Y-17057500D03*
D13*
X22250001Y-15999999D03*
X21500000Y-15999999D03*
X20750001Y-15999999D03*
X20000000Y-15999999D03*
X19249999Y-15999999D03*
X18500000Y-15999999D03*
X17749999Y-15999999D03*
%TD*%
D10*
%TO.C,R7*%
X122460000Y-30500000D03*
D11*
X127540000Y-30500000D03*
%TD*%
D10*
%TO.C,R5*%
X44460000Y-31000000D03*
D11*
X49540000Y-31000000D03*
%TD*%
D10*
%TO.C,R2*%
X31584400Y-30814100D03*
D11*
X36664400Y-30814100D03*
%TD*%
D10*
%TO.C,R4*%
X97460000Y-30500000D03*
D11*
X102540000Y-30500000D03*
%TD*%
D13*
%TO.C,U2*%
X142750001Y-17615001D03*
X142000000Y-17615001D03*
X141250001Y-17615001D03*
X140500000Y-17615001D03*
X139749999Y-17615001D03*
X139000000Y-17615001D03*
X138249999Y-17615001D03*
D14*
X143167500Y-16557500D03*
D15*
X140500000Y-16557500D03*
D14*
X137832500Y-16557500D03*
D13*
X142750001Y-15499999D03*
X142000000Y-15499999D03*
X141250001Y-15499999D03*
X140500000Y-15499999D03*
X139749999Y-15499999D03*
X139000000Y-15499999D03*
X138249999Y-15499999D03*
%TD*%
D10*
%TO.C,R6*%
X57960000Y-31000000D03*
D11*
X63040000Y-31000000D03*
%TD*%
D16*
%TO.C,U3*%
X53000000Y-17000000D03*
X53000000Y-17650000D03*
X53000000Y-18300000D03*
X53000000Y-18950000D03*
X53000000Y-19600000D03*
X53000000Y-20250000D03*
X53000000Y-20900000D03*
X53000000Y-21550000D03*
X53000000Y-22200000D03*
X53000000Y-22850000D03*
X58725000Y-22850000D03*
X58725000Y-22200000D03*
X58725000Y-21550000D03*
X58725000Y-20900000D03*
X58725000Y-20250000D03*
X58725000Y-19600000D03*
X58725000Y-18950000D03*
X58725000Y-18300000D03*
X58725000Y-17650000D03*
X58725000Y-17000000D03*
%TD*%
D17*
%TO.C,U1*%
X71094320Y-16686380D03*
X71094320Y-19226380D03*
X71094320Y-21766380D03*
X71094320Y-24306380D03*
X71094320Y-26846380D03*
X71094320Y-29386380D03*
X71094320Y-31926380D03*
X87258880Y-31926380D03*
X87258880Y-29386380D03*
X87258880Y-26846380D03*
X87258880Y-24306380D03*
X87258880Y-21766380D03*
X87258880Y-19226380D03*
X87258880Y-16686380D03*
D18*
X77961200Y-33004200D03*
X80511200Y-33004200D03*
D19*
X77960003Y-16000013D03*
X80500003Y-16000013D03*
X77960003Y-18540013D03*
X80500003Y-18540013D03*
%TD*%
M02*
