%TF.GenerationSoftware,KiCad,Pcbnew,8.0.8*%
%TF.CreationDate,2025-05-04T21:01:19-05:00*%
%TF.ProjectId,Obstacle_detector,4f627374-6163-46c6-955f-646574656374,rev?*%
%TF.SameCoordinates,Original*%
%TF.FileFunction,Copper,L1,Top*%
%TF.FilePolarity,Positive*%
%FSLAX46Y46*%
G04 Gerber Fmt 4.6, Leading zero omitted, Abs format (unit mm)*
G04 Created by KiCad (PCBNEW 8.0.8) date 2025-05-04 21:01:19*
%MOMM*%
%LPD*%
G01*
G04 APERTURE LIST*
G04 Aperture macros list*
%AMRoundRect*
0 Rectangle with rounded corners*
0 $1 Rounding radius*
0 $2 $3 $4 $5 $6 $7 $8 $9 X,Y pos of 4 corners*
0 Add a 4 corners polygon primitive as box body*
4,1,4,$2,$3,$4,$5,$6,$7,$8,$9,$2,$3,0*
0 Add four circle primitives for the rounded corners*
1,1,$1+$1,$2,$3*
1,1,$1+$1,$4,$5*
1,1,$1+$1,$6,$7*
1,1,$1+$1,$8,$9*
0 Add four rect primitives between the rounded corners*
20,1,$1+$1,$2,$3,$4,$5,0*
20,1,$1+$1,$4,$5,$6,$7,0*
20,1,$1+$1,$6,$7,$8,$9,0*
20,1,$1+$1,$8,$9,$2,$3,0*%
G04 Aperture macros list end*
%TA.AperFunction,ComponentPad*%
%ADD10C,1.400000*%
%TD*%
%TA.AperFunction,ComponentPad*%
%ADD11O,1.400000X1.400000*%
%TD*%
%TA.AperFunction,SMDPad,CuDef*%
%ADD12RoundRect,0.150000X-0.512500X-0.150000X0.512500X-0.150000X0.512500X0.150000X-0.512500X0.150000X0*%
%TD*%
%TA.AperFunction,SMDPad,CuDef*%
%ADD13R,0.530000X0.545000*%
%TD*%
%TA.AperFunction,SMDPad,CuDef*%
%ADD14R,0.565000X0.530000*%
%TD*%
%TA.AperFunction,SMDPad,CuDef*%
%ADD15R,2.345995X1.229995*%
%TD*%
%TA.AperFunction,SMDPad,CuDef*%
%ADD16RoundRect,0.100000X-0.637500X-0.100000X0.637500X-0.100000X0.637500X0.100000X-0.637500X0.100000X0*%
%TD*%
%TA.AperFunction,SMDPad,CuDef*%
%ADD17O,2.748280X1.998980*%
%TD*%
%TA.AperFunction,SMDPad,CuDef*%
%ADD18O,1.016000X2.032000*%
%TD*%
%TA.AperFunction,SMDPad,CuDef*%
%ADD19C,1.143000*%
%TD*%
%TA.AperFunction,ViaPad*%
%ADD20C,0.600000*%
%TD*%
%TA.AperFunction,Conductor*%
%ADD21C,0.200000*%
%TD*%
G04 APERTURE END LIST*
D10*
%TO.P,R3,1*%
%TO.N,Net-(U3-SC1)*%
X109920000Y-30500000D03*
D11*
%TO.P,R3,2*%
%TO.N,Net-(U2-SCL{slash}MCLK)*%
X115000000Y-30500000D03*
%TD*%
D10*
%TO.P,R1,1*%
%TO.N,Net-(U3-SC0)*%
X18044400Y-31000000D03*
D11*
%TO.P,R1,2*%
%TO.N,Net-(U4-SCL{slash}MCLK)*%
X23124400Y-31000000D03*
%TD*%
D12*
%TO.P,U5,1,IN*%
%TO.N,+3.3V*%
X138725000Y-29000000D03*
%TO.P,U5,2,GND*%
%TO.N,GND*%
X138725000Y-29950000D03*
%TO.P,U5,3,EN*%
%TO.N,unconnected-(U5-EN-Pad3)*%
X138725000Y-30900000D03*
%TO.P,U5,4,NC*%
%TO.N,unconnected-(U5-NC-Pad4)*%
X141000000Y-30900000D03*
%TO.P,U5,5,OUT*%
%TO.N,+1V8*%
X141000000Y-29000000D03*
%TD*%
D13*
%TO.P,U4,A1,INT*%
%TO.N,Net-(U3-~{INT0})*%
X22250001Y-18115001D03*
%TO.P,U4,A2,LPN*%
%TO.N,unconnected-(U4-LPN-PadA2)*%
X21500000Y-18115001D03*
%TO.P,U4,A3,IOVDD*%
%TO.N,unconnected-(U4-IOVDD-PadA3)*%
X20750001Y-18115001D03*
%TO.P,U4,A4,SDA/MOSI*%
%TO.N,Net-(U4-SDA{slash}MOSI)*%
X20000000Y-18115001D03*
%TO.P,U4,A5,SCL/MCLK*%
%TO.N,Net-(U4-SCL{slash}MCLK)*%
X19249999Y-18115001D03*
%TO.P,U4,A6,RSVD1*%
%TO.N,unconnected-(U4-RSVD1-PadA6)*%
X18500000Y-18115001D03*
%TO.P,U4,A7,RSVD2*%
%TO.N,unconnected-(U4-RSVD2-PadA7)*%
X17749999Y-18115001D03*
D14*
%TO.P,U4,B1,SYNC*%
%TO.N,unconnected-(U4-SYNC-PadB1)*%
X22667500Y-17057500D03*
D15*
%TO.P,U4,B4,THERMALPAD*%
%TO.N,unconnected-(U4-THERMALPAD-PadB4)*%
X20000000Y-17057500D03*
D14*
%TO.P,U4,B7,CORE_1V8*%
%TO.N,+1V8*%
X17332500Y-17057500D03*
D13*
%TO.P,U4,C1,SPI_I2C_N*%
%TO.N,unconnected-(U4-SPI_I2C_N-PadC1)*%
X22250001Y-15999999D03*
%TO.P,U4,C2,NCS*%
%TO.N,unconnected-(U4-NCS-PadC2)*%
X21500000Y-15999999D03*
%TO.P,U4,C3,GND*%
%TO.N,GND*%
X20750001Y-15999999D03*
%TO.P,U4,C4,AVDD*%
%TO.N,+3.3V*%
X20000000Y-15999999D03*
%TO.P,U4,C5,MISO*%
%TO.N,unconnected-(U4-MISO-PadC5)*%
X19249999Y-15999999D03*
%TO.P,U4,C6,RSVD3*%
%TO.N,unconnected-(U4-RSVD3-PadC6)*%
X18500000Y-15999999D03*
%TO.P,U4,C7,GROUND*%
%TO.N,unconnected-(U4-GROUND-PadC7)*%
X17749999Y-15999999D03*
%TD*%
D10*
%TO.P,R7,1*%
%TO.N,Net-(U1-PA9_A5_D5_SCL)*%
X122460000Y-30500000D03*
D11*
%TO.P,R7,2*%
%TO.N,+3.3V*%
X127540000Y-30500000D03*
%TD*%
D10*
%TO.P,R5,1*%
%TO.N,+3.3V*%
X44460000Y-31000000D03*
D11*
%TO.P,R5,2*%
%TO.N,Net-(U1-PB09_A7_D7_RX)*%
X49540000Y-31000000D03*
%TD*%
D10*
%TO.P,R2,1*%
%TO.N,Net-(U3-SD0)*%
X31584400Y-30814100D03*
D11*
%TO.P,R2,2*%
%TO.N,Net-(U4-SDA{slash}MOSI)*%
X36664400Y-30814100D03*
%TD*%
D10*
%TO.P,R4,1*%
%TO.N,Net-(U3-SD1)*%
X97460000Y-30500000D03*
D11*
%TO.P,R4,2*%
%TO.N,Net-(U2-SDA{slash}MOSI)*%
X102540000Y-30500000D03*
%TD*%
D13*
%TO.P,U2,A1,INT*%
%TO.N,Net-(U2-INT)*%
X142750001Y-17615001D03*
%TO.P,U2,A2,LPN*%
%TO.N,unconnected-(U2-LPN-PadA2)*%
X142000000Y-17615001D03*
%TO.P,U2,A3,IOVDD*%
%TO.N,unconnected-(U2-IOVDD-PadA3)*%
X141250001Y-17615001D03*
%TO.P,U2,A4,SDA/MOSI*%
%TO.N,Net-(U2-SDA{slash}MOSI)*%
X140500000Y-17615001D03*
%TO.P,U2,A5,SCL/MCLK*%
%TO.N,Net-(U2-SCL{slash}MCLK)*%
X139749999Y-17615001D03*
%TO.P,U2,A6,RSVD1*%
%TO.N,unconnected-(U2-RSVD1-PadA6)*%
X139000000Y-17615001D03*
%TO.P,U2,A7,RSVD2*%
%TO.N,unconnected-(U2-RSVD2-PadA7)*%
X138249999Y-17615001D03*
D14*
%TO.P,U2,B1,SYNC*%
%TO.N,unconnected-(U2-SYNC-PadB1)*%
X143167500Y-16557500D03*
D15*
%TO.P,U2,B4,THERMALPAD*%
%TO.N,unconnected-(U2-THERMALPAD-PadB4)*%
X140500000Y-16557500D03*
D14*
%TO.P,U2,B7,CORE_1V8*%
%TO.N,+1V8*%
X137832500Y-16557500D03*
D13*
%TO.P,U2,C1,SPI_I2C_N*%
%TO.N,unconnected-(U2-SPI_I2C_N-PadC1)*%
X142750001Y-15499999D03*
%TO.P,U2,C2,NCS*%
%TO.N,unconnected-(U2-NCS-PadC2)*%
X142000000Y-15499999D03*
%TO.P,U2,C3,GND*%
%TO.N,GND*%
X141250001Y-15499999D03*
%TO.P,U2,C4,AVDD*%
%TO.N,+3.3V*%
X140500000Y-15499999D03*
%TO.P,U2,C5,MISO*%
%TO.N,unconnected-(U2-MISO-PadC5)*%
X139749999Y-15499999D03*
%TO.P,U2,C6,RSVD3*%
%TO.N,unconnected-(U2-RSVD3-PadC6)*%
X139000000Y-15499999D03*
%TO.P,U2,C7,GROUND*%
%TO.N,unconnected-(U2-GROUND-PadC7)*%
X138249999Y-15499999D03*
%TD*%
D10*
%TO.P,R6,1*%
%TO.N,Net-(U1-PA8_A4_D4_SDA)*%
X57960000Y-31000000D03*
D11*
%TO.P,R6,2*%
%TO.N,+3.3V*%
X63040000Y-31000000D03*
%TD*%
D16*
%TO.P,U3,1,A0*%
%TO.N,GND*%
X53000000Y-17000000D03*
%TO.P,U3,2,A1*%
X53000000Y-17650000D03*
%TO.P,U3,3,A2*%
X53000000Y-18300000D03*
%TO.P,U3,4,~{INT0}*%
%TO.N,Net-(U3-~{INT0})*%
X53000000Y-18950000D03*
%TO.P,U3,5,SD0*%
%TO.N,Net-(U3-SD0)*%
X53000000Y-19600000D03*
%TO.P,U3,6,SC0*%
%TO.N,Net-(U3-SC0)*%
X53000000Y-20250000D03*
%TO.P,U3,7,~{INT1}*%
%TO.N,Net-(U2-INT)*%
X53000000Y-20900000D03*
%TO.P,U3,8,SD1*%
%TO.N,Net-(U3-SD1)*%
X53000000Y-21550000D03*
%TO.P,U3,9,SC1*%
%TO.N,Net-(U3-SC1)*%
X53000000Y-22200000D03*
%TO.P,U3,10,GND*%
%TO.N,GND*%
X53000000Y-22850000D03*
%TO.P,U3,11,~{INT2}*%
%TO.N,unconnected-(U3-~{INT2}-Pad11)*%
X58725000Y-22850000D03*
%TO.P,U3,12,SD2*%
%TO.N,unconnected-(U3-SD2-Pad12)*%
X58725000Y-22200000D03*
%TO.P,U3,13,SC2*%
%TO.N,unconnected-(U3-SC2-Pad13)*%
X58725000Y-21550000D03*
%TO.P,U3,14,~{INT3}*%
%TO.N,unconnected-(U3-~{INT3}-Pad14)*%
X58725000Y-20900000D03*
%TO.P,U3,15,SD3*%
%TO.N,unconnected-(U3-SD3-Pad15)*%
X58725000Y-20250000D03*
%TO.P,U3,16,SC3*%
%TO.N,unconnected-(U3-SC3-Pad16)*%
X58725000Y-19600000D03*
%TO.P,U3,17,~{INT}*%
%TO.N,Net-(U1-PB09_A7_D7_RX)*%
X58725000Y-18950000D03*
%TO.P,U3,18,SCL*%
%TO.N,Net-(U1-PA9_A5_D5_SCL)*%
X58725000Y-18300000D03*
%TO.P,U3,19,SDA*%
%TO.N,Net-(U1-PA8_A4_D4_SDA)*%
X58725000Y-17650000D03*
%TO.P,U3,20,VCC*%
%TO.N,+3.3V*%
X58725000Y-17000000D03*
%TD*%
D17*
%TO.P,U1,1,PA02_A0_D0*%
%TO.N,unconnected-(U1-PA02_A0_D0-Pad1)*%
X71094320Y-16686380D03*
%TO.P,U1,2,PA4_A1_D1*%
%TO.N,unconnected-(U1-PA4_A1_D1-Pad2)*%
X71094320Y-19226380D03*
%TO.P,U1,3,PA10_A2_D2*%
%TO.N,unconnected-(U1-PA10_A2_D2-Pad3)*%
X71094320Y-21766380D03*
%TO.P,U1,4,PA11_A3_D3*%
%TO.N,unconnected-(U1-PA11_A3_D3-Pad4)*%
X71094320Y-24306380D03*
%TO.P,U1,5,PA8_A4_D4_SDA*%
%TO.N,Net-(U1-PA8_A4_D4_SDA)*%
X71094320Y-26846380D03*
%TO.P,U1,6,PA9_A5_D5_SCL*%
%TO.N,Net-(U1-PA9_A5_D5_SCL)*%
X71094320Y-29386380D03*
%TO.P,U1,7,PB08_A6_D6_TX*%
%TO.N,unconnected-(U1-PB08_A6_D6_TX-Pad7)*%
X71094320Y-31926380D03*
%TO.P,U1,8,PB09_A7_D7_RX*%
%TO.N,Net-(U1-PB09_A7_D7_RX)*%
X87258880Y-31926380D03*
%TO.P,U1,9,PA7_A8_D8_SCK*%
%TO.N,unconnected-(U1-PA7_A8_D8_SCK-Pad9)*%
X87258880Y-29386380D03*
%TO.P,U1,10,PA5_A9_D9_MISO*%
%TO.N,unconnected-(U1-PA5_A9_D9_MISO-Pad10)*%
X87258880Y-26846380D03*
%TO.P,U1,11,PA6_A10_D10_MOSI*%
%TO.N,unconnected-(U1-PA6_A10_D10_MOSI-Pad11)*%
X87258880Y-24306380D03*
%TO.P,U1,12,3V3*%
%TO.N,+3.3V*%
X87258880Y-21766380D03*
%TO.P,U1,13,GND*%
%TO.N,GND*%
X87258880Y-19226380D03*
%TO.P,U1,14,5V*%
%TO.N,unconnected-(U1-5V-Pad14)*%
X87258880Y-16686380D03*
D18*
%TO.P,U1,15,5V*%
%TO.N,unconnected-(U1-5V-Pad15)*%
X77961200Y-33004200D03*
%TO.P,U1,16,GND*%
%TO.N,unconnected-(U1-GND-Pad16)*%
X80511200Y-33004200D03*
D19*
%TO.P,U1,17,PA31_SWDIO*%
%TO.N,unconnected-(U1-PA31_SWDIO-Pad17)*%
X77960003Y-16000013D03*
%TO.P,U1,18,PA30_SWCLK*%
%TO.N,unconnected-(U1-PA30_SWCLK-Pad18)*%
X80500003Y-16000013D03*
%TO.P,U1,19,RESET*%
%TO.N,unconnected-(U1-RESET-Pad19)*%
X77960003Y-18540013D03*
%TO.P,U1,20,GND*%
%TO.N,unconnected-(U1-GND-Pad20)*%
X80500003Y-18540013D03*
%TD*%
D20*
%TO.N,Net-(U3-SC0)*%
X19721600Y-21753400D03*
%TO.N,Net-(U4-SCL{slash}MCLK)*%
X20007500Y-19343700D03*
%TO.N,Net-(U4-SDA{slash}MOSI)*%
X33490600Y-19077400D03*
%TO.N,Net-(U3-SD0)*%
X34525000Y-18901600D03*
%TO.N,Net-(U2-SCL{slash}MCLK)*%
X117165000Y-18190400D03*
%TO.N,Net-(U3-SC1)*%
X50333800Y-23995700D03*
X54353400Y-34949600D03*
X108275000Y-35645000D03*
%TO.N,Net-(U3-SD1)*%
X55175000Y-35645000D03*
X96475000Y-36006200D03*
X54699800Y-21402100D03*
%TO.N,Net-(U2-SDA{slash}MOSI)*%
X102375000Y-18900000D03*
%TO.N,+3.3V*%
X43352400Y-15041200D03*
X61676800Y-16360100D03*
X125786000Y-22489500D03*
X125088000Y-15625000D03*
%TO.N,Net-(U1-PB09_A7_D7_RX)*%
X55406400Y-18474900D03*
%TO.N,Net-(U1-PA8_A4_D4_SDA)*%
X61789100Y-17937500D03*
%TO.N,GND*%
X141767000Y-14133700D03*
X140794000Y-19354100D03*
X140794000Y-29950000D03*
%TO.N,Net-(U1-PA9_A5_D5_SCL)*%
X84542400Y-27300000D03*
X69234900Y-18106200D03*
X69608600Y-28357200D03*
X88686100Y-28014200D03*
%TO.N,Net-(U2-INT)*%
X43375000Y-13163200D03*
X43130000Y-21725000D03*
%TO.N,+1V8*%
X131875000Y-27300000D03*
X125975000Y-16101600D03*
%TD*%
D21*
%TO.N,Net-(U3-SC0)*%
X53000000Y-20250000D02*
X21225000Y-20250000D01*
X21225000Y-20250000D02*
X19721600Y-21753400D01*
%TO.N,Net-(U4-SCL{slash}MCLK)*%
X19250000Y-18115000D02*
X19250000Y-18689200D01*
X19353000Y-18689200D02*
X20007500Y-19343700D01*
X19250000Y-18689200D02*
X19353000Y-18689200D01*
%TO.N,Net-(U4-SDA{slash}MOSI)*%
X20000000Y-18689200D02*
X33102400Y-18689200D01*
X33102400Y-18689200D02*
X33490600Y-19077400D01*
X20000000Y-18115000D02*
X20000000Y-18689200D01*
%TO.N,Net-(U3-SD0)*%
X35223400Y-19600000D02*
X34525000Y-18901600D01*
X53000000Y-19600000D02*
X35223400Y-19600000D01*
%TO.N,Net-(U2-SCL{slash}MCLK)*%
X139750000Y-17615000D02*
X139750000Y-18189200D01*
X117167000Y-18189200D02*
X117165000Y-18190400D01*
X139750000Y-18189200D02*
X117167000Y-18189200D01*
%TO.N,Net-(U3-SC1)*%
X52129500Y-22200000D02*
X50333800Y-23995700D01*
X54353400Y-34949600D02*
X107580000Y-34949600D01*
X53000000Y-22200000D02*
X52129500Y-22200000D01*
X107580000Y-34949600D02*
X108275000Y-35645000D01*
X108275000Y-35645000D02*
X107580000Y-34949600D01*
X107580000Y-34949600D02*
X108275000Y-35645000D01*
%TO.N,Net-(U3-SD1)*%
X54699800Y-21402100D02*
X54551900Y-21550000D01*
X96113800Y-35645000D02*
X96475000Y-36006200D01*
X54699800Y-21402100D02*
X54551900Y-21550000D01*
X55175000Y-35645000D02*
X96113800Y-35645000D01*
X54551900Y-21550000D02*
X53000000Y-21550000D01*
X54551900Y-21550000D02*
X54699800Y-21402100D01*
%TO.N,Net-(U2-SDA{slash}MOSI)*%
X102375000Y-18900000D02*
X139789000Y-18900000D01*
X139789000Y-18900000D02*
X140500000Y-18189200D01*
X140500000Y-18189200D02*
X140500000Y-17615000D01*
%TO.N,+3.3V*%
X89657900Y-22489500D02*
X88934800Y-21766400D01*
X69820100Y-15371900D02*
X68831900Y-16360100D01*
X20000000Y-15425800D02*
X20407200Y-15018600D01*
X72618100Y-15371900D02*
X69820100Y-15371900D01*
X125088000Y-15625000D02*
X125787000Y-14925800D01*
X68831900Y-16360100D02*
X61676800Y-16360100D01*
X20000000Y-16000000D02*
X20000000Y-15425800D01*
X59364900Y-16360100D02*
X58725000Y-17000000D01*
X43329800Y-15018600D02*
X43352400Y-15041200D01*
X88934800Y-21766400D02*
X87258900Y-21766400D01*
X128542000Y-30500000D02*
X130042000Y-29000000D01*
X130042000Y-29000000D02*
X138725000Y-29000000D01*
X87258900Y-21766400D02*
X79012600Y-21766400D01*
X140500000Y-14925800D02*
X125787000Y-14925800D01*
X125787000Y-14925800D02*
X125088000Y-15625000D01*
X140500000Y-15500000D02*
X140500000Y-14925800D01*
X43329800Y-15018600D02*
X43352400Y-15041200D01*
X79012600Y-21766400D02*
X72618100Y-15371900D01*
X125786000Y-22489500D02*
X89657900Y-22489500D01*
X20407200Y-15018600D02*
X43329800Y-15018600D01*
X125088000Y-15625000D02*
X125787000Y-14925800D01*
X43352400Y-15041200D02*
X43329800Y-15018600D01*
X61676800Y-16360100D02*
X59364900Y-16360100D01*
X127540000Y-30500000D02*
X128542000Y-30500000D01*
%TO.N,Net-(U1-PB09_A7_D7_RX)*%
X55881500Y-18950000D02*
X55406400Y-18474900D01*
X50541700Y-31000000D02*
X53864000Y-34322300D01*
X55881500Y-18950000D02*
X55406400Y-18474900D01*
X86164200Y-34322300D02*
X87258900Y-33227600D01*
X53864000Y-34322300D02*
X86164200Y-34322300D01*
X55406400Y-18474900D02*
X55881500Y-18950000D01*
X87258900Y-33227600D02*
X87258900Y-31926400D01*
X58725000Y-18950000D02*
X55881500Y-18950000D01*
X49540000Y-31000000D02*
X50541700Y-31000000D01*
%TO.N,Net-(U1-PA8_A4_D4_SDA)*%
X61501600Y-17650000D02*
X58725000Y-17650000D01*
X62113600Y-26846400D02*
X57960000Y-31000000D01*
X61501600Y-17650000D02*
X61789100Y-17937500D01*
X71094300Y-26846400D02*
X62113600Y-26846400D01*
X61789100Y-17937500D02*
X61501600Y-17650000D01*
X61789100Y-17937500D02*
X61501600Y-17650000D01*
%TO.N,GND*%
X55371100Y-19966400D02*
X53704700Y-18300000D01*
X138725000Y-29950000D02*
X140794000Y-29950000D01*
X54628100Y-15371900D02*
X53000000Y-17000000D01*
X88934800Y-19226400D02*
X87258900Y-19226400D01*
X24687300Y-17000000D02*
X53000000Y-17000000D01*
X89218900Y-19510500D02*
X88934800Y-19226400D01*
X69051900Y-15371900D02*
X54628100Y-15371900D01*
X141250000Y-14651000D02*
X141250000Y-15500000D01*
X83002700Y-14970200D02*
X69453600Y-14970200D01*
X141767000Y-14133700D02*
X141250000Y-14651000D01*
X141250000Y-14651000D02*
X141767000Y-14133700D01*
X20750000Y-16000000D02*
X20750000Y-15425800D01*
X140638000Y-19510500D02*
X89218900Y-19510500D01*
X69218200Y-15205600D02*
X69051900Y-15371900D01*
X87258900Y-19226400D02*
X83002700Y-14970200D01*
X54102800Y-22850000D02*
X55371100Y-21581700D01*
X69453600Y-14970200D02*
X69218200Y-15205600D01*
X69218200Y-15205600D02*
X69051900Y-15371900D01*
X53000000Y-17000000D02*
X53000000Y-17650000D01*
X55371100Y-21581700D02*
X55371100Y-19966400D01*
X53000000Y-18300000D02*
X53000000Y-17650000D01*
X53000000Y-22850000D02*
X54102800Y-22850000D01*
X23113100Y-15425800D02*
X24687300Y-17000000D01*
X53704700Y-18300000D02*
X53000000Y-18300000D01*
X140794000Y-19354100D02*
X140638000Y-19510500D01*
X20750000Y-15425800D02*
X23113100Y-15425800D01*
X141767000Y-14133700D02*
X141250000Y-14651000D01*
%TO.N,Net-(U1-PA9_A5_D5_SCL)*%
X69418400Y-28547400D02*
X69608600Y-28357200D01*
X119974000Y-28014200D02*
X122460000Y-30500000D01*
X69418400Y-29386400D02*
X69418400Y-28547400D01*
X72008000Y-30625200D02*
X70657200Y-30625200D01*
X88686100Y-28014200D02*
X119974000Y-28014200D01*
X68801900Y-18539200D02*
X69234900Y-18106200D01*
X84542400Y-27300000D02*
X81215700Y-30626700D01*
X70657200Y-30625200D02*
X69418400Y-29386400D01*
X61300800Y-18300000D02*
X61540000Y-18539200D01*
X61540000Y-18539200D02*
X68801900Y-18539200D01*
X72009500Y-30626700D02*
X72008000Y-30625200D01*
X71094300Y-29386400D02*
X69418400Y-29386400D01*
X58725000Y-18300000D02*
X61300800Y-18300000D01*
X81215700Y-30626700D02*
X72009500Y-30626700D01*
%TO.N,Net-(U2-INT)*%
X43130000Y-21725000D02*
X43851900Y-21003100D01*
X142750000Y-17615000D02*
X143317000Y-17615000D01*
X43851900Y-21003100D02*
X43130000Y-21725000D01*
X43851900Y-21003100D02*
X43955000Y-20900000D01*
X143780000Y-17151700D02*
X143780000Y-15293000D01*
X143317000Y-17615000D02*
X143780000Y-17151700D01*
X141650000Y-13163200D02*
X43375000Y-13163200D01*
X43130000Y-21725000D02*
X43851900Y-21003100D01*
X43955000Y-20900000D02*
X53000000Y-20900000D01*
X143780000Y-15293000D02*
X141650000Y-13163200D01*
%TO.N,Net-(U3-~{INT0})*%
X22250000Y-18115000D02*
X42899900Y-18115000D01*
X43734900Y-18950000D02*
X53000000Y-18950000D01*
X42899900Y-18115000D02*
X43734900Y-18950000D01*
%TO.N,+1V8*%
X52978800Y-14251700D02*
X52814000Y-14416500D01*
X137832000Y-16557500D02*
X126431000Y-16557500D01*
X139300000Y-27300000D02*
X141000000Y-29000000D01*
X125975000Y-16101600D02*
X125798000Y-16278100D01*
X137832500Y-16557500D02*
X137832000Y-16557500D01*
X17183300Y-16908300D02*
X17332500Y-17057500D01*
X125798000Y-16278100D02*
X124270000Y-16278100D01*
X131875000Y-27300000D02*
X139300000Y-27300000D01*
X124270000Y-16278100D02*
X122244000Y-14251700D01*
X17183300Y-15578800D02*
X17183300Y-16908300D01*
X122244000Y-14251700D02*
X52978800Y-14251700D01*
X52978800Y-14251700D02*
X52814000Y-14416500D01*
X126431000Y-16557500D02*
X125975000Y-16101600D01*
X52814000Y-14416500D02*
X18345600Y-14416500D01*
X18345600Y-14416500D02*
X17183300Y-15578800D01*
%TD*%
M02*
