%TF.GenerationSoftware,KiCad,Pcbnew,8.0.8*%
%TF.CreationDate,2025-05-04T21:01:19-05:00*%
%TF.ProjectId,Obstacle_detector,4f627374-6163-46c6-955f-646574656374,rev?*%
%TF.SameCoordinates,Original*%
%TF.FileFunction,Legend,Top*%
%TF.FilePolarity,Positive*%
%FSLAX46Y46*%
G04 Gerber Fmt 4.6, Leading zero omitted, Abs format (unit mm)*
G04 Created by KiCad (PCBNEW 8.0.8) date 2025-05-04 21:01:19*
%MOMM*%
%LPD*%
G01*
G04 APERTURE LIST*
%ADD10C,0.150000*%
%ADD11C,0.101600*%
%ADD12C,0.076200*%
%ADD13C,0.120000*%
%ADD14C,0.152400*%
%ADD15C,0.127000*%
%ADD16C,0.066040*%
%ADD17C,0.254000*%
G04 APERTURE END LIST*
D10*
X112293333Y-29034819D02*
X111960000Y-28558628D01*
X111721905Y-29034819D02*
X111721905Y-28034819D01*
X111721905Y-28034819D02*
X112102857Y-28034819D01*
X112102857Y-28034819D02*
X112198095Y-28082438D01*
X112198095Y-28082438D02*
X112245714Y-28130057D01*
X112245714Y-28130057D02*
X112293333Y-28225295D01*
X112293333Y-28225295D02*
X112293333Y-28368152D01*
X112293333Y-28368152D02*
X112245714Y-28463390D01*
X112245714Y-28463390D02*
X112198095Y-28511009D01*
X112198095Y-28511009D02*
X112102857Y-28558628D01*
X112102857Y-28558628D02*
X111721905Y-28558628D01*
X112626667Y-28034819D02*
X113245714Y-28034819D01*
X113245714Y-28034819D02*
X112912381Y-28415771D01*
X112912381Y-28415771D02*
X113055238Y-28415771D01*
X113055238Y-28415771D02*
X113150476Y-28463390D01*
X113150476Y-28463390D02*
X113198095Y-28511009D01*
X113198095Y-28511009D02*
X113245714Y-28606247D01*
X113245714Y-28606247D02*
X113245714Y-28844342D01*
X113245714Y-28844342D02*
X113198095Y-28939580D01*
X113198095Y-28939580D02*
X113150476Y-28987200D01*
X113150476Y-28987200D02*
X113055238Y-29034819D01*
X113055238Y-29034819D02*
X112769524Y-29034819D01*
X112769524Y-29034819D02*
X112674286Y-28987200D01*
X112674286Y-28987200D02*
X112626667Y-28939580D01*
X20417733Y-29534819D02*
X20084400Y-29058628D01*
X19846305Y-29534819D02*
X19846305Y-28534819D01*
X19846305Y-28534819D02*
X20227257Y-28534819D01*
X20227257Y-28534819D02*
X20322495Y-28582438D01*
X20322495Y-28582438D02*
X20370114Y-28630057D01*
X20370114Y-28630057D02*
X20417733Y-28725295D01*
X20417733Y-28725295D02*
X20417733Y-28868152D01*
X20417733Y-28868152D02*
X20370114Y-28963390D01*
X20370114Y-28963390D02*
X20322495Y-29011009D01*
X20322495Y-29011009D02*
X20227257Y-29058628D01*
X20227257Y-29058628D02*
X19846305Y-29058628D01*
X21370114Y-29534819D02*
X20798686Y-29534819D01*
X21084400Y-29534819D02*
X21084400Y-28534819D01*
X21084400Y-28534819D02*
X20989162Y-28677676D01*
X20989162Y-28677676D02*
X20893924Y-28772914D01*
X20893924Y-28772914D02*
X20798686Y-28820533D01*
X139100595Y-27004819D02*
X139100595Y-27814342D01*
X139100595Y-27814342D02*
X139148214Y-27909580D01*
X139148214Y-27909580D02*
X139195833Y-27957200D01*
X139195833Y-27957200D02*
X139291071Y-28004819D01*
X139291071Y-28004819D02*
X139481547Y-28004819D01*
X139481547Y-28004819D02*
X139576785Y-27957200D01*
X139576785Y-27957200D02*
X139624404Y-27909580D01*
X139624404Y-27909580D02*
X139672023Y-27814342D01*
X139672023Y-27814342D02*
X139672023Y-27004819D01*
X140624404Y-27004819D02*
X140148214Y-27004819D01*
X140148214Y-27004819D02*
X140100595Y-27481009D01*
X140100595Y-27481009D02*
X140148214Y-27433390D01*
X140148214Y-27433390D02*
X140243452Y-27385771D01*
X140243452Y-27385771D02*
X140481547Y-27385771D01*
X140481547Y-27385771D02*
X140576785Y-27433390D01*
X140576785Y-27433390D02*
X140624404Y-27481009D01*
X140624404Y-27481009D02*
X140672023Y-27576247D01*
X140672023Y-27576247D02*
X140672023Y-27814342D01*
X140672023Y-27814342D02*
X140624404Y-27909580D01*
X140624404Y-27909580D02*
X140576785Y-27957200D01*
X140576785Y-27957200D02*
X140481547Y-28004819D01*
X140481547Y-28004819D02*
X140243452Y-28004819D01*
X140243452Y-28004819D02*
X140148214Y-27957200D01*
X140148214Y-27957200D02*
X140100595Y-27909580D01*
X19238095Y-16512319D02*
X19238095Y-17321842D01*
X19238095Y-17321842D02*
X19285714Y-17417080D01*
X19285714Y-17417080D02*
X19333333Y-17464700D01*
X19333333Y-17464700D02*
X19428571Y-17512319D01*
X19428571Y-17512319D02*
X19619047Y-17512319D01*
X19619047Y-17512319D02*
X19714285Y-17464700D01*
X19714285Y-17464700D02*
X19761904Y-17417080D01*
X19761904Y-17417080D02*
X19809523Y-17321842D01*
X19809523Y-17321842D02*
X19809523Y-16512319D01*
X20714285Y-16845652D02*
X20714285Y-17512319D01*
X20476190Y-16464700D02*
X20238095Y-17178985D01*
X20238095Y-17178985D02*
X20857142Y-17178985D01*
X22286000Y-18722119D02*
X22286000Y-18960214D01*
X22047905Y-18864976D02*
X22286000Y-18960214D01*
X22286000Y-18960214D02*
X22524095Y-18864976D01*
X22143143Y-19150690D02*
X22286000Y-18960214D01*
X22286000Y-18960214D02*
X22428857Y-19150690D01*
X22286000Y-18722119D02*
X22286000Y-18960214D01*
X22047905Y-18864976D02*
X22286000Y-18960214D01*
X22286000Y-18960214D02*
X22524095Y-18864976D01*
X22143143Y-19150690D02*
X22286000Y-18960214D01*
X22286000Y-18960214D02*
X22428857Y-19150690D01*
X124833333Y-29034819D02*
X124500000Y-28558628D01*
X124261905Y-29034819D02*
X124261905Y-28034819D01*
X124261905Y-28034819D02*
X124642857Y-28034819D01*
X124642857Y-28034819D02*
X124738095Y-28082438D01*
X124738095Y-28082438D02*
X124785714Y-28130057D01*
X124785714Y-28130057D02*
X124833333Y-28225295D01*
X124833333Y-28225295D02*
X124833333Y-28368152D01*
X124833333Y-28368152D02*
X124785714Y-28463390D01*
X124785714Y-28463390D02*
X124738095Y-28511009D01*
X124738095Y-28511009D02*
X124642857Y-28558628D01*
X124642857Y-28558628D02*
X124261905Y-28558628D01*
X125166667Y-28034819D02*
X125833333Y-28034819D01*
X125833333Y-28034819D02*
X125404762Y-29034819D01*
X46833333Y-29534819D02*
X46500000Y-29058628D01*
X46261905Y-29534819D02*
X46261905Y-28534819D01*
X46261905Y-28534819D02*
X46642857Y-28534819D01*
X46642857Y-28534819D02*
X46738095Y-28582438D01*
X46738095Y-28582438D02*
X46785714Y-28630057D01*
X46785714Y-28630057D02*
X46833333Y-28725295D01*
X46833333Y-28725295D02*
X46833333Y-28868152D01*
X46833333Y-28868152D02*
X46785714Y-28963390D01*
X46785714Y-28963390D02*
X46738095Y-29011009D01*
X46738095Y-29011009D02*
X46642857Y-29058628D01*
X46642857Y-29058628D02*
X46261905Y-29058628D01*
X47738095Y-28534819D02*
X47261905Y-28534819D01*
X47261905Y-28534819D02*
X47214286Y-29011009D01*
X47214286Y-29011009D02*
X47261905Y-28963390D01*
X47261905Y-28963390D02*
X47357143Y-28915771D01*
X47357143Y-28915771D02*
X47595238Y-28915771D01*
X47595238Y-28915771D02*
X47690476Y-28963390D01*
X47690476Y-28963390D02*
X47738095Y-29011009D01*
X47738095Y-29011009D02*
X47785714Y-29106247D01*
X47785714Y-29106247D02*
X47785714Y-29344342D01*
X47785714Y-29344342D02*
X47738095Y-29439580D01*
X47738095Y-29439580D02*
X47690476Y-29487200D01*
X47690476Y-29487200D02*
X47595238Y-29534819D01*
X47595238Y-29534819D02*
X47357143Y-29534819D01*
X47357143Y-29534819D02*
X47261905Y-29487200D01*
X47261905Y-29487200D02*
X47214286Y-29439580D01*
X33957733Y-29348919D02*
X33624400Y-28872728D01*
X33386305Y-29348919D02*
X33386305Y-28348919D01*
X33386305Y-28348919D02*
X33767257Y-28348919D01*
X33767257Y-28348919D02*
X33862495Y-28396538D01*
X33862495Y-28396538D02*
X33910114Y-28444157D01*
X33910114Y-28444157D02*
X33957733Y-28539395D01*
X33957733Y-28539395D02*
X33957733Y-28682252D01*
X33957733Y-28682252D02*
X33910114Y-28777490D01*
X33910114Y-28777490D02*
X33862495Y-28825109D01*
X33862495Y-28825109D02*
X33767257Y-28872728D01*
X33767257Y-28872728D02*
X33386305Y-28872728D01*
X34338686Y-28444157D02*
X34386305Y-28396538D01*
X34386305Y-28396538D02*
X34481543Y-28348919D01*
X34481543Y-28348919D02*
X34719638Y-28348919D01*
X34719638Y-28348919D02*
X34814876Y-28396538D01*
X34814876Y-28396538D02*
X34862495Y-28444157D01*
X34862495Y-28444157D02*
X34910114Y-28539395D01*
X34910114Y-28539395D02*
X34910114Y-28634633D01*
X34910114Y-28634633D02*
X34862495Y-28777490D01*
X34862495Y-28777490D02*
X34291067Y-29348919D01*
X34291067Y-29348919D02*
X34910114Y-29348919D01*
X99833333Y-29034819D02*
X99500000Y-28558628D01*
X99261905Y-29034819D02*
X99261905Y-28034819D01*
X99261905Y-28034819D02*
X99642857Y-28034819D01*
X99642857Y-28034819D02*
X99738095Y-28082438D01*
X99738095Y-28082438D02*
X99785714Y-28130057D01*
X99785714Y-28130057D02*
X99833333Y-28225295D01*
X99833333Y-28225295D02*
X99833333Y-28368152D01*
X99833333Y-28368152D02*
X99785714Y-28463390D01*
X99785714Y-28463390D02*
X99738095Y-28511009D01*
X99738095Y-28511009D02*
X99642857Y-28558628D01*
X99642857Y-28558628D02*
X99261905Y-28558628D01*
X100690476Y-28368152D02*
X100690476Y-29034819D01*
X100452381Y-27987200D02*
X100214286Y-28701485D01*
X100214286Y-28701485D02*
X100833333Y-28701485D01*
X139738095Y-16012319D02*
X139738095Y-16821842D01*
X139738095Y-16821842D02*
X139785714Y-16917080D01*
X139785714Y-16917080D02*
X139833333Y-16964700D01*
X139833333Y-16964700D02*
X139928571Y-17012319D01*
X139928571Y-17012319D02*
X140119047Y-17012319D01*
X140119047Y-17012319D02*
X140214285Y-16964700D01*
X140214285Y-16964700D02*
X140261904Y-16917080D01*
X140261904Y-16917080D02*
X140309523Y-16821842D01*
X140309523Y-16821842D02*
X140309523Y-16012319D01*
X140738095Y-16107557D02*
X140785714Y-16059938D01*
X140785714Y-16059938D02*
X140880952Y-16012319D01*
X140880952Y-16012319D02*
X141119047Y-16012319D01*
X141119047Y-16012319D02*
X141214285Y-16059938D01*
X141214285Y-16059938D02*
X141261904Y-16107557D01*
X141261904Y-16107557D02*
X141309523Y-16202795D01*
X141309523Y-16202795D02*
X141309523Y-16298033D01*
X141309523Y-16298033D02*
X141261904Y-16440890D01*
X141261904Y-16440890D02*
X140690476Y-17012319D01*
X140690476Y-17012319D02*
X141309523Y-17012319D01*
X142786000Y-18222119D02*
X142786000Y-18460214D01*
X142547905Y-18364976D02*
X142786000Y-18460214D01*
X142786000Y-18460214D02*
X143024095Y-18364976D01*
X142643143Y-18650690D02*
X142786000Y-18460214D01*
X142786000Y-18460214D02*
X142928857Y-18650690D01*
X142786000Y-18222119D02*
X142786000Y-18460214D01*
X142547905Y-18364976D02*
X142786000Y-18460214D01*
X142786000Y-18460214D02*
X143024095Y-18364976D01*
X142643143Y-18650690D02*
X142786000Y-18460214D01*
X142786000Y-18460214D02*
X142928857Y-18650690D01*
X60333333Y-29534819D02*
X60000000Y-29058628D01*
X59761905Y-29534819D02*
X59761905Y-28534819D01*
X59761905Y-28534819D02*
X60142857Y-28534819D01*
X60142857Y-28534819D02*
X60238095Y-28582438D01*
X60238095Y-28582438D02*
X60285714Y-28630057D01*
X60285714Y-28630057D02*
X60333333Y-28725295D01*
X60333333Y-28725295D02*
X60333333Y-28868152D01*
X60333333Y-28868152D02*
X60285714Y-28963390D01*
X60285714Y-28963390D02*
X60238095Y-29011009D01*
X60238095Y-29011009D02*
X60142857Y-29058628D01*
X60142857Y-29058628D02*
X59761905Y-29058628D01*
X61190476Y-28534819D02*
X61000000Y-28534819D01*
X61000000Y-28534819D02*
X60904762Y-28582438D01*
X60904762Y-28582438D02*
X60857143Y-28630057D01*
X60857143Y-28630057D02*
X60761905Y-28772914D01*
X60761905Y-28772914D02*
X60714286Y-28963390D01*
X60714286Y-28963390D02*
X60714286Y-29344342D01*
X60714286Y-29344342D02*
X60761905Y-29439580D01*
X60761905Y-29439580D02*
X60809524Y-29487200D01*
X60809524Y-29487200D02*
X60904762Y-29534819D01*
X60904762Y-29534819D02*
X61095238Y-29534819D01*
X61095238Y-29534819D02*
X61190476Y-29487200D01*
X61190476Y-29487200D02*
X61238095Y-29439580D01*
X61238095Y-29439580D02*
X61285714Y-29344342D01*
X61285714Y-29344342D02*
X61285714Y-29106247D01*
X61285714Y-29106247D02*
X61238095Y-29011009D01*
X61238095Y-29011009D02*
X61190476Y-28963390D01*
X61190476Y-28963390D02*
X61095238Y-28915771D01*
X61095238Y-28915771D02*
X60904762Y-28915771D01*
X60904762Y-28915771D02*
X60809524Y-28963390D01*
X60809524Y-28963390D02*
X60761905Y-29011009D01*
X60761905Y-29011009D02*
X60714286Y-29106247D01*
X55100595Y-15179819D02*
X55100595Y-15989342D01*
X55100595Y-15989342D02*
X55148214Y-16084580D01*
X55148214Y-16084580D02*
X55195833Y-16132200D01*
X55195833Y-16132200D02*
X55291071Y-16179819D01*
X55291071Y-16179819D02*
X55481547Y-16179819D01*
X55481547Y-16179819D02*
X55576785Y-16132200D01*
X55576785Y-16132200D02*
X55624404Y-16084580D01*
X55624404Y-16084580D02*
X55672023Y-15989342D01*
X55672023Y-15989342D02*
X55672023Y-15179819D01*
X56052976Y-15179819D02*
X56672023Y-15179819D01*
X56672023Y-15179819D02*
X56338690Y-15560771D01*
X56338690Y-15560771D02*
X56481547Y-15560771D01*
X56481547Y-15560771D02*
X56576785Y-15608390D01*
X56576785Y-15608390D02*
X56624404Y-15656009D01*
X56624404Y-15656009D02*
X56672023Y-15751247D01*
X56672023Y-15751247D02*
X56672023Y-15989342D01*
X56672023Y-15989342D02*
X56624404Y-16084580D01*
X56624404Y-16084580D02*
X56576785Y-16132200D01*
X56576785Y-16132200D02*
X56481547Y-16179819D01*
X56481547Y-16179819D02*
X56195833Y-16179819D01*
X56195833Y-16179819D02*
X56100595Y-16132200D01*
X56100595Y-16132200D02*
X56052976Y-16084580D01*
D11*
X78918366Y-12540685D02*
X78918366Y-13260352D01*
X78918366Y-13260352D02*
X78960700Y-13345018D01*
X78960700Y-13345018D02*
X79003033Y-13387352D01*
X79003033Y-13387352D02*
X79087700Y-13429685D01*
X79087700Y-13429685D02*
X79257033Y-13429685D01*
X79257033Y-13429685D02*
X79341700Y-13387352D01*
X79341700Y-13387352D02*
X79384033Y-13345018D01*
X79384033Y-13345018D02*
X79426366Y-13260352D01*
X79426366Y-13260352D02*
X79426366Y-12540685D01*
X80315366Y-13429685D02*
X79807366Y-13429685D01*
X80061366Y-13429685D02*
X80061366Y-12540685D01*
X80061366Y-12540685D02*
X79976699Y-12667685D01*
X79976699Y-12667685D02*
X79892033Y-12752352D01*
X79892033Y-12752352D02*
X79807366Y-12794685D01*
D12*
X75929029Y-24258221D02*
X76016115Y-24287249D01*
X76016115Y-24287249D02*
X76161257Y-24287249D01*
X76161257Y-24287249D02*
X76219315Y-24258221D01*
X76219315Y-24258221D02*
X76248343Y-24229192D01*
X76248343Y-24229192D02*
X76277372Y-24171135D01*
X76277372Y-24171135D02*
X76277372Y-24113078D01*
X76277372Y-24113078D02*
X76248343Y-24055021D01*
X76248343Y-24055021D02*
X76219315Y-24025992D01*
X76219315Y-24025992D02*
X76161257Y-23996963D01*
X76161257Y-23996963D02*
X76045143Y-23967935D01*
X76045143Y-23967935D02*
X75987086Y-23938906D01*
X75987086Y-23938906D02*
X75958057Y-23909878D01*
X75958057Y-23909878D02*
X75929029Y-23851821D01*
X75929029Y-23851821D02*
X75929029Y-23793763D01*
X75929029Y-23793763D02*
X75958057Y-23735706D01*
X75958057Y-23735706D02*
X75987086Y-23706678D01*
X75987086Y-23706678D02*
X76045143Y-23677649D01*
X76045143Y-23677649D02*
X76190286Y-23677649D01*
X76190286Y-23677649D02*
X76277372Y-23706678D01*
X76770857Y-24258221D02*
X76712800Y-24287249D01*
X76712800Y-24287249D02*
X76596686Y-24287249D01*
X76596686Y-24287249D02*
X76538628Y-24258221D01*
X76538628Y-24258221D02*
X76509600Y-24200163D01*
X76509600Y-24200163D02*
X76509600Y-23967935D01*
X76509600Y-23967935D02*
X76538628Y-23909878D01*
X76538628Y-23909878D02*
X76596686Y-23880849D01*
X76596686Y-23880849D02*
X76712800Y-23880849D01*
X76712800Y-23880849D02*
X76770857Y-23909878D01*
X76770857Y-23909878D02*
X76799886Y-23967935D01*
X76799886Y-23967935D02*
X76799886Y-24025992D01*
X76799886Y-24025992D02*
X76509600Y-24084049D01*
X77293371Y-24258221D02*
X77235314Y-24287249D01*
X77235314Y-24287249D02*
X77119200Y-24287249D01*
X77119200Y-24287249D02*
X77061142Y-24258221D01*
X77061142Y-24258221D02*
X77032114Y-24200163D01*
X77032114Y-24200163D02*
X77032114Y-23967935D01*
X77032114Y-23967935D02*
X77061142Y-23909878D01*
X77061142Y-23909878D02*
X77119200Y-23880849D01*
X77119200Y-23880849D02*
X77235314Y-23880849D01*
X77235314Y-23880849D02*
X77293371Y-23909878D01*
X77293371Y-23909878D02*
X77322400Y-23967935D01*
X77322400Y-23967935D02*
X77322400Y-24025992D01*
X77322400Y-24025992D02*
X77032114Y-24084049D01*
X77815885Y-24258221D02*
X77757828Y-24287249D01*
X77757828Y-24287249D02*
X77641714Y-24287249D01*
X77641714Y-24287249D02*
X77583656Y-24258221D01*
X77583656Y-24258221D02*
X77554628Y-24200163D01*
X77554628Y-24200163D02*
X77554628Y-23967935D01*
X77554628Y-23967935D02*
X77583656Y-23909878D01*
X77583656Y-23909878D02*
X77641714Y-23880849D01*
X77641714Y-23880849D02*
X77757828Y-23880849D01*
X77757828Y-23880849D02*
X77815885Y-23909878D01*
X77815885Y-23909878D02*
X77844914Y-23967935D01*
X77844914Y-23967935D02*
X77844914Y-24025992D01*
X77844914Y-24025992D02*
X77554628Y-24084049D01*
X78367428Y-24287249D02*
X78367428Y-23677649D01*
X78367428Y-24258221D02*
X78309370Y-24287249D01*
X78309370Y-24287249D02*
X78193256Y-24287249D01*
X78193256Y-24287249D02*
X78135199Y-24258221D01*
X78135199Y-24258221D02*
X78106170Y-24229192D01*
X78106170Y-24229192D02*
X78077142Y-24171135D01*
X78077142Y-24171135D02*
X78077142Y-23996963D01*
X78077142Y-23996963D02*
X78106170Y-23938906D01*
X78106170Y-23938906D02*
X78135199Y-23909878D01*
X78135199Y-23909878D02*
X78193256Y-23880849D01*
X78193256Y-23880849D02*
X78309370Y-23880849D01*
X78309370Y-23880849D02*
X78367428Y-23909878D01*
X78918971Y-23880849D02*
X78918971Y-24287249D01*
X78657713Y-23880849D02*
X78657713Y-24200163D01*
X78657713Y-24200163D02*
X78686742Y-24258221D01*
X78686742Y-24258221D02*
X78744799Y-24287249D01*
X78744799Y-24287249D02*
X78831885Y-24287249D01*
X78831885Y-24287249D02*
X78889942Y-24258221D01*
X78889942Y-24258221D02*
X78918971Y-24229192D01*
X79209256Y-24287249D02*
X79209256Y-23880849D01*
X79209256Y-23677649D02*
X79180228Y-23706678D01*
X79180228Y-23706678D02*
X79209256Y-23735706D01*
X79209256Y-23735706D02*
X79238285Y-23706678D01*
X79238285Y-23706678D02*
X79209256Y-23677649D01*
X79209256Y-23677649D02*
X79209256Y-23735706D01*
X79499542Y-23880849D02*
X79499542Y-24287249D01*
X79499542Y-23938906D02*
X79528571Y-23909878D01*
X79528571Y-23909878D02*
X79586628Y-23880849D01*
X79586628Y-23880849D02*
X79673714Y-23880849D01*
X79673714Y-23880849D02*
X79731771Y-23909878D01*
X79731771Y-23909878D02*
X79760800Y-23967935D01*
X79760800Y-23967935D02*
X79760800Y-24287249D01*
X80138171Y-24287249D02*
X80080114Y-24258221D01*
X80080114Y-24258221D02*
X80051085Y-24229192D01*
X80051085Y-24229192D02*
X80022057Y-24171135D01*
X80022057Y-24171135D02*
X80022057Y-23996963D01*
X80022057Y-23996963D02*
X80051085Y-23938906D01*
X80051085Y-23938906D02*
X80080114Y-23909878D01*
X80080114Y-23909878D02*
X80138171Y-23880849D01*
X80138171Y-23880849D02*
X80225257Y-23880849D01*
X80225257Y-23880849D02*
X80283314Y-23909878D01*
X80283314Y-23909878D02*
X80312343Y-23938906D01*
X80312343Y-23938906D02*
X80341371Y-23996963D01*
X80341371Y-23996963D02*
X80341371Y-24171135D01*
X80341371Y-24171135D02*
X80312343Y-24229192D01*
X80312343Y-24229192D02*
X80283314Y-24258221D01*
X80283314Y-24258221D02*
X80225257Y-24287249D01*
X80225257Y-24287249D02*
X80138171Y-24287249D01*
X80544571Y-23677649D02*
X80950971Y-24287249D01*
X80950971Y-23677649D02*
X80544571Y-24287249D01*
X81183199Y-24287249D02*
X81183199Y-23677649D01*
X81444457Y-24113078D02*
X81734743Y-24113078D01*
X81386400Y-24287249D02*
X81589600Y-23677649D01*
X81589600Y-23677649D02*
X81792800Y-24287249D01*
X82112114Y-23677649D02*
X82228228Y-23677649D01*
X82228228Y-23677649D02*
X82286285Y-23706678D01*
X82286285Y-23706678D02*
X82344342Y-23764735D01*
X82344342Y-23764735D02*
X82373371Y-23880849D01*
X82373371Y-23880849D02*
X82373371Y-24084049D01*
X82373371Y-24084049D02*
X82344342Y-24200163D01*
X82344342Y-24200163D02*
X82286285Y-24258221D01*
X82286285Y-24258221D02*
X82228228Y-24287249D01*
X82228228Y-24287249D02*
X82112114Y-24287249D01*
X82112114Y-24287249D02*
X82054057Y-24258221D01*
X82054057Y-24258221D02*
X81995999Y-24200163D01*
X81995999Y-24200163D02*
X81966971Y-24084049D01*
X81966971Y-24084049D02*
X81966971Y-23880849D01*
X81966971Y-23880849D02*
X81995999Y-23764735D01*
X81995999Y-23764735D02*
X82054057Y-23706678D01*
X82054057Y-23706678D02*
X82112114Y-23677649D01*
D13*
%TO.C,R3*%
X110540000Y-29580000D02*
X114380000Y-29580000D01*
X110540000Y-31420000D02*
X114380000Y-31420000D01*
%TO.C,R1*%
X18664400Y-30080000D02*
X22504400Y-30080000D01*
X18664400Y-31920000D02*
X22504400Y-31920000D01*
%TO.C,U5*%
X139862500Y-28390000D02*
X139062500Y-28390000D01*
X139862500Y-28390000D02*
X140662500Y-28390000D01*
X139862500Y-31510000D02*
X139062500Y-31510000D01*
X139862500Y-31510000D02*
X140662500Y-31510000D01*
X138562500Y-28440000D02*
X138322500Y-28110000D01*
X138802500Y-28110000D01*
X138562500Y-28440000D01*
G36*
X138562500Y-28440000D02*
G01*
X138322500Y-28110000D01*
X138802500Y-28110000D01*
X138562500Y-28440000D01*
G37*
D14*
%TO.C,U4*%
X16659900Y-15406500D02*
X16659900Y-18708500D01*
X16659900Y-18708500D02*
X17397389Y-18708500D01*
X17397389Y-15406500D02*
X16659900Y-15406500D01*
X22602611Y-18708500D02*
X23340100Y-18708500D01*
X23340100Y-15406500D02*
X22602611Y-15406500D01*
X23340100Y-18708500D02*
X23340100Y-15406500D01*
D13*
%TO.C,R7*%
X123080000Y-29580000D02*
X126920000Y-29580000D01*
X123080000Y-31420000D02*
X126920000Y-31420000D01*
%TO.C,R5*%
X45080000Y-30080000D02*
X48920000Y-30080000D01*
X45080000Y-31920000D02*
X48920000Y-31920000D01*
%TO.C,R2*%
X32204400Y-29894100D02*
X36044400Y-29894100D01*
X32204400Y-31734100D02*
X36044400Y-31734100D01*
%TO.C,R4*%
X98080000Y-29580000D02*
X101920000Y-29580000D01*
X98080000Y-31420000D02*
X101920000Y-31420000D01*
D14*
%TO.C,U2*%
X137159900Y-14906500D02*
X137159900Y-18208500D01*
X137159900Y-18208500D02*
X137897389Y-18208500D01*
X137897389Y-14906500D02*
X137159900Y-14906500D01*
X143102611Y-18208500D02*
X143840100Y-18208500D01*
X143840100Y-14906500D02*
X143102611Y-14906500D01*
X143840100Y-18208500D02*
X143840100Y-14906500D01*
D13*
%TO.C,R6*%
X58580000Y-30080000D02*
X62420000Y-30080000D01*
X58580000Y-31920000D02*
X62420000Y-31920000D01*
%TO.C,U3*%
X55862500Y-16540000D02*
X53662500Y-16540000D01*
X55862500Y-16540000D02*
X58062500Y-16540000D01*
X55862500Y-23310000D02*
X53662500Y-23310000D01*
X55862500Y-23310000D02*
X58062500Y-23310000D01*
X52002500Y-17000000D02*
X51672500Y-17240000D01*
X51672500Y-16760000D01*
X52002500Y-17000000D01*
G36*
X52002500Y-17000000D02*
G01*
X51672500Y-17240000D01*
X51672500Y-16760000D01*
X52002500Y-17000000D01*
G37*
D15*
%TO.C,U1*%
X70261200Y-14476580D02*
X70261200Y-34804200D01*
X70261200Y-34804200D02*
X88058980Y-34804200D01*
X70931760Y-13806020D02*
X70261200Y-14476580D01*
D16*
X73944200Y-13722200D02*
X75722200Y-13722200D01*
X73944200Y-16389200D02*
X73944200Y-13722200D01*
X73944200Y-16389200D02*
X75722200Y-16389200D01*
X73944200Y-17786200D02*
X75722200Y-17786200D01*
X73944200Y-20455740D02*
X73944200Y-17786200D01*
X73944200Y-20455740D02*
X75722200Y-20455740D01*
D15*
X74655400Y-19734380D02*
X74655400Y-12381080D01*
X74660480Y-12381080D02*
X83654620Y-12381080D01*
D16*
X75722200Y-16389200D02*
X75722200Y-13722200D01*
X75722200Y-20455740D02*
X75722200Y-17786200D01*
X76611200Y-14484200D02*
X81691200Y-14484200D01*
X76611200Y-17024200D02*
X76611200Y-14484200D01*
X76611200Y-17024200D02*
X81691200Y-17024200D01*
X76611200Y-31629200D02*
X82326200Y-31629200D01*
X76611200Y-34169200D02*
X76611200Y-31629200D01*
X76611200Y-34169200D02*
X82326200Y-34169200D01*
X81691200Y-17024200D02*
X81691200Y-14484200D01*
X82326200Y-34169200D02*
X82326200Y-31629200D01*
X82580200Y-13722200D02*
X84358200Y-13722200D01*
X82580200Y-16389200D02*
X82580200Y-13722200D01*
X82580200Y-16389200D02*
X84358200Y-16389200D01*
X82580200Y-17786200D02*
X84358200Y-17786200D01*
X82580200Y-20455740D02*
X82580200Y-17786200D01*
X82580200Y-20455740D02*
X84358200Y-20455740D01*
D15*
X83654620Y-12381080D02*
X83654620Y-19734380D01*
X83654620Y-19734380D02*
X74655400Y-19734380D01*
D16*
X84358200Y-16389200D02*
X84358200Y-13722200D01*
X84358200Y-20455740D02*
X84358200Y-17786200D01*
D15*
X88058980Y-13806020D02*
X70931760Y-13806020D01*
X88058980Y-34804200D02*
X88058980Y-13806020D01*
D17*
X69499200Y-16643200D02*
G75*
G02*
X69245200Y-16643200I-127000J0D01*
G01*
X69245200Y-16643200D02*
G75*
G02*
X69499200Y-16643200I127000J0D01*
G01*
%TD*%
M02*
