%TF.GenerationSoftware,KiCad,Pcbnew,8.0.8*%
%TF.CreationDate,2025-05-04T21:01:19-05:00*%
%TF.ProjectId,Obstacle_detector,4f627374-6163-46c6-955f-646574656374,rev?*%
%TF.SameCoordinates,Original*%
%TF.FileFunction,Copper,L4,Bot*%
%TF.FilePolarity,Positive*%
%FSLAX46Y46*%
G04 Gerber Fmt 4.6, Leading zero omitted, Abs format (unit mm)*
G04 Created by KiCad (PCBNEW 8.0.8) date 2025-05-04 21:01:19*
%MOMM*%
%LPD*%
G01*
G04 APERTURE LIST*
%TA.AperFunction,ComponentPad*%
%ADD10C,1.400000*%
%TD*%
%TA.AperFunction,ComponentPad*%
%ADD11O,1.400000X1.400000*%
%TD*%
%TA.AperFunction,ViaPad*%
%ADD12C,0.600000*%
%TD*%
%TA.AperFunction,Conductor*%
%ADD13C,0.200000*%
%TD*%
G04 APERTURE END LIST*
D10*
%TO.P,R3,1*%
%TO.N,Net-(U3-SC1)*%
X109920000Y-30500000D03*
D11*
%TO.P,R3,2*%
%TO.N,Net-(U2-SCL{slash}MCLK)*%
X115000000Y-30500000D03*
%TD*%
D10*
%TO.P,R1,1*%
%TO.N,Net-(U3-SC0)*%
X18044400Y-31000000D03*
D11*
%TO.P,R1,2*%
%TO.N,Net-(U4-SCL{slash}MCLK)*%
X23124400Y-31000000D03*
%TD*%
D10*
%TO.P,R7,1*%
%TO.N,Net-(U1-PA9_A5_D5_SCL)*%
X122460000Y-30500000D03*
D11*
%TO.P,R7,2*%
%TO.N,+3.3V*%
X127540000Y-30500000D03*
%TD*%
D10*
%TO.P,R5,1*%
%TO.N,+3.3V*%
X44460000Y-31000000D03*
D11*
%TO.P,R5,2*%
%TO.N,Net-(U1-PB09_A7_D7_RX)*%
X49540000Y-31000000D03*
%TD*%
D10*
%TO.P,R2,1*%
%TO.N,Net-(U3-SD0)*%
X31584400Y-30814100D03*
D11*
%TO.P,R2,2*%
%TO.N,Net-(U4-SDA{slash}MOSI)*%
X36664400Y-30814100D03*
%TD*%
D10*
%TO.P,R4,1*%
%TO.N,Net-(U3-SD1)*%
X97460000Y-30500000D03*
D11*
%TO.P,R4,2*%
%TO.N,Net-(U2-SDA{slash}MOSI)*%
X102540000Y-30500000D03*
%TD*%
D10*
%TO.P,R6,1*%
%TO.N,Net-(U1-PA8_A4_D4_SDA)*%
X57960000Y-31000000D03*
D11*
%TO.P,R6,2*%
%TO.N,+3.3V*%
X63040000Y-31000000D03*
%TD*%
D12*
%TO.N,Net-(U3-SC0)*%
X19721600Y-21753400D03*
%TO.N,Net-(U4-SCL{slash}MCLK)*%
X20007500Y-19343700D03*
%TO.N,Net-(U4-SDA{slash}MOSI)*%
X33490600Y-19077400D03*
%TO.N,Net-(U3-SD0)*%
X34525000Y-18901600D03*
%TO.N,Net-(U2-SCL{slash}MCLK)*%
X117165000Y-18190400D03*
%TO.N,Net-(U3-SC1)*%
X50333800Y-23995700D03*
X54353400Y-34949600D03*
X108275000Y-35645000D03*
%TO.N,Net-(U3-SD1)*%
X55175000Y-35645000D03*
X96475000Y-36006200D03*
X54699800Y-21402100D03*
%TO.N,Net-(U2-SDA{slash}MOSI)*%
X102375000Y-18900000D03*
%TO.N,+3.3V*%
X43352400Y-15041200D03*
X61676800Y-16360100D03*
X125786000Y-22489500D03*
X125088000Y-15625000D03*
%TO.N,Net-(U1-PB09_A7_D7_RX)*%
X55406400Y-18474900D03*
%TO.N,Net-(U1-PA8_A4_D4_SDA)*%
X61789100Y-17937500D03*
%TO.N,GND*%
X141767000Y-14133700D03*
X140794000Y-19354100D03*
X140794000Y-29950000D03*
%TO.N,Net-(U1-PA9_A5_D5_SCL)*%
X84542400Y-27300000D03*
X69234900Y-18106200D03*
X69608600Y-28357200D03*
X88686100Y-28014200D03*
%TO.N,Net-(U2-INT)*%
X43375000Y-13163200D03*
X43130000Y-21725000D03*
%TO.N,+1V8*%
X131875000Y-27300000D03*
X125975000Y-16101600D03*
%TD*%
D13*
%TO.N,Net-(U3-SC0)*%
X18044400Y-23430600D02*
X18044400Y-31000000D01*
X19721600Y-21753400D02*
X18044400Y-23430600D01*
%TO.N,Net-(U4-SCL{slash}MCLK)*%
X23124400Y-31000000D02*
X23124400Y-22460600D01*
X23124400Y-22460600D02*
X20007500Y-19343700D01*
%TO.N,Net-(U4-SDA{slash}MOSI)*%
X34796700Y-18299800D02*
X34268200Y-18299800D01*
X34268200Y-18299800D02*
X33490600Y-19077400D01*
X36664400Y-30814100D02*
X36664400Y-20167500D01*
X36664400Y-20167500D02*
X34796700Y-18299800D01*
%TO.N,Net-(U3-SD0)*%
X34525000Y-18901600D02*
X31584400Y-21842200D01*
X31584400Y-21842200D02*
X31584400Y-30814100D01*
%TO.N,Net-(U2-SCL{slash}MCLK)*%
X117165000Y-18190400D02*
X115000000Y-20355800D01*
X115000000Y-20355800D02*
X115000000Y-30500000D01*
%TO.N,Net-(U3-SC1)*%
X50333800Y-23995700D02*
X54353400Y-28015300D01*
X54353400Y-28015300D02*
X54353400Y-34949600D01*
X109920000Y-34000000D02*
X109920000Y-30500000D01*
X108275000Y-35645000D02*
X109920000Y-34000000D01*
%TO.N,Net-(U3-SD1)*%
X96475000Y-36006200D02*
X97460000Y-35021200D01*
X55175000Y-21877300D02*
X55175000Y-35645000D01*
X54699800Y-21402100D02*
X55175000Y-21877300D01*
X97460000Y-35021200D02*
X97460000Y-30500000D01*
%TO.N,Net-(U2-SDA{slash}MOSI)*%
X102540000Y-30500000D02*
X102540000Y-19065000D01*
X102540000Y-19065000D02*
X102375000Y-18900000D01*
%TO.N,+3.3V*%
X61676800Y-16360100D02*
X63040000Y-17723300D01*
X44460000Y-16360100D02*
X61676800Y-16360100D01*
X44460000Y-16360100D02*
X44460000Y-16148800D01*
X44460000Y-16148800D02*
X43352400Y-15041200D01*
X44460000Y-31000000D02*
X44460000Y-16360100D01*
X63040000Y-17723300D02*
X63040000Y-31000000D01*
X125088000Y-21791500D02*
X125088000Y-15625000D01*
X127540000Y-24244000D02*
X125786000Y-22489500D01*
X127540000Y-30500000D02*
X127540000Y-24244000D01*
X125786000Y-22489500D02*
X125088000Y-21791500D01*
%TO.N,Net-(U1-PB09_A7_D7_RX)*%
X55406400Y-18474900D02*
X55003800Y-18474900D01*
X49540000Y-23938700D02*
X49540000Y-31000000D01*
X55003800Y-18474900D02*
X49540000Y-23938700D01*
%TO.N,Net-(U1-PA8_A4_D4_SDA)*%
X61789100Y-27170900D02*
X61789100Y-17937500D01*
X57960000Y-31000000D02*
X61789100Y-27170900D01*
%TO.N,GND*%
X140794000Y-19354100D02*
X140794000Y-15106900D01*
X140794000Y-29950000D02*
X140794000Y-19354100D01*
X140794000Y-15106900D02*
X141767000Y-14133700D01*
%TO.N,Net-(U1-PA9_A5_D5_SCL)*%
X69234900Y-18106200D02*
X69608500Y-18479800D01*
X85256600Y-28014200D02*
X84542400Y-27300000D01*
X69608500Y-28357200D02*
X69608600Y-28357200D01*
X69608500Y-18479800D02*
X69608500Y-28357200D01*
X88686100Y-28014200D02*
X85256600Y-28014200D01*
%TO.N,Net-(U2-INT)*%
X42721300Y-21316300D02*
X43130000Y-21725000D01*
X42721300Y-13816900D02*
X42721300Y-21316300D01*
X43375000Y-13163200D02*
X42721300Y-13816900D01*
%TO.N,+1V8*%
X125975000Y-21400000D02*
X131875000Y-27300000D01*
X125975000Y-16101600D02*
X125975000Y-21400000D01*
%TD*%
M02*
