%TF.GenerationSoftware,KiCad,Pcbnew,8.0.8*%
%TF.CreationDate,2025-05-01T05:04:39-05:00*%
%TF.ProjectId,Obstacle_detector,4f627374-6163-46c6-955f-646574656374,rev?*%
%TF.SameCoordinates,Original*%
%TF.FileFunction,Soldermask,Top*%
%TF.FilePolarity,Negative*%
%FSLAX46Y46*%
G04 Gerber Fmt 4.6, Leading zero omitted, Abs format (unit mm)*
G04 Created by KiCad (PCBNEW 8.0.8) date 2025-05-01 05:04:39*
%MOMM*%
%LPD*%
G01*
G04 APERTURE LIST*
G04 Aperture macros list*
%AMRoundRect*
0 Rectangle with rounded corners*
0 $1 Rounding radius*
0 $2 $3 $4 $5 $6 $7 $8 $9 X,Y pos of 4 corners*
0 Add a 4 corners polygon primitive as box body*
4,1,4,$2,$3,$4,$5,$6,$7,$8,$9,$2,$3,0*
0 Add four circle primitives for the rounded corners*
1,1,$1+$1,$2,$3*
1,1,$1+$1,$4,$5*
1,1,$1+$1,$6,$7*
1,1,$1+$1,$8,$9*
0 Add four rect primitives between the rounded corners*
20,1,$1+$1,$2,$3,$4,$5,0*
20,1,$1+$1,$4,$5,$6,$7,0*
20,1,$1+$1,$6,$7,$8,$9,0*
20,1,$1+$1,$8,$9,$2,$3,0*%
G04 Aperture macros list end*
%ADD10C,1.400000*%
%ADD11O,1.400000X1.400000*%
%ADD12RoundRect,0.150000X-0.512500X-0.150000X0.512500X-0.150000X0.512500X0.150000X-0.512500X0.150000X0*%
%ADD13R,0.530000X0.545000*%
%ADD14R,0.565000X0.530000*%
%ADD15R,2.345995X1.229995*%
%ADD16RoundRect,0.100000X-0.637500X-0.100000X0.637500X-0.100000X0.637500X0.100000X-0.637500X0.100000X0*%
%ADD17O,2.748280X1.998980*%
%ADD18O,1.016000X2.032000*%
%ADD19C,1.143000*%
G04 APERTURE END LIST*
D10*
%TO.C,R3*%
X112380000Y-31000000D03*
D11*
X117460000Y-31000000D03*
%TD*%
D10*
%TO.C,R1*%
X18044393Y-31000000D03*
D11*
X23124393Y-31000000D03*
%TD*%
D12*
%TO.C,U5*%
X142225000Y-30000000D03*
X142225000Y-30950000D03*
X142225000Y-31900000D03*
X144500000Y-31900000D03*
X144500000Y-30000000D03*
%TD*%
D13*
%TO.C,U4*%
X21000000Y-17615002D03*
X20249999Y-17615002D03*
X19500000Y-17615002D03*
X18749999Y-17615002D03*
X17999998Y-17615002D03*
X17249999Y-17615002D03*
X16499998Y-17615002D03*
D14*
X21417499Y-16557501D03*
D15*
X18749999Y-16557501D03*
D14*
X16082499Y-16557501D03*
D13*
X21000000Y-15500000D03*
X20249999Y-15500000D03*
X19500000Y-15500000D03*
X18749999Y-15500000D03*
X17999998Y-15500000D03*
X17249999Y-15500000D03*
X16499998Y-15500000D03*
%TD*%
D10*
%TO.C,R7*%
X128880000Y-31000000D03*
D11*
X133960000Y-31000000D03*
%TD*%
D10*
%TO.C,R5*%
X44460000Y-31000000D03*
D11*
X49540000Y-31000000D03*
%TD*%
D10*
%TO.C,R2*%
X31584393Y-30814123D03*
D11*
X36664393Y-30814123D03*
%TD*%
D10*
%TO.C,R4*%
X97460000Y-30500000D03*
D11*
X102540000Y-30500000D03*
%TD*%
D13*
%TO.C,U2*%
X157000002Y-16615002D03*
X156250001Y-16615002D03*
X155500002Y-16615002D03*
X154750001Y-16615002D03*
X154000000Y-16615002D03*
X153250001Y-16615002D03*
X152500000Y-16615002D03*
D14*
X157417501Y-15557501D03*
D15*
X154750001Y-15557501D03*
D14*
X152082501Y-15557501D03*
D13*
X157000002Y-14500000D03*
X156250001Y-14500000D03*
X155500002Y-14500000D03*
X154750001Y-14500000D03*
X154000000Y-14500000D03*
X153250001Y-14500000D03*
X152500000Y-14500000D03*
%TD*%
D10*
%TO.C,R6*%
X57960000Y-31000000D03*
D11*
X63040000Y-31000000D03*
%TD*%
D16*
%TO.C,U3*%
X53000000Y-17000000D03*
X53000000Y-17650000D03*
X53000000Y-18300000D03*
X53000000Y-18950000D03*
X53000000Y-19600000D03*
X53000000Y-20250000D03*
X53000000Y-20900000D03*
X53000000Y-21550000D03*
X53000000Y-22200000D03*
X53000000Y-22850000D03*
X58725000Y-22850000D03*
X58725000Y-22200000D03*
X58725000Y-21550000D03*
X58725000Y-20900000D03*
X58725000Y-20250000D03*
X58725000Y-19600000D03*
X58725000Y-18950000D03*
X58725000Y-18300000D03*
X58725000Y-17650000D03*
X58725000Y-17000000D03*
%TD*%
D17*
%TO.C,U1*%
X71094317Y-16686367D03*
X71094317Y-19226367D03*
X71094317Y-21766367D03*
X71094317Y-24306367D03*
X71094317Y-26846367D03*
X71094317Y-29386367D03*
X71094317Y-31926367D03*
X87258877Y-31926367D03*
X87258877Y-29386367D03*
X87258877Y-26846367D03*
X87258877Y-24306367D03*
X87258877Y-21766367D03*
X87258877Y-19226367D03*
X87258877Y-16686367D03*
D18*
X77961197Y-33004187D03*
X80511197Y-33004187D03*
D19*
X77960000Y-16000000D03*
X80500000Y-16000000D03*
X77960000Y-18540000D03*
X80500000Y-18540000D03*
%TD*%
M02*
