M48
; DRILL file {KiCad 8.0.8} date 2025-05-04T21:01:17-0500
; FORMAT={-:-/ absolute / inch / decimal}
; #@! TF.CreationDate,2025-05-04T21:01:17-05:00
; #@! TF.GenerationSoftware,Kicad,Pcbnew,8.0.8
; #@! TF.FileFunction,Plated,1,4,PTH
FMAT,2
INCH
; #@! TA.AperFunction,Plated,PTH,ViaDrill
T1C0.0118
; #@! TA.AperFunction,Plated,PTH,ComponentDrill
T2C0.0276
%
G90
G05
T1
X0.7764Y-0.8564
X0.7877Y-0.7616
X1.3185Y-0.7511
X1.3593Y-0.7442
X1.698Y-0.8553
X1.7068Y-0.5922
X1.7077Y-0.5182
X1.9816Y-0.9447
X2.1399Y-1.376
X2.1535Y-0.8426
X2.1722Y-1.4033
X2.1814Y-0.7274
X2.4282Y-0.6441
X2.4326Y-0.7062
X2.7258Y-0.7128
X2.7405Y-1.1164
X3.3284Y-1.0748
X3.4916Y-1.1029
X3.7982Y-1.4176
X4.0305Y-0.7441
X4.2628Y-1.4033
X4.6128Y-0.7162
X4.9247Y-0.6152
X4.9522Y-0.8854
X4.9596Y-0.6339
X5.1919Y-1.0748
X5.5431Y-0.762
X5.5431Y-1.1791
X5.5814Y-0.5564
T2
X0.7104Y-1.2205
X0.9104Y-1.2205
X1.2435Y-1.2132
X1.4435Y-1.2132
X1.7504Y-1.2205
X1.9504Y-1.2205
X2.2819Y-1.2205
X2.4819Y-1.2205
X3.837Y-1.2008
X4.037Y-1.2008
X4.3276Y-1.2008
X4.5276Y-1.2008
X4.8213Y-1.2008
X5.0213Y-1.2008
M30
