%TF.GenerationSoftware,KiCad,Pcbnew,8.0.8*%
%TF.CreationDate,2025-05-04T21:01:16-05:00*%
%TF.ProjectId,Obstacle_detector,4f627374-6163-46c6-955f-646574656374,rev?*%
%TF.SameCoordinates,Original*%
%TF.FileFunction,Drillmap*%
%TF.FilePolarity,Positive*%
%FSLAX45Y45*%
G04 Gerber Fmt 4.5, Leading zero omitted, Abs format (unit mm)*
G04 Created by KiCad (PCBNEW 8.0.8) date 2025-05-04 21:01:16*
%MOMM*%
%LPD*%
G01*
G04 APERTURE LIST*
%ADD10C,0.050000*%
%ADD11C,0.200000*%
G04 APERTURE END LIST*
D10*
X1250000Y-1200000D02*
X14800000Y-1200000D01*
X1250000Y-3700000D02*
X1250000Y-1200000D01*
X14800000Y-1200000D02*
X14800000Y-3700000D01*
X14800000Y-3700000D02*
X1250000Y-3700000D01*
D11*
X1508277Y-4013984D02*
X1508277Y-3813984D01*
X1508277Y-3813984D02*
X1555896Y-3813984D01*
X1555896Y-3813984D02*
X1584467Y-3823508D01*
X1584467Y-3823508D02*
X1603515Y-3842555D01*
X1603515Y-3842555D02*
X1613039Y-3861603D01*
X1613039Y-3861603D02*
X1622562Y-3899698D01*
X1622562Y-3899698D02*
X1622562Y-3928269D01*
X1622562Y-3928269D02*
X1613039Y-3966365D01*
X1613039Y-3966365D02*
X1603515Y-3985412D01*
X1603515Y-3985412D02*
X1584467Y-4004460D01*
X1584467Y-4004460D02*
X1555896Y-4013984D01*
X1555896Y-4013984D02*
X1508277Y-4013984D01*
X1708277Y-4013984D02*
X1708277Y-3880650D01*
X1708277Y-3918746D02*
X1717801Y-3899698D01*
X1717801Y-3899698D02*
X1727324Y-3890174D01*
X1727324Y-3890174D02*
X1746372Y-3880650D01*
X1746372Y-3880650D02*
X1765420Y-3880650D01*
X1832086Y-4013984D02*
X1832086Y-3880650D01*
X1832086Y-3813984D02*
X1822562Y-3823508D01*
X1822562Y-3823508D02*
X1832086Y-3833031D01*
X1832086Y-3833031D02*
X1841610Y-3823508D01*
X1841610Y-3823508D02*
X1832086Y-3813984D01*
X1832086Y-3813984D02*
X1832086Y-3833031D01*
X1955896Y-4013984D02*
X1936848Y-4004460D01*
X1936848Y-4004460D02*
X1927324Y-3985412D01*
X1927324Y-3985412D02*
X1927324Y-3813984D01*
X2060658Y-4013984D02*
X2041610Y-4004460D01*
X2041610Y-4004460D02*
X2032086Y-3985412D01*
X2032086Y-3985412D02*
X2032086Y-3813984D01*
X2289229Y-4013984D02*
X2289229Y-3813984D01*
X2289229Y-3813984D02*
X2355896Y-3956841D01*
X2355896Y-3956841D02*
X2422563Y-3813984D01*
X2422563Y-3813984D02*
X2422563Y-4013984D01*
X2603515Y-4013984D02*
X2603515Y-3909222D01*
X2603515Y-3909222D02*
X2593991Y-3890174D01*
X2593991Y-3890174D02*
X2574944Y-3880650D01*
X2574944Y-3880650D02*
X2536848Y-3880650D01*
X2536848Y-3880650D02*
X2517801Y-3890174D01*
X2603515Y-4004460D02*
X2584467Y-4013984D01*
X2584467Y-4013984D02*
X2536848Y-4013984D01*
X2536848Y-4013984D02*
X2517801Y-4004460D01*
X2517801Y-4004460D02*
X2508277Y-3985412D01*
X2508277Y-3985412D02*
X2508277Y-3966365D01*
X2508277Y-3966365D02*
X2517801Y-3947317D01*
X2517801Y-3947317D02*
X2536848Y-3937793D01*
X2536848Y-3937793D02*
X2584467Y-3937793D01*
X2584467Y-3937793D02*
X2603515Y-3928269D01*
X2698753Y-3880650D02*
X2698753Y-4080650D01*
X2698753Y-3890174D02*
X2717801Y-3880650D01*
X2717801Y-3880650D02*
X2755896Y-3880650D01*
X2755896Y-3880650D02*
X2774944Y-3890174D01*
X2774944Y-3890174D02*
X2784467Y-3899698D01*
X2784467Y-3899698D02*
X2793991Y-3918746D01*
X2793991Y-3918746D02*
X2793991Y-3975888D01*
X2793991Y-3975888D02*
X2784467Y-3994936D01*
X2784467Y-3994936D02*
X2774944Y-4004460D01*
X2774944Y-4004460D02*
X2755896Y-4013984D01*
X2755896Y-4013984D02*
X2717801Y-4013984D01*
X2717801Y-4013984D02*
X2698753Y-4004460D01*
X2879705Y-3994936D02*
X2889229Y-4004460D01*
X2889229Y-4004460D02*
X2879705Y-4013984D01*
X2879705Y-4013984D02*
X2870182Y-4004460D01*
X2870182Y-4004460D02*
X2879705Y-3994936D01*
X2879705Y-3994936D02*
X2879705Y-4013984D01*
X2879705Y-3890174D02*
X2889229Y-3899698D01*
X2889229Y-3899698D02*
X2879705Y-3909222D01*
X2879705Y-3909222D02*
X2870182Y-3899698D01*
X2870182Y-3899698D02*
X2879705Y-3890174D01*
X2879705Y-3890174D02*
X2879705Y-3909222D01*
M02*
