M48
; DRILL file {KiCad 8.0.8} date 2025-05-04T20:59:47-0500
; FORMAT={-:-/ absolute / inch / decimal}
; #@! TF.CreationDate,2025-05-04T20:59:47-05:00
; #@! TF.GenerationSoftware,Kicad,Pcbnew,8.0.8
; #@! TF.FileFunction,Plated,1,24,PTH
FMAT,2
INCH
; #@! TA.AperFunction,Plated,PTH,ViaDrill
T1C0.0118
; #@! TA.AperFunction,Plated,PTH,ComponentDrill
T2C0.0236
; #@! TA.AperFunction,Plated,PTH,ComponentDrill
T3C0.0315
; #@! TA.AperFunction,Plated,PTH,ComponentDrill
T4C0.0394
%
G90
G05
T1
X0.5274Y-0.9032
X0.551Y-0.859
X0.584Y-1.1405
X0.5912Y-0.8006
X0.6693Y-1.6075
X0.6731Y-1.9811
X0.7114Y-1.7709
X0.7163Y-0.8448
X0.7596Y-0.9991
X0.791Y-0.8004
X0.791Y-1.0899
X0.791Y-1.8774
X0.791Y-1.6075
X0.9088Y-0.7703
X1.7063Y-0.9154
X1.7333Y-1.9143
X1.7664Y-1.571
X1.7879Y-0.8403
X1.8286Y-0.9555
X1.8489Y-1.239
X1.8736Y-0.9144
X1.8767Y-0.9477
X1.9317Y-1.2131
X1.9573Y-0.8398
X1.9972Y-0.9094
X2.0086Y-0.8625
X2.0867Y-1.5711
X2.9113Y-0.9657
X3.0291Y-0.8665
X3.0725Y-0.8911
X3.097Y-0.9328
X3.1129Y-1.2015
X3.1469Y-2.1431
X3.2Y-1.7923
X3.2163Y-0.8629
X3.2288Y-0.9518
X3.2557Y-0.8547
X3.2647Y-1.2587
X3.3774Y-0.8526
X3.3969Y-0.8954
X3.7351Y-2.1112
X3.7359Y-1.2279
X4.207Y-1.6906
X4.3039Y-0.8672
X4.3491Y-0.9586
X4.3551Y-0.9158
X4.3693Y-1.1578
X4.4426Y-1.5878
X4.4426Y-2.0011
X4.4673Y-0.8018
X4.4864Y-0.9991
X4.5064Y-0.9355
X4.5454Y-1.2355
X4.5602Y-1.4417
X4.5933Y-0.8399
X4.6806Y-0.8847
X5.2672Y-1.1279
X5.2672Y-1.3423
X5.385Y-0.6542
X5.4748Y-0.9612
X5.4748Y-1.0371
X5.4774Y-0.8022
X5.4809Y-1.4567
X5.4944Y-1.2527
X5.53Y-1.6855
X5.7083Y-1.7258
X5.7211Y-1.6895
X5.7384Y-1.3469
X5.7543Y-2.0727
X5.7634Y-2.1112
X5.7666Y-1.6244
X5.8073Y-1.751
X5.9584Y-1.1484
X6.1099Y-1.344
X6.1174Y-0.8958
X6.1204Y-0.832
X6.1243Y-1.0196
X6.1335Y-0.9762
X6.2102Y-1.4567
X6.7451Y-1.0182
X6.7471Y-1.0926
X6.7546Y-0.9089
X6.7656Y-0.8642
X6.7985Y-1.3709
X6.7985Y-1.5711
X6.838Y-1.1513
X6.885Y-1.0348
X6.9163Y-1.3749
X6.9261Y-1.0626
X6.9262Y-1.0984
X7.0479Y-1.0873
X7.0652Y-1.0354
X8.0801Y-1.0208
X8.0807Y-1.2279
X8.0856Y-0.949
X8.0943Y-1.7679
X8.117Y-1.04
X8.1986Y-1.1995
X8.2243Y-1.0402
X8.2448Y-0.9442
X8.2454Y-1.0016
X8.3299Y-1.7748
X8.3597Y-1.2279
X8.4477Y-0.9991
X9.4863Y-1.1973
X9.5048Y-1.0231
X9.5078Y-1.6855
X9.5091Y-0.9116
X9.5977Y-0.8708
X9.6042Y-1.5384
X9.6176Y-0.9512
X9.6221Y-1.9978
X9.6405Y-0.8751
X9.6505Y-0.9646
X9.7002Y-2.0999
X9.7434Y-1.6529
X9.7435Y-0.8795
X9.7653Y-1.2279
X9.7793Y-0.9547
X10.6858Y-1.1135
X10.6858Y-2.0287
X10.7153Y-0.8661
X10.7186Y-0.9166
X10.7682Y-0.767
X10.7722Y-0.9701
X10.7936Y-1.6075
X10.8036Y-0.7703
X10.86Y-0.8847
X10.8968Y-0.9059
X10.9103Y-0.853
X10.9214Y-1.7999
X10.9618Y-0.8179
X10.9892Y-1.1801
T2
X0.6575Y-0.6102
X0.7992Y-0.6102
X1.7795Y-0.6299
X1.9213Y-0.6299
X3.189Y-0.6693
X3.3307Y-0.6693
X4.4291Y-0.6496
X4.5709Y-0.6496
X6.8465Y-0.7874
X6.9882Y-0.7874
X8.185Y-0.7087
X8.3268Y-0.7087
X9.563Y-0.689
X9.7047Y-0.689
X10.8228Y-0.6299
X10.9646Y-0.6299
T3
X2.7465Y-1.7126
X2.8465Y-1.7126
X2.9465Y-1.7126
X3.0465Y-1.7126
X3.1465Y-1.7126
X3.2465Y-1.7126
X3.3465Y-1.7126
X3.4465Y-1.7126
X3.5465Y-1.7126
X6.6441Y-1.6929
X6.7441Y-1.6929
X6.8441Y-1.6929
X6.9441Y-1.6929
X7.0441Y-1.6929
X7.1441Y-1.6929
X7.2441Y-1.6929
X7.3441Y-1.6929
X7.4441Y-1.6929
T4
X3.6024Y-2.1063
X3.6024Y-2.2047
M30
