%TF.GenerationSoftware,KiCad,Pcbnew,8.0.8*%
%TF.CreationDate,2025-05-04T20:59:48-05:00*%
%TF.ProjectId,Feedback_sleeve,46656564-6261-4636-9b5f-736c65657665,rev?*%
%TF.SameCoordinates,Original*%
%TF.FileFunction,Drillmap*%
%TF.FilePolarity,Positive*%
%FSLAX45Y45*%
G04 Gerber Fmt 4.5, Leading zero omitted, Abs format (unit mm)*
G04 Created by KiCad (PCBNEW 8.0.8) date 2025-05-04 20:59:48*
%MOMM*%
%LPD*%
G01*
G04 APERTURE LIST*
%ADD10C,0.200000*%
%ADD11C,0.100000*%
G04 APERTURE END LIST*
D10*
D11*
X1324510Y-2279150D02*
X1354510Y-2309150D01*
X1354510Y-2279150D02*
X1324510Y-2309150D01*
X1384660Y-2166820D02*
X1414660Y-2196820D01*
X1414660Y-2166820D02*
X1384660Y-2196820D01*
X1468480Y-2881750D02*
X1498480Y-2911750D01*
X1498480Y-2881750D02*
X1468480Y-2911750D01*
X1486630Y-2018530D02*
X1516630Y-2048530D01*
X1516630Y-2018530D02*
X1486630Y-2048530D01*
X1685140Y-4067930D02*
X1715140Y-4097930D01*
X1715140Y-4067930D02*
X1685140Y-4097930D01*
X1694550Y-5017110D02*
X1724550Y-5047110D01*
X1724550Y-5017110D02*
X1694550Y-5047110D01*
X1792000Y-4483130D02*
X1822000Y-4513130D01*
X1822000Y-4483130D02*
X1792000Y-4513130D01*
X1804440Y-2130870D02*
X1834440Y-2160870D01*
X1834440Y-2130870D02*
X1804440Y-2160870D01*
X1914270Y-2522620D02*
X1944270Y-2552620D01*
X1944270Y-2522620D02*
X1914270Y-2552620D01*
X1994070Y-2018010D02*
X2024070Y-2048010D01*
X2024070Y-2018010D02*
X1994070Y-2048010D01*
X1994070Y-2753240D02*
X2024070Y-2783240D01*
X2024070Y-2753240D02*
X1994070Y-2783240D01*
X1994070Y-4753520D02*
X2024070Y-4783520D01*
X2024070Y-4753520D02*
X1994070Y-4783520D01*
X1994230Y-4067930D02*
X2024230Y-4097930D01*
X2024230Y-4067930D02*
X1994230Y-4097930D01*
X2293270Y-1941440D02*
X2323270Y-1971440D01*
X2323270Y-1941440D02*
X2293270Y-1971440D01*
X4319040Y-2310000D02*
X4349040Y-2340000D01*
X4349040Y-2310000D02*
X4319040Y-2340000D01*
X4387670Y-4847340D02*
X4417670Y-4877340D01*
X4417670Y-4847340D02*
X4387670Y-4877340D01*
X4471600Y-3975410D02*
X4501600Y-4005410D01*
X4501600Y-3975410D02*
X4471600Y-4005410D01*
X4526140Y-2119460D02*
X4556140Y-2149460D01*
X4556140Y-2119460D02*
X4526140Y-2149460D01*
X4629580Y-2412070D02*
X4659580Y-2442070D01*
X4659580Y-2412070D02*
X4629580Y-2442070D01*
X4681140Y-3132050D02*
X4711140Y-3162050D01*
X4711140Y-3132050D02*
X4681140Y-3162050D01*
X4743950Y-2307540D02*
X4773950Y-2337540D01*
X4773950Y-2307540D02*
X4743950Y-2337540D01*
X4751890Y-2392070D02*
X4781890Y-2422070D01*
X4781890Y-2392070D02*
X4751890Y-2422070D01*
X4891550Y-3066190D02*
X4921550Y-3096190D01*
X4921550Y-3066190D02*
X4891550Y-3096190D01*
X4956620Y-2118020D02*
X4986620Y-2148020D01*
X4986620Y-2118020D02*
X4956620Y-2148020D01*
X5057840Y-2295000D02*
X5087840Y-2325000D01*
X5087840Y-2295000D02*
X5057840Y-2325000D01*
X5086760Y-2175870D02*
X5116760Y-2205870D01*
X5116760Y-2175870D02*
X5086760Y-2205870D01*
X5285270Y-3975570D02*
X5315270Y-4005570D01*
X5315270Y-3975570D02*
X5285270Y-4005570D01*
X7379670Y-2437920D02*
X7409670Y-2467920D01*
X7409670Y-2437920D02*
X7379670Y-2467920D01*
X7678870Y-2185870D02*
X7708870Y-2215870D01*
X7708870Y-2185870D02*
X7678870Y-2215870D01*
X7789110Y-2248310D02*
X7819110Y-2278310D01*
X7819110Y-2248310D02*
X7789110Y-2278310D01*
X7851320Y-2354320D02*
X7881320Y-2384320D01*
X7881320Y-2354320D02*
X7851320Y-2384320D01*
X7891700Y-3036870D02*
X7921700Y-3066870D01*
X7921700Y-3036870D02*
X7891700Y-3066870D01*
X7978070Y-5428520D02*
X8008070Y-5458520D01*
X8008070Y-5428520D02*
X7978070Y-5458520D01*
X8112970Y-4537340D02*
X8142970Y-4567340D01*
X8142970Y-4537340D02*
X8112970Y-4567340D01*
X8154280Y-2176730D02*
X8184280Y-2206730D01*
X8184280Y-2176730D02*
X8154280Y-2206730D01*
X8186100Y-2402620D02*
X8216100Y-2432620D01*
X8216100Y-2402620D02*
X8186100Y-2432620D01*
X8254530Y-2155870D02*
X8284530Y-2185870D01*
X8284530Y-2155870D02*
X8254530Y-2185870D01*
X8277270Y-3182050D02*
X8307270Y-3212050D01*
X8307270Y-3182050D02*
X8277270Y-3212050D01*
X8563670Y-2150690D02*
X8593670Y-2180690D01*
X8593670Y-2150690D02*
X8563670Y-2180690D01*
X8613040Y-2259270D02*
X8643040Y-2289270D01*
X8643040Y-2259270D02*
X8613040Y-2289270D01*
X9472100Y-5347460D02*
X9502100Y-5377460D01*
X9502100Y-5347460D02*
X9472100Y-5377460D01*
X9474070Y-3103800D02*
X9504070Y-3133800D01*
X9504070Y-3103800D02*
X9474070Y-3133800D01*
X10670870Y-4279210D02*
X10700870Y-4309210D01*
X10700870Y-4279210D02*
X10670870Y-4309210D01*
X10916890Y-2187800D02*
X10946890Y-2217800D01*
X10946890Y-2187800D02*
X10916890Y-2217800D01*
X11031780Y-2419800D02*
X11061780Y-2449800D01*
X11061780Y-2419800D02*
X11031780Y-2449800D01*
X11046880Y-2311160D02*
X11076880Y-2341160D01*
X11076880Y-2311160D02*
X11046880Y-2341160D01*
X11082940Y-2925820D02*
X11112940Y-2955820D01*
X11112940Y-2925820D02*
X11082940Y-2955820D01*
X11269270Y-4017930D02*
X11299270Y-4047930D01*
X11299270Y-4017930D02*
X11269270Y-4047930D01*
X11269270Y-5067780D02*
X11299270Y-5097780D01*
X11299270Y-5067780D02*
X11269270Y-5097780D01*
X11331940Y-2021650D02*
X11361940Y-2051650D01*
X11361940Y-2021650D02*
X11331940Y-2051650D01*
X11380410Y-2522620D02*
X11410410Y-2552620D01*
X11410410Y-2522620D02*
X11380410Y-2552620D01*
X11431170Y-2361160D02*
X11461170Y-2391160D01*
X11461170Y-2361160D02*
X11431170Y-2391160D01*
X11530380Y-3123220D02*
X11560380Y-3153220D01*
X11560380Y-3123220D02*
X11530380Y-3153220D01*
X11568030Y-3646900D02*
X11598030Y-3676900D01*
X11598030Y-3646900D02*
X11568030Y-3676900D01*
X11651880Y-2118470D02*
X11681880Y-2148470D01*
X11681880Y-2118470D02*
X11651880Y-2148470D01*
X11873640Y-2232030D02*
X11903640Y-2262030D01*
X11903640Y-2232030D02*
X11873640Y-2262030D01*
X13363670Y-2849770D02*
X13393670Y-2879770D01*
X13393670Y-2849770D02*
X13363670Y-2879770D01*
X13363670Y-3394390D02*
X13393670Y-3424390D01*
X13393670Y-3394390D02*
X13363670Y-3424390D01*
X13662870Y-1646740D02*
X13692870Y-1676740D01*
X13692870Y-1646740D02*
X13662870Y-1676740D01*
X13890890Y-2426340D02*
X13920890Y-2456340D01*
X13920890Y-2426340D02*
X13890890Y-2456340D01*
X13890890Y-2619280D02*
X13920890Y-2649280D01*
X13920890Y-2619280D02*
X13890890Y-2649280D01*
X13897510Y-2022500D02*
X13927510Y-2052500D01*
X13927510Y-2022500D02*
X13897510Y-2052500D01*
X13906440Y-3684980D02*
X13936440Y-3714980D01*
X13936440Y-3684980D02*
X13906440Y-3714980D01*
X13940710Y-3166890D02*
X13970710Y-3196890D01*
X13970710Y-3166890D02*
X13940710Y-3196890D01*
X14031190Y-4266220D02*
X14061190Y-4296220D01*
X14061190Y-4266220D02*
X14031190Y-4296220D01*
X14484140Y-4368640D02*
X14514140Y-4398640D01*
X14514140Y-4368640D02*
X14484140Y-4398640D01*
X14516480Y-4276220D02*
X14546480Y-4306220D01*
X14546480Y-4276220D02*
X14516480Y-4306220D01*
X14560470Y-3406100D02*
X14590470Y-3436100D01*
X14590470Y-3406100D02*
X14560470Y-3436100D01*
X14601000Y-5249540D02*
X14631000Y-5279540D01*
X14631000Y-5249540D02*
X14601000Y-5279540D01*
X14623930Y-5347460D02*
X14653930Y-5377460D01*
X14653930Y-5347460D02*
X14623930Y-5377460D01*
X14632080Y-4110990D02*
X14662080Y-4140990D01*
X14662080Y-4110990D02*
X14632080Y-4140990D01*
X14735460Y-4432550D02*
X14765460Y-4462550D01*
X14765460Y-4432550D02*
X14735460Y-4462550D01*
X15119400Y-2901840D02*
X15149400Y-2931840D01*
X15149400Y-2901840D02*
X15119400Y-2931840D01*
X15504020Y-3398880D02*
X15534020Y-3428880D01*
X15534020Y-3398880D02*
X15504020Y-3428880D01*
X15523120Y-2260450D02*
X15553120Y-2290450D01*
X15553120Y-2260450D02*
X15523120Y-2290450D01*
X15530750Y-2098310D02*
X15560750Y-2128310D01*
X15560750Y-2098310D02*
X15530750Y-2128310D01*
X15540800Y-2574660D02*
X15570800Y-2604660D01*
X15570800Y-2574660D02*
X15540800Y-2604660D01*
X15564210Y-2464580D02*
X15594210Y-2494580D01*
X15594210Y-2464580D02*
X15564210Y-2494580D01*
X15758920Y-3684980D02*
X15788920Y-3714980D01*
X15788920Y-3684980D02*
X15758920Y-3714980D01*
X17117650Y-2571250D02*
X17147650Y-2601250D01*
X17147650Y-2571250D02*
X17117650Y-2601250D01*
X17122710Y-2760200D02*
X17152710Y-2790200D01*
X17152710Y-2760200D02*
X17122710Y-2790200D01*
X17141630Y-2293690D02*
X17171630Y-2323690D01*
X17171630Y-2293690D02*
X17141630Y-2323690D01*
X17169590Y-2180050D02*
X17199590Y-2210050D01*
X17199590Y-2180050D02*
X17169590Y-2210050D01*
X17253270Y-3466970D02*
X17283270Y-3496970D01*
X17283270Y-3466970D02*
X17253270Y-3496970D01*
X17253270Y-3975570D02*
X17283270Y-4005570D01*
X17283270Y-3975570D02*
X17253270Y-4005570D01*
X17353570Y-2909200D02*
X17383570Y-2939200D01*
X17383570Y-2909200D02*
X17353570Y-2939200D01*
X17472800Y-2613470D02*
X17502800Y-2643470D01*
X17502800Y-2613470D02*
X17472800Y-2643470D01*
X17552470Y-3477340D02*
X17582470Y-3507340D01*
X17582470Y-3477340D02*
X17552470Y-3507340D01*
X17577420Y-2683920D02*
X17607420Y-2713920D01*
X17607420Y-2683920D02*
X17577420Y-2713920D01*
X17577620Y-2775000D02*
X17607620Y-2805000D01*
X17607620Y-2775000D02*
X17577620Y-2805000D01*
X17886760Y-2746740D02*
X17916760Y-2776740D01*
X17916760Y-2746740D02*
X17886760Y-2776740D01*
X17930720Y-2615030D02*
X17960720Y-2645030D01*
X17960720Y-2615030D02*
X17930720Y-2645030D01*
X20508340Y-2577750D02*
X20538340Y-2607750D01*
X20538340Y-2577750D02*
X20508340Y-2607750D01*
X20509940Y-3103800D02*
X20539940Y-3133800D01*
X20539940Y-3103800D02*
X20509940Y-3133800D01*
X20522440Y-2395490D02*
X20552440Y-2425490D01*
X20552440Y-2395490D02*
X20522440Y-2425490D01*
X20544470Y-4475530D02*
X20574470Y-4505530D01*
X20574470Y-4475530D02*
X20544470Y-4505530D01*
X20602090Y-2626660D02*
X20632090Y-2656660D01*
X20632090Y-2626660D02*
X20602090Y-2656660D01*
X20809540Y-3031750D02*
X20839540Y-3061750D01*
X20839540Y-3031750D02*
X20809540Y-3061750D01*
X20874610Y-2627070D02*
X20904610Y-2657070D01*
X20904610Y-2627070D02*
X20874610Y-2657070D01*
X20926720Y-2383390D02*
X20956720Y-2413390D01*
X20956720Y-2383390D02*
X20926720Y-2413390D01*
X20928280Y-2529000D02*
X20958280Y-2559000D01*
X20958280Y-2529000D02*
X20928280Y-2559000D01*
X21142870Y-4492870D02*
X21172870Y-4522870D01*
X21172870Y-4492870D02*
X21142870Y-4522870D01*
X21218740Y-3103800D02*
X21248740Y-3133800D01*
X21248740Y-3103800D02*
X21218740Y-3133800D01*
X21442070Y-2522620D02*
X21472070Y-2552620D01*
X21472070Y-2522620D02*
X21442070Y-2552620D01*
X24080140Y-3026150D02*
X24110140Y-3056150D01*
X24110140Y-3026150D02*
X24080140Y-3056150D01*
X24127190Y-2583570D02*
X24157190Y-2613570D01*
X24157190Y-2583570D02*
X24127190Y-2613570D01*
X24134870Y-4266160D02*
X24164870Y-4296160D01*
X24164870Y-4266160D02*
X24134870Y-4296160D01*
X24138140Y-2300440D02*
X24168140Y-2330440D01*
X24168140Y-2300440D02*
X24138140Y-2330440D01*
X24363160Y-2196840D02*
X24393160Y-2226840D01*
X24393160Y-2196840D02*
X24363160Y-2226840D01*
X24379740Y-3892640D02*
X24409740Y-3922640D01*
X24409740Y-3892640D02*
X24379740Y-3922640D01*
X24413690Y-2401160D02*
X24443690Y-2431160D01*
X24443690Y-2401160D02*
X24413690Y-2431160D01*
X24425170Y-5059520D02*
X24455170Y-5089520D01*
X24455170Y-5059520D02*
X24425170Y-5089520D01*
X24471840Y-2207760D02*
X24501840Y-2237760D01*
X24501840Y-2207760D02*
X24471840Y-2237760D01*
X24497380Y-2435000D02*
X24527380Y-2465000D01*
X24527380Y-2435000D02*
X24497380Y-2465000D01*
X24623440Y-5318690D02*
X24653440Y-5348690D01*
X24653440Y-5318690D02*
X24623440Y-5348690D01*
X24733270Y-4183270D02*
X24763270Y-4213270D01*
X24763270Y-4183270D02*
X24733270Y-4213270D01*
X24733410Y-2218960D02*
X24763410Y-2248960D01*
X24763410Y-2218960D02*
X24733410Y-2248960D01*
X24788940Y-3103800D02*
X24818940Y-3133800D01*
X24818940Y-3103800D02*
X24788940Y-3133800D01*
X24824540Y-2410000D02*
X24854540Y-2440000D01*
X24854540Y-2410000D02*
X24824540Y-2440000D01*
X27126870Y-2813210D02*
X27156870Y-2843210D01*
X27156870Y-2813210D02*
X27126870Y-2843210D01*
X27126870Y-5137930D02*
X27156870Y-5167930D01*
X27156870Y-5137930D02*
X27126870Y-5167930D01*
X27201800Y-2184910D02*
X27231800Y-2214910D01*
X27231800Y-2184910D02*
X27201800Y-2214910D01*
X27210240Y-2313090D02*
X27240240Y-2343090D01*
X27240240Y-2313090D02*
X27210240Y-2343090D01*
X27336270Y-1933160D02*
X27366270Y-1963160D01*
X27366270Y-1933160D02*
X27336270Y-1963160D01*
X27346270Y-2449150D02*
X27376270Y-2479150D01*
X27376270Y-2449150D02*
X27346270Y-2479150D01*
X27400740Y-4067930D02*
X27430740Y-4097930D01*
X27430740Y-4067930D02*
X27400740Y-4097930D01*
X27426070Y-1941440D02*
X27456070Y-1971440D01*
X27456070Y-1941440D02*
X27426070Y-1971440D01*
X27569450Y-2232070D02*
X27599450Y-2262070D01*
X27599450Y-2232070D02*
X27569450Y-2262070D01*
X27662960Y-2286040D02*
X27692960Y-2316040D01*
X27692960Y-2286040D02*
X27662960Y-2316040D01*
X27697250Y-2151680D02*
X27727250Y-2181680D01*
X27727250Y-2151680D02*
X27697250Y-2181680D01*
X27725270Y-4556750D02*
X27755270Y-4586750D01*
X27755270Y-4556750D02*
X27725270Y-4586750D01*
X27827930Y-2062400D02*
X27857930Y-2092400D01*
X27857930Y-2062400D02*
X27827930Y-2092400D01*
X27897570Y-2982470D02*
X27927570Y-3012470D01*
X27927570Y-2982470D02*
X27897570Y-3012470D01*
X1700000Y-1550000D02*
G75*
G02*
X1640000Y-1550000I-30000J0D01*
G01*
X1640000Y-1550000D02*
G75*
G02*
X1700000Y-1550000I30000J0D01*
G01*
X2060000Y-1550000D02*
G75*
G02*
X2000000Y-1550000I-30000J0D01*
G01*
X2000000Y-1550000D02*
G75*
G02*
X2060000Y-1550000I30000J0D01*
G01*
X4550000Y-1600000D02*
G75*
G02*
X4490000Y-1600000I-30000J0D01*
G01*
X4490000Y-1600000D02*
G75*
G02*
X4550000Y-1600000I30000J0D01*
G01*
X4910000Y-1600000D02*
G75*
G02*
X4850000Y-1600000I-30000J0D01*
G01*
X4850000Y-1600000D02*
G75*
G02*
X4910000Y-1600000I30000J0D01*
G01*
X8130000Y-1700000D02*
G75*
G02*
X8070000Y-1700000I-30000J0D01*
G01*
X8070000Y-1700000D02*
G75*
G02*
X8130000Y-1700000I30000J0D01*
G01*
X8490000Y-1700000D02*
G75*
G02*
X8430000Y-1700000I-30000J0D01*
G01*
X8430000Y-1700000D02*
G75*
G02*
X8490000Y-1700000I30000J0D01*
G01*
X11280000Y-1650000D02*
G75*
G02*
X11220000Y-1650000I-30000J0D01*
G01*
X11220000Y-1650000D02*
G75*
G02*
X11280000Y-1650000I30000J0D01*
G01*
X11640000Y-1650000D02*
G75*
G02*
X11580000Y-1650000I-30000J0D01*
G01*
X11580000Y-1650000D02*
G75*
G02*
X11640000Y-1650000I30000J0D01*
G01*
X17420000Y-2000000D02*
G75*
G02*
X17360000Y-2000000I-30000J0D01*
G01*
X17360000Y-2000000D02*
G75*
G02*
X17420000Y-2000000I30000J0D01*
G01*
X17780000Y-2000000D02*
G75*
G02*
X17720000Y-2000000I-30000J0D01*
G01*
X17720000Y-2000000D02*
G75*
G02*
X17780000Y-2000000I30000J0D01*
G01*
X20820000Y-1800000D02*
G75*
G02*
X20760000Y-1800000I-30000J0D01*
G01*
X20760000Y-1800000D02*
G75*
G02*
X20820000Y-1800000I30000J0D01*
G01*
X21180000Y-1800000D02*
G75*
G02*
X21120000Y-1800000I-30000J0D01*
G01*
X21120000Y-1800000D02*
G75*
G02*
X21180000Y-1800000I30000J0D01*
G01*
X24320000Y-1750000D02*
G75*
G02*
X24260000Y-1750000I-30000J0D01*
G01*
X24260000Y-1750000D02*
G75*
G02*
X24320000Y-1750000I30000J0D01*
G01*
X24680000Y-1750000D02*
G75*
G02*
X24620000Y-1750000I-30000J0D01*
G01*
X24620000Y-1750000D02*
G75*
G02*
X24680000Y-1750000I30000J0D01*
G01*
X27520000Y-1600000D02*
G75*
G02*
X27460000Y-1600000I-30000J0D01*
G01*
X27460000Y-1600000D02*
G75*
G02*
X27520000Y-1600000I30000J0D01*
G01*
X27880000Y-1600000D02*
G75*
G02*
X27820000Y-1600000I-30000J0D01*
G01*
X27820000Y-1600000D02*
G75*
G02*
X27880000Y-1600000I30000J0D01*
G01*
X6976000Y-4310000D02*
X6976000Y-4390000D01*
X6936000Y-4350000D02*
X7016000Y-4350000D01*
X7230000Y-4310000D02*
X7230000Y-4390000D01*
X7190000Y-4350000D02*
X7270000Y-4350000D01*
X7484000Y-4310000D02*
X7484000Y-4390000D01*
X7444000Y-4350000D02*
X7524000Y-4350000D01*
X7738000Y-4310000D02*
X7738000Y-4390000D01*
X7698000Y-4350000D02*
X7778000Y-4350000D01*
X7992000Y-4310000D02*
X7992000Y-4390000D01*
X7952000Y-4350000D02*
X8032000Y-4350000D01*
X8246000Y-4310000D02*
X8246000Y-4390000D01*
X8206000Y-4350000D02*
X8286000Y-4350000D01*
X8500000Y-4310000D02*
X8500000Y-4390000D01*
X8460000Y-4350000D02*
X8540000Y-4350000D01*
X8754000Y-4310000D02*
X8754000Y-4390000D01*
X8714000Y-4350000D02*
X8794000Y-4350000D01*
X9008000Y-4310000D02*
X9008000Y-4390000D01*
X8968000Y-4350000D02*
X9048000Y-4350000D01*
X16876000Y-4260000D02*
X16876000Y-4340000D01*
X16836000Y-4300000D02*
X16916000Y-4300000D01*
X17130000Y-4260000D02*
X17130000Y-4340000D01*
X17090000Y-4300000D02*
X17170000Y-4300000D01*
X17384000Y-4260000D02*
X17384000Y-4340000D01*
X17344000Y-4300000D02*
X17424000Y-4300000D01*
X17638000Y-4260000D02*
X17638000Y-4340000D01*
X17598000Y-4300000D02*
X17678000Y-4300000D01*
X17892000Y-4260000D02*
X17892000Y-4340000D01*
X17852000Y-4300000D02*
X17932000Y-4300000D01*
X18146000Y-4260000D02*
X18146000Y-4340000D01*
X18106000Y-4300000D02*
X18186000Y-4300000D01*
X18400000Y-4260000D02*
X18400000Y-4340000D01*
X18360000Y-4300000D02*
X18440000Y-4300000D01*
X18654000Y-4260000D02*
X18654000Y-4340000D01*
X18614000Y-4300000D02*
X18694000Y-4300000D01*
X18908000Y-4260000D02*
X18908000Y-4340000D01*
X18868000Y-4300000D02*
X18948000Y-4300000D01*
X9185356Y-5385356D02*
X9185356Y-5314644D01*
X9114644Y-5314644D01*
X9114644Y-5385356D01*
X9185356Y-5385356D01*
X9185356Y-5635356D02*
X9185356Y-5564644D01*
X9114644Y-5564644D01*
X9114644Y-5635356D01*
X9185356Y-5635356D01*
D10*
X260777Y-311484D02*
X260777Y-111484D01*
X260777Y-111484D02*
X308396Y-111484D01*
X308396Y-111484D02*
X336967Y-121008D01*
X336967Y-121008D02*
X356015Y-140055D01*
X356015Y-140055D02*
X365539Y-159103D01*
X365539Y-159103D02*
X375062Y-197198D01*
X375062Y-197198D02*
X375062Y-225769D01*
X375062Y-225769D02*
X365539Y-263865D01*
X365539Y-263865D02*
X356015Y-282912D01*
X356015Y-282912D02*
X336967Y-301960D01*
X336967Y-301960D02*
X308396Y-311484D01*
X308396Y-311484D02*
X260777Y-311484D01*
X460777Y-311484D02*
X460777Y-178150D01*
X460777Y-216246D02*
X470301Y-197198D01*
X470301Y-197198D02*
X479824Y-187674D01*
X479824Y-187674D02*
X498872Y-178150D01*
X498872Y-178150D02*
X517920Y-178150D01*
X584586Y-311484D02*
X584586Y-178150D01*
X584586Y-111484D02*
X575063Y-121008D01*
X575063Y-121008D02*
X584586Y-130531D01*
X584586Y-130531D02*
X594110Y-121008D01*
X594110Y-121008D02*
X584586Y-111484D01*
X584586Y-111484D02*
X584586Y-130531D01*
X708396Y-311484D02*
X689348Y-301960D01*
X689348Y-301960D02*
X679824Y-282912D01*
X679824Y-282912D02*
X679824Y-111484D01*
X813158Y-311484D02*
X794110Y-301960D01*
X794110Y-301960D02*
X784586Y-282912D01*
X784586Y-282912D02*
X784586Y-111484D01*
X1041729Y-311484D02*
X1041729Y-111484D01*
X1041729Y-111484D02*
X1108396Y-254341D01*
X1108396Y-254341D02*
X1175063Y-111484D01*
X1175063Y-111484D02*
X1175063Y-311484D01*
X1356015Y-311484D02*
X1356015Y-206722D01*
X1356015Y-206722D02*
X1346491Y-187674D01*
X1346491Y-187674D02*
X1327444Y-178150D01*
X1327444Y-178150D02*
X1289348Y-178150D01*
X1289348Y-178150D02*
X1270301Y-187674D01*
X1356015Y-301960D02*
X1336967Y-311484D01*
X1336967Y-311484D02*
X1289348Y-311484D01*
X1289348Y-311484D02*
X1270301Y-301960D01*
X1270301Y-301960D02*
X1260777Y-282912D01*
X1260777Y-282912D02*
X1260777Y-263865D01*
X1260777Y-263865D02*
X1270301Y-244817D01*
X1270301Y-244817D02*
X1289348Y-235293D01*
X1289348Y-235293D02*
X1336967Y-235293D01*
X1336967Y-235293D02*
X1356015Y-225769D01*
X1451253Y-178150D02*
X1451253Y-378150D01*
X1451253Y-187674D02*
X1470301Y-178150D01*
X1470301Y-178150D02*
X1508396Y-178150D01*
X1508396Y-178150D02*
X1527443Y-187674D01*
X1527443Y-187674D02*
X1536967Y-197198D01*
X1536967Y-197198D02*
X1546491Y-216246D01*
X1546491Y-216246D02*
X1546491Y-273389D01*
X1546491Y-273389D02*
X1536967Y-292436D01*
X1536967Y-292436D02*
X1527443Y-301960D01*
X1527443Y-301960D02*
X1508396Y-311484D01*
X1508396Y-311484D02*
X1470301Y-311484D01*
X1470301Y-311484D02*
X1451253Y-301960D01*
X1632205Y-292436D02*
X1641729Y-301960D01*
X1641729Y-301960D02*
X1632205Y-311484D01*
X1632205Y-311484D02*
X1622682Y-301960D01*
X1622682Y-301960D02*
X1632205Y-292436D01*
X1632205Y-292436D02*
X1632205Y-311484D01*
X1632205Y-187674D02*
X1641729Y-197198D01*
X1641729Y-197198D02*
X1632205Y-206722D01*
X1632205Y-206722D02*
X1622682Y-197198D01*
X1622682Y-197198D02*
X1632205Y-187674D01*
X1632205Y-187674D02*
X1632205Y-206722D01*
D11*
X-30000Y-625000D02*
X0Y-655000D01*
X0Y-625000D02*
X-30000Y-655000D01*
D10*
X298872Y-531484D02*
X317920Y-531484D01*
X317920Y-531484D02*
X336967Y-541008D01*
X336967Y-541008D02*
X346491Y-550531D01*
X346491Y-550531D02*
X356015Y-569579D01*
X356015Y-569579D02*
X365539Y-607674D01*
X365539Y-607674D02*
X365539Y-655293D01*
X365539Y-655293D02*
X356015Y-693389D01*
X356015Y-693389D02*
X346491Y-712436D01*
X346491Y-712436D02*
X336967Y-721960D01*
X336967Y-721960D02*
X317920Y-731484D01*
X317920Y-731484D02*
X298872Y-731484D01*
X298872Y-731484D02*
X279824Y-721960D01*
X279824Y-721960D02*
X270301Y-712436D01*
X270301Y-712436D02*
X260777Y-693389D01*
X260777Y-693389D02*
X251253Y-655293D01*
X251253Y-655293D02*
X251253Y-607674D01*
X251253Y-607674D02*
X260777Y-569579D01*
X260777Y-569579D02*
X270301Y-550531D01*
X270301Y-550531D02*
X279824Y-541008D01*
X279824Y-541008D02*
X298872Y-531484D01*
X451253Y-712436D02*
X460777Y-721960D01*
X460777Y-721960D02*
X451253Y-731484D01*
X451253Y-731484D02*
X441729Y-721960D01*
X441729Y-721960D02*
X451253Y-712436D01*
X451253Y-712436D02*
X451253Y-731484D01*
X527444Y-531484D02*
X651253Y-531484D01*
X651253Y-531484D02*
X584586Y-607674D01*
X584586Y-607674D02*
X613158Y-607674D01*
X613158Y-607674D02*
X632205Y-617198D01*
X632205Y-617198D02*
X641729Y-626722D01*
X641729Y-626722D02*
X651253Y-645770D01*
X651253Y-645770D02*
X651253Y-693389D01*
X651253Y-693389D02*
X641729Y-712436D01*
X641729Y-712436D02*
X632205Y-721960D01*
X632205Y-721960D02*
X613158Y-731484D01*
X613158Y-731484D02*
X556015Y-731484D01*
X556015Y-731484D02*
X536967Y-721960D01*
X536967Y-721960D02*
X527444Y-712436D01*
X775062Y-531484D02*
X794110Y-531484D01*
X794110Y-531484D02*
X813158Y-541008D01*
X813158Y-541008D02*
X822682Y-550531D01*
X822682Y-550531D02*
X832205Y-569579D01*
X832205Y-569579D02*
X841729Y-607674D01*
X841729Y-607674D02*
X841729Y-655293D01*
X841729Y-655293D02*
X832205Y-693389D01*
X832205Y-693389D02*
X822682Y-712436D01*
X822682Y-712436D02*
X813158Y-721960D01*
X813158Y-721960D02*
X794110Y-731484D01*
X794110Y-731484D02*
X775062Y-731484D01*
X775062Y-731484D02*
X756015Y-721960D01*
X756015Y-721960D02*
X746491Y-712436D01*
X746491Y-712436D02*
X736967Y-693389D01*
X736967Y-693389D02*
X727443Y-655293D01*
X727443Y-655293D02*
X727443Y-607674D01*
X727443Y-607674D02*
X736967Y-569579D01*
X736967Y-569579D02*
X746491Y-550531D01*
X746491Y-550531D02*
X756015Y-541008D01*
X756015Y-541008D02*
X775062Y-531484D01*
X965539Y-531484D02*
X984586Y-531484D01*
X984586Y-531484D02*
X1003634Y-541008D01*
X1003634Y-541008D02*
X1013158Y-550531D01*
X1013158Y-550531D02*
X1022682Y-569579D01*
X1022682Y-569579D02*
X1032205Y-607674D01*
X1032205Y-607674D02*
X1032205Y-655293D01*
X1032205Y-655293D02*
X1022682Y-693389D01*
X1022682Y-693389D02*
X1013158Y-712436D01*
X1013158Y-712436D02*
X1003634Y-721960D01*
X1003634Y-721960D02*
X984586Y-731484D01*
X984586Y-731484D02*
X965539Y-731484D01*
X965539Y-731484D02*
X946491Y-721960D01*
X946491Y-721960D02*
X936967Y-712436D01*
X936967Y-712436D02*
X927443Y-693389D01*
X927443Y-693389D02*
X917920Y-655293D01*
X917920Y-655293D02*
X917920Y-607674D01*
X917920Y-607674D02*
X927443Y-569579D01*
X927443Y-569579D02*
X936967Y-550531D01*
X936967Y-550531D02*
X946491Y-541008D01*
X946491Y-541008D02*
X965539Y-531484D01*
X1117920Y-731484D02*
X1117920Y-598150D01*
X1117920Y-617198D02*
X1127444Y-607674D01*
X1127444Y-607674D02*
X1146491Y-598150D01*
X1146491Y-598150D02*
X1175063Y-598150D01*
X1175063Y-598150D02*
X1194110Y-607674D01*
X1194110Y-607674D02*
X1203634Y-626722D01*
X1203634Y-626722D02*
X1203634Y-731484D01*
X1203634Y-626722D02*
X1213158Y-607674D01*
X1213158Y-607674D02*
X1232205Y-598150D01*
X1232205Y-598150D02*
X1260777Y-598150D01*
X1260777Y-598150D02*
X1279825Y-607674D01*
X1279825Y-607674D02*
X1289348Y-626722D01*
X1289348Y-626722D02*
X1289348Y-731484D01*
X1384586Y-731484D02*
X1384586Y-598150D01*
X1384586Y-617198D02*
X1394110Y-607674D01*
X1394110Y-607674D02*
X1413158Y-598150D01*
X1413158Y-598150D02*
X1441729Y-598150D01*
X1441729Y-598150D02*
X1460777Y-607674D01*
X1460777Y-607674D02*
X1470301Y-626722D01*
X1470301Y-626722D02*
X1470301Y-731484D01*
X1470301Y-626722D02*
X1479824Y-607674D01*
X1479824Y-607674D02*
X1498872Y-598150D01*
X1498872Y-598150D02*
X1527443Y-598150D01*
X1527443Y-598150D02*
X1546491Y-607674D01*
X1546491Y-607674D02*
X1556015Y-626722D01*
X1556015Y-626722D02*
X1556015Y-731484D01*
X1946491Y-521960D02*
X1775063Y-779103D01*
X2203634Y-531484D02*
X2222682Y-531484D01*
X2222682Y-531484D02*
X2241729Y-541008D01*
X2241729Y-541008D02*
X2251253Y-550531D01*
X2251253Y-550531D02*
X2260777Y-569579D01*
X2260777Y-569579D02*
X2270301Y-607674D01*
X2270301Y-607674D02*
X2270301Y-655293D01*
X2270301Y-655293D02*
X2260777Y-693389D01*
X2260777Y-693389D02*
X2251253Y-712436D01*
X2251253Y-712436D02*
X2241729Y-721960D01*
X2241729Y-721960D02*
X2222682Y-731484D01*
X2222682Y-731484D02*
X2203634Y-731484D01*
X2203634Y-731484D02*
X2184587Y-721960D01*
X2184587Y-721960D02*
X2175063Y-712436D01*
X2175063Y-712436D02*
X2165539Y-693389D01*
X2165539Y-693389D02*
X2156015Y-655293D01*
X2156015Y-655293D02*
X2156015Y-607674D01*
X2156015Y-607674D02*
X2165539Y-569579D01*
X2165539Y-569579D02*
X2175063Y-550531D01*
X2175063Y-550531D02*
X2184587Y-541008D01*
X2184587Y-541008D02*
X2203634Y-531484D01*
X2356015Y-712436D02*
X2365539Y-721960D01*
X2365539Y-721960D02*
X2356015Y-731484D01*
X2356015Y-731484D02*
X2346491Y-721960D01*
X2346491Y-721960D02*
X2356015Y-712436D01*
X2356015Y-712436D02*
X2356015Y-731484D01*
X2489348Y-531484D02*
X2508396Y-531484D01*
X2508396Y-531484D02*
X2527444Y-541008D01*
X2527444Y-541008D02*
X2536968Y-550531D01*
X2536968Y-550531D02*
X2546491Y-569579D01*
X2546491Y-569579D02*
X2556015Y-607674D01*
X2556015Y-607674D02*
X2556015Y-655293D01*
X2556015Y-655293D02*
X2546491Y-693389D01*
X2546491Y-693389D02*
X2536968Y-712436D01*
X2536968Y-712436D02*
X2527444Y-721960D01*
X2527444Y-721960D02*
X2508396Y-731484D01*
X2508396Y-731484D02*
X2489348Y-731484D01*
X2489348Y-731484D02*
X2470301Y-721960D01*
X2470301Y-721960D02*
X2460777Y-712436D01*
X2460777Y-712436D02*
X2451253Y-693389D01*
X2451253Y-693389D02*
X2441729Y-655293D01*
X2441729Y-655293D02*
X2441729Y-607674D01*
X2441729Y-607674D02*
X2451253Y-569579D01*
X2451253Y-569579D02*
X2460777Y-550531D01*
X2460777Y-550531D02*
X2470301Y-541008D01*
X2470301Y-541008D02*
X2489348Y-531484D01*
X2746491Y-731484D02*
X2632206Y-731484D01*
X2689348Y-731484D02*
X2689348Y-531484D01*
X2689348Y-531484D02*
X2670301Y-560055D01*
X2670301Y-560055D02*
X2651253Y-579103D01*
X2651253Y-579103D02*
X2632206Y-588627D01*
X2936967Y-731484D02*
X2822682Y-731484D01*
X2879825Y-731484D02*
X2879825Y-531484D01*
X2879825Y-531484D02*
X2860777Y-560055D01*
X2860777Y-560055D02*
X2841729Y-579103D01*
X2841729Y-579103D02*
X2822682Y-588627D01*
X3051253Y-617198D02*
X3032206Y-607674D01*
X3032206Y-607674D02*
X3022682Y-598150D01*
X3022682Y-598150D02*
X3013158Y-579103D01*
X3013158Y-579103D02*
X3013158Y-569579D01*
X3013158Y-569579D02*
X3022682Y-550531D01*
X3022682Y-550531D02*
X3032206Y-541008D01*
X3032206Y-541008D02*
X3051253Y-531484D01*
X3051253Y-531484D02*
X3089348Y-531484D01*
X3089348Y-531484D02*
X3108396Y-541008D01*
X3108396Y-541008D02*
X3117920Y-550531D01*
X3117920Y-550531D02*
X3127444Y-569579D01*
X3127444Y-569579D02*
X3127444Y-579103D01*
X3127444Y-579103D02*
X3117920Y-598150D01*
X3117920Y-598150D02*
X3108396Y-607674D01*
X3108396Y-607674D02*
X3089348Y-617198D01*
X3089348Y-617198D02*
X3051253Y-617198D01*
X3051253Y-617198D02*
X3032206Y-626722D01*
X3032206Y-626722D02*
X3022682Y-636246D01*
X3022682Y-636246D02*
X3013158Y-655293D01*
X3013158Y-655293D02*
X3013158Y-693389D01*
X3013158Y-693389D02*
X3022682Y-712436D01*
X3022682Y-712436D02*
X3032206Y-721960D01*
X3032206Y-721960D02*
X3051253Y-731484D01*
X3051253Y-731484D02*
X3089348Y-731484D01*
X3089348Y-731484D02*
X3108396Y-721960D01*
X3108396Y-721960D02*
X3117920Y-712436D01*
X3117920Y-712436D02*
X3127444Y-693389D01*
X3127444Y-693389D02*
X3127444Y-655293D01*
X3127444Y-655293D02*
X3117920Y-636246D01*
X3117920Y-636246D02*
X3108396Y-626722D01*
X3108396Y-626722D02*
X3089348Y-617198D01*
X3203634Y-531484D02*
X3203634Y-569579D01*
X3279825Y-531484D02*
X3279825Y-569579D01*
X3575063Y-807674D02*
X3565539Y-798150D01*
X3565539Y-798150D02*
X3546491Y-769579D01*
X3546491Y-769579D02*
X3536968Y-750531D01*
X3536968Y-750531D02*
X3527444Y-721960D01*
X3527444Y-721960D02*
X3517920Y-674341D01*
X3517920Y-674341D02*
X3517920Y-636246D01*
X3517920Y-636246D02*
X3527444Y-588627D01*
X3527444Y-588627D02*
X3536968Y-560055D01*
X3536968Y-560055D02*
X3546491Y-541008D01*
X3546491Y-541008D02*
X3565539Y-512436D01*
X3565539Y-512436D02*
X3575063Y-502912D01*
X3756015Y-731484D02*
X3641729Y-731484D01*
X3698872Y-731484D02*
X3698872Y-531484D01*
X3698872Y-531484D02*
X3679825Y-560055D01*
X3679825Y-560055D02*
X3660777Y-579103D01*
X3660777Y-579103D02*
X3641729Y-588627D01*
X3822682Y-531484D02*
X3946491Y-531484D01*
X3946491Y-531484D02*
X3879825Y-607674D01*
X3879825Y-607674D02*
X3908396Y-607674D01*
X3908396Y-607674D02*
X3927444Y-617198D01*
X3927444Y-617198D02*
X3936968Y-626722D01*
X3936968Y-626722D02*
X3946491Y-645770D01*
X3946491Y-645770D02*
X3946491Y-693389D01*
X3946491Y-693389D02*
X3936968Y-712436D01*
X3936968Y-712436D02*
X3927444Y-721960D01*
X3927444Y-721960D02*
X3908396Y-731484D01*
X3908396Y-731484D02*
X3851253Y-731484D01*
X3851253Y-731484D02*
X3832206Y-721960D01*
X3832206Y-721960D02*
X3822682Y-712436D01*
X4013158Y-531484D02*
X4136968Y-531484D01*
X4136968Y-531484D02*
X4070301Y-607674D01*
X4070301Y-607674D02*
X4098872Y-607674D01*
X4098872Y-607674D02*
X4117920Y-617198D01*
X4117920Y-617198D02*
X4127444Y-626722D01*
X4127444Y-626722D02*
X4136968Y-645770D01*
X4136968Y-645770D02*
X4136968Y-693389D01*
X4136968Y-693389D02*
X4127444Y-712436D01*
X4127444Y-712436D02*
X4117920Y-721960D01*
X4117920Y-721960D02*
X4098872Y-731484D01*
X4098872Y-731484D02*
X4041729Y-731484D01*
X4041729Y-731484D02*
X4022682Y-721960D01*
X4022682Y-721960D02*
X4013158Y-712436D01*
X4375063Y-731484D02*
X4375063Y-531484D01*
X4460777Y-731484D02*
X4460777Y-626722D01*
X4460777Y-626722D02*
X4451253Y-607674D01*
X4451253Y-607674D02*
X4432206Y-598150D01*
X4432206Y-598150D02*
X4403634Y-598150D01*
X4403634Y-598150D02*
X4384587Y-607674D01*
X4384587Y-607674D02*
X4375063Y-617198D01*
X4584587Y-731484D02*
X4565539Y-721960D01*
X4565539Y-721960D02*
X4556015Y-712436D01*
X4556015Y-712436D02*
X4546492Y-693389D01*
X4546492Y-693389D02*
X4546492Y-636246D01*
X4546492Y-636246D02*
X4556015Y-617198D01*
X4556015Y-617198D02*
X4565539Y-607674D01*
X4565539Y-607674D02*
X4584587Y-598150D01*
X4584587Y-598150D02*
X4613158Y-598150D01*
X4613158Y-598150D02*
X4632206Y-607674D01*
X4632206Y-607674D02*
X4641730Y-617198D01*
X4641730Y-617198D02*
X4651253Y-636246D01*
X4651253Y-636246D02*
X4651253Y-693389D01*
X4651253Y-693389D02*
X4641730Y-712436D01*
X4641730Y-712436D02*
X4632206Y-721960D01*
X4632206Y-721960D02*
X4613158Y-731484D01*
X4613158Y-731484D02*
X4584587Y-731484D01*
X4765539Y-731484D02*
X4746492Y-721960D01*
X4746492Y-721960D02*
X4736968Y-702912D01*
X4736968Y-702912D02*
X4736968Y-531484D01*
X4917920Y-721960D02*
X4898873Y-731484D01*
X4898873Y-731484D02*
X4860777Y-731484D01*
X4860777Y-731484D02*
X4841730Y-721960D01*
X4841730Y-721960D02*
X4832206Y-702912D01*
X4832206Y-702912D02*
X4832206Y-626722D01*
X4832206Y-626722D02*
X4841730Y-607674D01*
X4841730Y-607674D02*
X4860777Y-598150D01*
X4860777Y-598150D02*
X4898873Y-598150D01*
X4898873Y-598150D02*
X4917920Y-607674D01*
X4917920Y-607674D02*
X4927444Y-626722D01*
X4927444Y-626722D02*
X4927444Y-645770D01*
X4927444Y-645770D02*
X4832206Y-664817D01*
X5003634Y-721960D02*
X5022682Y-731484D01*
X5022682Y-731484D02*
X5060777Y-731484D01*
X5060777Y-731484D02*
X5079825Y-721960D01*
X5079825Y-721960D02*
X5089349Y-702912D01*
X5089349Y-702912D02*
X5089349Y-693389D01*
X5089349Y-693389D02*
X5079825Y-674341D01*
X5079825Y-674341D02*
X5060777Y-664817D01*
X5060777Y-664817D02*
X5032206Y-664817D01*
X5032206Y-664817D02*
X5013158Y-655293D01*
X5013158Y-655293D02*
X5003634Y-636246D01*
X5003634Y-636246D02*
X5003634Y-626722D01*
X5003634Y-626722D02*
X5013158Y-607674D01*
X5013158Y-607674D02*
X5032206Y-598150D01*
X5032206Y-598150D02*
X5060777Y-598150D01*
X5060777Y-598150D02*
X5079825Y-607674D01*
X5156015Y-807674D02*
X5165539Y-798150D01*
X5165539Y-798150D02*
X5184587Y-769579D01*
X5184587Y-769579D02*
X5194111Y-750531D01*
X5194111Y-750531D02*
X5203634Y-721960D01*
X5203634Y-721960D02*
X5213158Y-674341D01*
X5213158Y-674341D02*
X5213158Y-636246D01*
X5213158Y-636246D02*
X5203634Y-588627D01*
X5203634Y-588627D02*
X5194111Y-560055D01*
X5194111Y-560055D02*
X5184587Y-541008D01*
X5184587Y-541008D02*
X5165539Y-512436D01*
X5165539Y-512436D02*
X5156015Y-502912D01*
D11*
X0Y-904000D02*
G75*
G02*
X-60000Y-904000I-30000J0D01*
G01*
X-60000Y-904000D02*
G75*
G02*
X0Y-904000I30000J0D01*
G01*
D10*
X298872Y-795484D02*
X317920Y-795484D01*
X317920Y-795484D02*
X336967Y-805008D01*
X336967Y-805008D02*
X346491Y-814531D01*
X346491Y-814531D02*
X356015Y-833579D01*
X356015Y-833579D02*
X365539Y-871674D01*
X365539Y-871674D02*
X365539Y-919293D01*
X365539Y-919293D02*
X356015Y-957388D01*
X356015Y-957388D02*
X346491Y-976436D01*
X346491Y-976436D02*
X336967Y-985960D01*
X336967Y-985960D02*
X317920Y-995484D01*
X317920Y-995484D02*
X298872Y-995484D01*
X298872Y-995484D02*
X279824Y-985960D01*
X279824Y-985960D02*
X270301Y-976436D01*
X270301Y-976436D02*
X260777Y-957388D01*
X260777Y-957388D02*
X251253Y-919293D01*
X251253Y-919293D02*
X251253Y-871674D01*
X251253Y-871674D02*
X260777Y-833579D01*
X260777Y-833579D02*
X270301Y-814531D01*
X270301Y-814531D02*
X279824Y-805008D01*
X279824Y-805008D02*
X298872Y-795484D01*
X451253Y-976436D02*
X460777Y-985960D01*
X460777Y-985960D02*
X451253Y-995484D01*
X451253Y-995484D02*
X441729Y-985960D01*
X441729Y-985960D02*
X451253Y-976436D01*
X451253Y-976436D02*
X451253Y-995484D01*
X632205Y-795484D02*
X594110Y-795484D01*
X594110Y-795484D02*
X575063Y-805008D01*
X575063Y-805008D02*
X565539Y-814531D01*
X565539Y-814531D02*
X546491Y-843103D01*
X546491Y-843103D02*
X536967Y-881198D01*
X536967Y-881198D02*
X536967Y-957388D01*
X536967Y-957388D02*
X546491Y-976436D01*
X546491Y-976436D02*
X556015Y-985960D01*
X556015Y-985960D02*
X575063Y-995484D01*
X575063Y-995484D02*
X613158Y-995484D01*
X613158Y-995484D02*
X632205Y-985960D01*
X632205Y-985960D02*
X641729Y-976436D01*
X641729Y-976436D02*
X651253Y-957388D01*
X651253Y-957388D02*
X651253Y-909769D01*
X651253Y-909769D02*
X641729Y-890722D01*
X641729Y-890722D02*
X632205Y-881198D01*
X632205Y-881198D02*
X613158Y-871674D01*
X613158Y-871674D02*
X575063Y-871674D01*
X575063Y-871674D02*
X556015Y-881198D01*
X556015Y-881198D02*
X546491Y-890722D01*
X546491Y-890722D02*
X536967Y-909769D01*
X775062Y-795484D02*
X794110Y-795484D01*
X794110Y-795484D02*
X813158Y-805008D01*
X813158Y-805008D02*
X822682Y-814531D01*
X822682Y-814531D02*
X832205Y-833579D01*
X832205Y-833579D02*
X841729Y-871674D01*
X841729Y-871674D02*
X841729Y-919293D01*
X841729Y-919293D02*
X832205Y-957388D01*
X832205Y-957388D02*
X822682Y-976436D01*
X822682Y-976436D02*
X813158Y-985960D01*
X813158Y-985960D02*
X794110Y-995484D01*
X794110Y-995484D02*
X775062Y-995484D01*
X775062Y-995484D02*
X756015Y-985960D01*
X756015Y-985960D02*
X746491Y-976436D01*
X746491Y-976436D02*
X736967Y-957388D01*
X736967Y-957388D02*
X727443Y-919293D01*
X727443Y-919293D02*
X727443Y-871674D01*
X727443Y-871674D02*
X736967Y-833579D01*
X736967Y-833579D02*
X746491Y-814531D01*
X746491Y-814531D02*
X756015Y-805008D01*
X756015Y-805008D02*
X775062Y-795484D01*
X965539Y-795484D02*
X984586Y-795484D01*
X984586Y-795484D02*
X1003634Y-805008D01*
X1003634Y-805008D02*
X1013158Y-814531D01*
X1013158Y-814531D02*
X1022682Y-833579D01*
X1022682Y-833579D02*
X1032205Y-871674D01*
X1032205Y-871674D02*
X1032205Y-919293D01*
X1032205Y-919293D02*
X1022682Y-957388D01*
X1022682Y-957388D02*
X1013158Y-976436D01*
X1013158Y-976436D02*
X1003634Y-985960D01*
X1003634Y-985960D02*
X984586Y-995484D01*
X984586Y-995484D02*
X965539Y-995484D01*
X965539Y-995484D02*
X946491Y-985960D01*
X946491Y-985960D02*
X936967Y-976436D01*
X936967Y-976436D02*
X927443Y-957388D01*
X927443Y-957388D02*
X917920Y-919293D01*
X917920Y-919293D02*
X917920Y-871674D01*
X917920Y-871674D02*
X927443Y-833579D01*
X927443Y-833579D02*
X936967Y-814531D01*
X936967Y-814531D02*
X946491Y-805008D01*
X946491Y-805008D02*
X965539Y-795484D01*
X1117920Y-995484D02*
X1117920Y-862150D01*
X1117920Y-881198D02*
X1127444Y-871674D01*
X1127444Y-871674D02*
X1146491Y-862150D01*
X1146491Y-862150D02*
X1175063Y-862150D01*
X1175063Y-862150D02*
X1194110Y-871674D01*
X1194110Y-871674D02*
X1203634Y-890722D01*
X1203634Y-890722D02*
X1203634Y-995484D01*
X1203634Y-890722D02*
X1213158Y-871674D01*
X1213158Y-871674D02*
X1232205Y-862150D01*
X1232205Y-862150D02*
X1260777Y-862150D01*
X1260777Y-862150D02*
X1279825Y-871674D01*
X1279825Y-871674D02*
X1289348Y-890722D01*
X1289348Y-890722D02*
X1289348Y-995484D01*
X1384586Y-995484D02*
X1384586Y-862150D01*
X1384586Y-881198D02*
X1394110Y-871674D01*
X1394110Y-871674D02*
X1413158Y-862150D01*
X1413158Y-862150D02*
X1441729Y-862150D01*
X1441729Y-862150D02*
X1460777Y-871674D01*
X1460777Y-871674D02*
X1470301Y-890722D01*
X1470301Y-890722D02*
X1470301Y-995484D01*
X1470301Y-890722D02*
X1479824Y-871674D01*
X1479824Y-871674D02*
X1498872Y-862150D01*
X1498872Y-862150D02*
X1527443Y-862150D01*
X1527443Y-862150D02*
X1546491Y-871674D01*
X1546491Y-871674D02*
X1556015Y-890722D01*
X1556015Y-890722D02*
X1556015Y-995484D01*
X1946491Y-785960D02*
X1775063Y-1043103D01*
X2203634Y-795484D02*
X2222682Y-795484D01*
X2222682Y-795484D02*
X2241729Y-805008D01*
X2241729Y-805008D02*
X2251253Y-814531D01*
X2251253Y-814531D02*
X2260777Y-833579D01*
X2260777Y-833579D02*
X2270301Y-871674D01*
X2270301Y-871674D02*
X2270301Y-919293D01*
X2270301Y-919293D02*
X2260777Y-957388D01*
X2260777Y-957388D02*
X2251253Y-976436D01*
X2251253Y-976436D02*
X2241729Y-985960D01*
X2241729Y-985960D02*
X2222682Y-995484D01*
X2222682Y-995484D02*
X2203634Y-995484D01*
X2203634Y-995484D02*
X2184587Y-985960D01*
X2184587Y-985960D02*
X2175063Y-976436D01*
X2175063Y-976436D02*
X2165539Y-957388D01*
X2165539Y-957388D02*
X2156015Y-919293D01*
X2156015Y-919293D02*
X2156015Y-871674D01*
X2156015Y-871674D02*
X2165539Y-833579D01*
X2165539Y-833579D02*
X2175063Y-814531D01*
X2175063Y-814531D02*
X2184587Y-805008D01*
X2184587Y-805008D02*
X2203634Y-795484D01*
X2356015Y-976436D02*
X2365539Y-985960D01*
X2365539Y-985960D02*
X2356015Y-995484D01*
X2356015Y-995484D02*
X2346491Y-985960D01*
X2346491Y-985960D02*
X2356015Y-976436D01*
X2356015Y-976436D02*
X2356015Y-995484D01*
X2489348Y-795484D02*
X2508396Y-795484D01*
X2508396Y-795484D02*
X2527444Y-805008D01*
X2527444Y-805008D02*
X2536968Y-814531D01*
X2536968Y-814531D02*
X2546491Y-833579D01*
X2546491Y-833579D02*
X2556015Y-871674D01*
X2556015Y-871674D02*
X2556015Y-919293D01*
X2556015Y-919293D02*
X2546491Y-957388D01*
X2546491Y-957388D02*
X2536968Y-976436D01*
X2536968Y-976436D02*
X2527444Y-985960D01*
X2527444Y-985960D02*
X2508396Y-995484D01*
X2508396Y-995484D02*
X2489348Y-995484D01*
X2489348Y-995484D02*
X2470301Y-985960D01*
X2470301Y-985960D02*
X2460777Y-976436D01*
X2460777Y-976436D02*
X2451253Y-957388D01*
X2451253Y-957388D02*
X2441729Y-919293D01*
X2441729Y-919293D02*
X2441729Y-871674D01*
X2441729Y-871674D02*
X2451253Y-833579D01*
X2451253Y-833579D02*
X2460777Y-814531D01*
X2460777Y-814531D02*
X2470301Y-805008D01*
X2470301Y-805008D02*
X2489348Y-795484D01*
X2632206Y-814531D02*
X2641729Y-805008D01*
X2641729Y-805008D02*
X2660777Y-795484D01*
X2660777Y-795484D02*
X2708396Y-795484D01*
X2708396Y-795484D02*
X2727444Y-805008D01*
X2727444Y-805008D02*
X2736968Y-814531D01*
X2736968Y-814531D02*
X2746491Y-833579D01*
X2746491Y-833579D02*
X2746491Y-852627D01*
X2746491Y-852627D02*
X2736968Y-881198D01*
X2736968Y-881198D02*
X2622682Y-995484D01*
X2622682Y-995484D02*
X2746491Y-995484D01*
X2813158Y-795484D02*
X2936967Y-795484D01*
X2936967Y-795484D02*
X2870301Y-871674D01*
X2870301Y-871674D02*
X2898872Y-871674D01*
X2898872Y-871674D02*
X2917920Y-881198D01*
X2917920Y-881198D02*
X2927444Y-890722D01*
X2927444Y-890722D02*
X2936967Y-909769D01*
X2936967Y-909769D02*
X2936967Y-957388D01*
X2936967Y-957388D02*
X2927444Y-976436D01*
X2927444Y-976436D02*
X2917920Y-985960D01*
X2917920Y-985960D02*
X2898872Y-995484D01*
X2898872Y-995484D02*
X2841729Y-995484D01*
X2841729Y-995484D02*
X2822682Y-985960D01*
X2822682Y-985960D02*
X2813158Y-976436D01*
X3108396Y-795484D02*
X3070301Y-795484D01*
X3070301Y-795484D02*
X3051253Y-805008D01*
X3051253Y-805008D02*
X3041729Y-814531D01*
X3041729Y-814531D02*
X3022682Y-843103D01*
X3022682Y-843103D02*
X3013158Y-881198D01*
X3013158Y-881198D02*
X3013158Y-957388D01*
X3013158Y-957388D02*
X3022682Y-976436D01*
X3022682Y-976436D02*
X3032206Y-985960D01*
X3032206Y-985960D02*
X3051253Y-995484D01*
X3051253Y-995484D02*
X3089348Y-995484D01*
X3089348Y-995484D02*
X3108396Y-985960D01*
X3108396Y-985960D02*
X3117920Y-976436D01*
X3117920Y-976436D02*
X3127444Y-957388D01*
X3127444Y-957388D02*
X3127444Y-909769D01*
X3127444Y-909769D02*
X3117920Y-890722D01*
X3117920Y-890722D02*
X3108396Y-881198D01*
X3108396Y-881198D02*
X3089348Y-871674D01*
X3089348Y-871674D02*
X3051253Y-871674D01*
X3051253Y-871674D02*
X3032206Y-881198D01*
X3032206Y-881198D02*
X3022682Y-890722D01*
X3022682Y-890722D02*
X3013158Y-909769D01*
X3203634Y-795484D02*
X3203634Y-833579D01*
X3279825Y-795484D02*
X3279825Y-833579D01*
X3575063Y-1071674D02*
X3565539Y-1062150D01*
X3565539Y-1062150D02*
X3546491Y-1033579D01*
X3546491Y-1033579D02*
X3536968Y-1014531D01*
X3536968Y-1014531D02*
X3527444Y-985960D01*
X3527444Y-985960D02*
X3517920Y-938341D01*
X3517920Y-938341D02*
X3517920Y-900246D01*
X3517920Y-900246D02*
X3527444Y-852627D01*
X3527444Y-852627D02*
X3536968Y-824055D01*
X3536968Y-824055D02*
X3546491Y-805008D01*
X3546491Y-805008D02*
X3565539Y-776436D01*
X3565539Y-776436D02*
X3575063Y-766912D01*
X3756015Y-995484D02*
X3641729Y-995484D01*
X3698872Y-995484D02*
X3698872Y-795484D01*
X3698872Y-795484D02*
X3679825Y-824055D01*
X3679825Y-824055D02*
X3660777Y-843103D01*
X3660777Y-843103D02*
X3641729Y-852627D01*
X3927444Y-795484D02*
X3889348Y-795484D01*
X3889348Y-795484D02*
X3870301Y-805008D01*
X3870301Y-805008D02*
X3860777Y-814531D01*
X3860777Y-814531D02*
X3841729Y-843103D01*
X3841729Y-843103D02*
X3832206Y-881198D01*
X3832206Y-881198D02*
X3832206Y-957388D01*
X3832206Y-957388D02*
X3841729Y-976436D01*
X3841729Y-976436D02*
X3851253Y-985960D01*
X3851253Y-985960D02*
X3870301Y-995484D01*
X3870301Y-995484D02*
X3908396Y-995484D01*
X3908396Y-995484D02*
X3927444Y-985960D01*
X3927444Y-985960D02*
X3936968Y-976436D01*
X3936968Y-976436D02*
X3946491Y-957388D01*
X3946491Y-957388D02*
X3946491Y-909769D01*
X3946491Y-909769D02*
X3936968Y-890722D01*
X3936968Y-890722D02*
X3927444Y-881198D01*
X3927444Y-881198D02*
X3908396Y-871674D01*
X3908396Y-871674D02*
X3870301Y-871674D01*
X3870301Y-871674D02*
X3851253Y-881198D01*
X3851253Y-881198D02*
X3841729Y-890722D01*
X3841729Y-890722D02*
X3832206Y-909769D01*
X4184587Y-995484D02*
X4184587Y-795484D01*
X4270301Y-995484D02*
X4270301Y-890722D01*
X4270301Y-890722D02*
X4260777Y-871674D01*
X4260777Y-871674D02*
X4241730Y-862150D01*
X4241730Y-862150D02*
X4213158Y-862150D01*
X4213158Y-862150D02*
X4194110Y-871674D01*
X4194110Y-871674D02*
X4184587Y-881198D01*
X4394111Y-995484D02*
X4375063Y-985960D01*
X4375063Y-985960D02*
X4365539Y-976436D01*
X4365539Y-976436D02*
X4356015Y-957388D01*
X4356015Y-957388D02*
X4356015Y-900246D01*
X4356015Y-900246D02*
X4365539Y-881198D01*
X4365539Y-881198D02*
X4375063Y-871674D01*
X4375063Y-871674D02*
X4394111Y-862150D01*
X4394111Y-862150D02*
X4422682Y-862150D01*
X4422682Y-862150D02*
X4441730Y-871674D01*
X4441730Y-871674D02*
X4451253Y-881198D01*
X4451253Y-881198D02*
X4460777Y-900246D01*
X4460777Y-900246D02*
X4460777Y-957388D01*
X4460777Y-957388D02*
X4451253Y-976436D01*
X4451253Y-976436D02*
X4441730Y-985960D01*
X4441730Y-985960D02*
X4422682Y-995484D01*
X4422682Y-995484D02*
X4394111Y-995484D01*
X4575063Y-995484D02*
X4556015Y-985960D01*
X4556015Y-985960D02*
X4546492Y-966912D01*
X4546492Y-966912D02*
X4546492Y-795484D01*
X4727444Y-985960D02*
X4708396Y-995484D01*
X4708396Y-995484D02*
X4670301Y-995484D01*
X4670301Y-995484D02*
X4651253Y-985960D01*
X4651253Y-985960D02*
X4641730Y-966912D01*
X4641730Y-966912D02*
X4641730Y-890722D01*
X4641730Y-890722D02*
X4651253Y-871674D01*
X4651253Y-871674D02*
X4670301Y-862150D01*
X4670301Y-862150D02*
X4708396Y-862150D01*
X4708396Y-862150D02*
X4727444Y-871674D01*
X4727444Y-871674D02*
X4736968Y-890722D01*
X4736968Y-890722D02*
X4736968Y-909769D01*
X4736968Y-909769D02*
X4641730Y-928817D01*
X4813158Y-985960D02*
X4832206Y-995484D01*
X4832206Y-995484D02*
X4870301Y-995484D01*
X4870301Y-995484D02*
X4889349Y-985960D01*
X4889349Y-985960D02*
X4898873Y-966912D01*
X4898873Y-966912D02*
X4898873Y-957388D01*
X4898873Y-957388D02*
X4889349Y-938341D01*
X4889349Y-938341D02*
X4870301Y-928817D01*
X4870301Y-928817D02*
X4841730Y-928817D01*
X4841730Y-928817D02*
X4822682Y-919293D01*
X4822682Y-919293D02*
X4813158Y-900246D01*
X4813158Y-900246D02*
X4813158Y-890722D01*
X4813158Y-890722D02*
X4822682Y-871674D01*
X4822682Y-871674D02*
X4841730Y-862150D01*
X4841730Y-862150D02*
X4870301Y-862150D01*
X4870301Y-862150D02*
X4889349Y-871674D01*
X4965539Y-1071674D02*
X4975063Y-1062150D01*
X4975063Y-1062150D02*
X4994111Y-1033579D01*
X4994111Y-1033579D02*
X5003634Y-1014531D01*
X5003634Y-1014531D02*
X5013158Y-985960D01*
X5013158Y-985960D02*
X5022682Y-938341D01*
X5022682Y-938341D02*
X5022682Y-900246D01*
X5022682Y-900246D02*
X5013158Y-852627D01*
X5013158Y-852627D02*
X5003634Y-824055D01*
X5003634Y-824055D02*
X4994111Y-805008D01*
X4994111Y-805008D02*
X4975063Y-776436D01*
X4975063Y-776436D02*
X4965539Y-766912D01*
D11*
X-40000Y-1128000D02*
X-40000Y-1208000D01*
X-80000Y-1168000D02*
X0Y-1168000D01*
D10*
X298872Y-1059484D02*
X317920Y-1059484D01*
X317920Y-1059484D02*
X336967Y-1069008D01*
X336967Y-1069008D02*
X346491Y-1078531D01*
X346491Y-1078531D02*
X356015Y-1097579D01*
X356015Y-1097579D02*
X365539Y-1135674D01*
X365539Y-1135674D02*
X365539Y-1183293D01*
X365539Y-1183293D02*
X356015Y-1221389D01*
X356015Y-1221389D02*
X346491Y-1240436D01*
X346491Y-1240436D02*
X336967Y-1249960D01*
X336967Y-1249960D02*
X317920Y-1259484D01*
X317920Y-1259484D02*
X298872Y-1259484D01*
X298872Y-1259484D02*
X279824Y-1249960D01*
X279824Y-1249960D02*
X270301Y-1240436D01*
X270301Y-1240436D02*
X260777Y-1221389D01*
X260777Y-1221389D02*
X251253Y-1183293D01*
X251253Y-1183293D02*
X251253Y-1135674D01*
X251253Y-1135674D02*
X260777Y-1097579D01*
X260777Y-1097579D02*
X270301Y-1078531D01*
X270301Y-1078531D02*
X279824Y-1069008D01*
X279824Y-1069008D02*
X298872Y-1059484D01*
X451253Y-1240436D02*
X460777Y-1249960D01*
X460777Y-1249960D02*
X451253Y-1259484D01*
X451253Y-1259484D02*
X441729Y-1249960D01*
X441729Y-1249960D02*
X451253Y-1240436D01*
X451253Y-1240436D02*
X451253Y-1259484D01*
X575063Y-1145198D02*
X556015Y-1135674D01*
X556015Y-1135674D02*
X546491Y-1126150D01*
X546491Y-1126150D02*
X536967Y-1107103D01*
X536967Y-1107103D02*
X536967Y-1097579D01*
X536967Y-1097579D02*
X546491Y-1078531D01*
X546491Y-1078531D02*
X556015Y-1069008D01*
X556015Y-1069008D02*
X575063Y-1059484D01*
X575063Y-1059484D02*
X613158Y-1059484D01*
X613158Y-1059484D02*
X632205Y-1069008D01*
X632205Y-1069008D02*
X641729Y-1078531D01*
X641729Y-1078531D02*
X651253Y-1097579D01*
X651253Y-1097579D02*
X651253Y-1107103D01*
X651253Y-1107103D02*
X641729Y-1126150D01*
X641729Y-1126150D02*
X632205Y-1135674D01*
X632205Y-1135674D02*
X613158Y-1145198D01*
X613158Y-1145198D02*
X575063Y-1145198D01*
X575063Y-1145198D02*
X556015Y-1154722D01*
X556015Y-1154722D02*
X546491Y-1164246D01*
X546491Y-1164246D02*
X536967Y-1183293D01*
X536967Y-1183293D02*
X536967Y-1221389D01*
X536967Y-1221389D02*
X546491Y-1240436D01*
X546491Y-1240436D02*
X556015Y-1249960D01*
X556015Y-1249960D02*
X575063Y-1259484D01*
X575063Y-1259484D02*
X613158Y-1259484D01*
X613158Y-1259484D02*
X632205Y-1249960D01*
X632205Y-1249960D02*
X641729Y-1240436D01*
X641729Y-1240436D02*
X651253Y-1221389D01*
X651253Y-1221389D02*
X651253Y-1183293D01*
X651253Y-1183293D02*
X641729Y-1164246D01*
X641729Y-1164246D02*
X632205Y-1154722D01*
X632205Y-1154722D02*
X613158Y-1145198D01*
X775062Y-1059484D02*
X794110Y-1059484D01*
X794110Y-1059484D02*
X813158Y-1069008D01*
X813158Y-1069008D02*
X822682Y-1078531D01*
X822682Y-1078531D02*
X832205Y-1097579D01*
X832205Y-1097579D02*
X841729Y-1135674D01*
X841729Y-1135674D02*
X841729Y-1183293D01*
X841729Y-1183293D02*
X832205Y-1221389D01*
X832205Y-1221389D02*
X822682Y-1240436D01*
X822682Y-1240436D02*
X813158Y-1249960D01*
X813158Y-1249960D02*
X794110Y-1259484D01*
X794110Y-1259484D02*
X775062Y-1259484D01*
X775062Y-1259484D02*
X756015Y-1249960D01*
X756015Y-1249960D02*
X746491Y-1240436D01*
X746491Y-1240436D02*
X736967Y-1221389D01*
X736967Y-1221389D02*
X727443Y-1183293D01*
X727443Y-1183293D02*
X727443Y-1135674D01*
X727443Y-1135674D02*
X736967Y-1097579D01*
X736967Y-1097579D02*
X746491Y-1078531D01*
X746491Y-1078531D02*
X756015Y-1069008D01*
X756015Y-1069008D02*
X775062Y-1059484D01*
X965539Y-1059484D02*
X984586Y-1059484D01*
X984586Y-1059484D02*
X1003634Y-1069008D01*
X1003634Y-1069008D02*
X1013158Y-1078531D01*
X1013158Y-1078531D02*
X1022682Y-1097579D01*
X1022682Y-1097579D02*
X1032205Y-1135674D01*
X1032205Y-1135674D02*
X1032205Y-1183293D01*
X1032205Y-1183293D02*
X1022682Y-1221389D01*
X1022682Y-1221389D02*
X1013158Y-1240436D01*
X1013158Y-1240436D02*
X1003634Y-1249960D01*
X1003634Y-1249960D02*
X984586Y-1259484D01*
X984586Y-1259484D02*
X965539Y-1259484D01*
X965539Y-1259484D02*
X946491Y-1249960D01*
X946491Y-1249960D02*
X936967Y-1240436D01*
X936967Y-1240436D02*
X927443Y-1221389D01*
X927443Y-1221389D02*
X917920Y-1183293D01*
X917920Y-1183293D02*
X917920Y-1135674D01*
X917920Y-1135674D02*
X927443Y-1097579D01*
X927443Y-1097579D02*
X936967Y-1078531D01*
X936967Y-1078531D02*
X946491Y-1069008D01*
X946491Y-1069008D02*
X965539Y-1059484D01*
X1117920Y-1259484D02*
X1117920Y-1126150D01*
X1117920Y-1145198D02*
X1127444Y-1135674D01*
X1127444Y-1135674D02*
X1146491Y-1126150D01*
X1146491Y-1126150D02*
X1175063Y-1126150D01*
X1175063Y-1126150D02*
X1194110Y-1135674D01*
X1194110Y-1135674D02*
X1203634Y-1154722D01*
X1203634Y-1154722D02*
X1203634Y-1259484D01*
X1203634Y-1154722D02*
X1213158Y-1135674D01*
X1213158Y-1135674D02*
X1232205Y-1126150D01*
X1232205Y-1126150D02*
X1260777Y-1126150D01*
X1260777Y-1126150D02*
X1279825Y-1135674D01*
X1279825Y-1135674D02*
X1289348Y-1154722D01*
X1289348Y-1154722D02*
X1289348Y-1259484D01*
X1384586Y-1259484D02*
X1384586Y-1126150D01*
X1384586Y-1145198D02*
X1394110Y-1135674D01*
X1394110Y-1135674D02*
X1413158Y-1126150D01*
X1413158Y-1126150D02*
X1441729Y-1126150D01*
X1441729Y-1126150D02*
X1460777Y-1135674D01*
X1460777Y-1135674D02*
X1470301Y-1154722D01*
X1470301Y-1154722D02*
X1470301Y-1259484D01*
X1470301Y-1154722D02*
X1479824Y-1135674D01*
X1479824Y-1135674D02*
X1498872Y-1126150D01*
X1498872Y-1126150D02*
X1527443Y-1126150D01*
X1527443Y-1126150D02*
X1546491Y-1135674D01*
X1546491Y-1135674D02*
X1556015Y-1154722D01*
X1556015Y-1154722D02*
X1556015Y-1259484D01*
X1946491Y-1049960D02*
X1775063Y-1307103D01*
X2203634Y-1059484D02*
X2222682Y-1059484D01*
X2222682Y-1059484D02*
X2241729Y-1069008D01*
X2241729Y-1069008D02*
X2251253Y-1078531D01*
X2251253Y-1078531D02*
X2260777Y-1097579D01*
X2260777Y-1097579D02*
X2270301Y-1135674D01*
X2270301Y-1135674D02*
X2270301Y-1183293D01*
X2270301Y-1183293D02*
X2260777Y-1221389D01*
X2260777Y-1221389D02*
X2251253Y-1240436D01*
X2251253Y-1240436D02*
X2241729Y-1249960D01*
X2241729Y-1249960D02*
X2222682Y-1259484D01*
X2222682Y-1259484D02*
X2203634Y-1259484D01*
X2203634Y-1259484D02*
X2184587Y-1249960D01*
X2184587Y-1249960D02*
X2175063Y-1240436D01*
X2175063Y-1240436D02*
X2165539Y-1221389D01*
X2165539Y-1221389D02*
X2156015Y-1183293D01*
X2156015Y-1183293D02*
X2156015Y-1135674D01*
X2156015Y-1135674D02*
X2165539Y-1097579D01*
X2165539Y-1097579D02*
X2175063Y-1078531D01*
X2175063Y-1078531D02*
X2184587Y-1069008D01*
X2184587Y-1069008D02*
X2203634Y-1059484D01*
X2356015Y-1240436D02*
X2365539Y-1249960D01*
X2365539Y-1249960D02*
X2356015Y-1259484D01*
X2356015Y-1259484D02*
X2346491Y-1249960D01*
X2346491Y-1249960D02*
X2356015Y-1240436D01*
X2356015Y-1240436D02*
X2356015Y-1259484D01*
X2489348Y-1059484D02*
X2508396Y-1059484D01*
X2508396Y-1059484D02*
X2527444Y-1069008D01*
X2527444Y-1069008D02*
X2536968Y-1078531D01*
X2536968Y-1078531D02*
X2546491Y-1097579D01*
X2546491Y-1097579D02*
X2556015Y-1135674D01*
X2556015Y-1135674D02*
X2556015Y-1183293D01*
X2556015Y-1183293D02*
X2546491Y-1221389D01*
X2546491Y-1221389D02*
X2536968Y-1240436D01*
X2536968Y-1240436D02*
X2527444Y-1249960D01*
X2527444Y-1249960D02*
X2508396Y-1259484D01*
X2508396Y-1259484D02*
X2489348Y-1259484D01*
X2489348Y-1259484D02*
X2470301Y-1249960D01*
X2470301Y-1249960D02*
X2460777Y-1240436D01*
X2460777Y-1240436D02*
X2451253Y-1221389D01*
X2451253Y-1221389D02*
X2441729Y-1183293D01*
X2441729Y-1183293D02*
X2441729Y-1135674D01*
X2441729Y-1135674D02*
X2451253Y-1097579D01*
X2451253Y-1097579D02*
X2460777Y-1078531D01*
X2460777Y-1078531D02*
X2470301Y-1069008D01*
X2470301Y-1069008D02*
X2489348Y-1059484D01*
X2622682Y-1059484D02*
X2746491Y-1059484D01*
X2746491Y-1059484D02*
X2679825Y-1135674D01*
X2679825Y-1135674D02*
X2708396Y-1135674D01*
X2708396Y-1135674D02*
X2727444Y-1145198D01*
X2727444Y-1145198D02*
X2736968Y-1154722D01*
X2736968Y-1154722D02*
X2746491Y-1173770D01*
X2746491Y-1173770D02*
X2746491Y-1221389D01*
X2746491Y-1221389D02*
X2736968Y-1240436D01*
X2736968Y-1240436D02*
X2727444Y-1249960D01*
X2727444Y-1249960D02*
X2708396Y-1259484D01*
X2708396Y-1259484D02*
X2651253Y-1259484D01*
X2651253Y-1259484D02*
X2632206Y-1249960D01*
X2632206Y-1249960D02*
X2622682Y-1240436D01*
X2936967Y-1259484D02*
X2822682Y-1259484D01*
X2879825Y-1259484D02*
X2879825Y-1059484D01*
X2879825Y-1059484D02*
X2860777Y-1088055D01*
X2860777Y-1088055D02*
X2841729Y-1107103D01*
X2841729Y-1107103D02*
X2822682Y-1116627D01*
X3117920Y-1059484D02*
X3022682Y-1059484D01*
X3022682Y-1059484D02*
X3013158Y-1154722D01*
X3013158Y-1154722D02*
X3022682Y-1145198D01*
X3022682Y-1145198D02*
X3041729Y-1135674D01*
X3041729Y-1135674D02*
X3089348Y-1135674D01*
X3089348Y-1135674D02*
X3108396Y-1145198D01*
X3108396Y-1145198D02*
X3117920Y-1154722D01*
X3117920Y-1154722D02*
X3127444Y-1173770D01*
X3127444Y-1173770D02*
X3127444Y-1221389D01*
X3127444Y-1221389D02*
X3117920Y-1240436D01*
X3117920Y-1240436D02*
X3108396Y-1249960D01*
X3108396Y-1249960D02*
X3089348Y-1259484D01*
X3089348Y-1259484D02*
X3041729Y-1259484D01*
X3041729Y-1259484D02*
X3022682Y-1249960D01*
X3022682Y-1249960D02*
X3013158Y-1240436D01*
X3203634Y-1059484D02*
X3203634Y-1097579D01*
X3279825Y-1059484D02*
X3279825Y-1097579D01*
X3575063Y-1335674D02*
X3565539Y-1326150D01*
X3565539Y-1326150D02*
X3546491Y-1297579D01*
X3546491Y-1297579D02*
X3536968Y-1278531D01*
X3536968Y-1278531D02*
X3527444Y-1249960D01*
X3527444Y-1249960D02*
X3517920Y-1202341D01*
X3517920Y-1202341D02*
X3517920Y-1164246D01*
X3517920Y-1164246D02*
X3527444Y-1116627D01*
X3527444Y-1116627D02*
X3536968Y-1088055D01*
X3536968Y-1088055D02*
X3546491Y-1069008D01*
X3546491Y-1069008D02*
X3565539Y-1040436D01*
X3565539Y-1040436D02*
X3575063Y-1030912D01*
X3756015Y-1259484D02*
X3641729Y-1259484D01*
X3698872Y-1259484D02*
X3698872Y-1059484D01*
X3698872Y-1059484D02*
X3679825Y-1088055D01*
X3679825Y-1088055D02*
X3660777Y-1107103D01*
X3660777Y-1107103D02*
X3641729Y-1116627D01*
X3870301Y-1145198D02*
X3851253Y-1135674D01*
X3851253Y-1135674D02*
X3841729Y-1126150D01*
X3841729Y-1126150D02*
X3832206Y-1107103D01*
X3832206Y-1107103D02*
X3832206Y-1097579D01*
X3832206Y-1097579D02*
X3841729Y-1078531D01*
X3841729Y-1078531D02*
X3851253Y-1069008D01*
X3851253Y-1069008D02*
X3870301Y-1059484D01*
X3870301Y-1059484D02*
X3908396Y-1059484D01*
X3908396Y-1059484D02*
X3927444Y-1069008D01*
X3927444Y-1069008D02*
X3936968Y-1078531D01*
X3936968Y-1078531D02*
X3946491Y-1097579D01*
X3946491Y-1097579D02*
X3946491Y-1107103D01*
X3946491Y-1107103D02*
X3936968Y-1126150D01*
X3936968Y-1126150D02*
X3927444Y-1135674D01*
X3927444Y-1135674D02*
X3908396Y-1145198D01*
X3908396Y-1145198D02*
X3870301Y-1145198D01*
X3870301Y-1145198D02*
X3851253Y-1154722D01*
X3851253Y-1154722D02*
X3841729Y-1164246D01*
X3841729Y-1164246D02*
X3832206Y-1183293D01*
X3832206Y-1183293D02*
X3832206Y-1221389D01*
X3832206Y-1221389D02*
X3841729Y-1240436D01*
X3841729Y-1240436D02*
X3851253Y-1249960D01*
X3851253Y-1249960D02*
X3870301Y-1259484D01*
X3870301Y-1259484D02*
X3908396Y-1259484D01*
X3908396Y-1259484D02*
X3927444Y-1249960D01*
X3927444Y-1249960D02*
X3936968Y-1240436D01*
X3936968Y-1240436D02*
X3946491Y-1221389D01*
X3946491Y-1221389D02*
X3946491Y-1183293D01*
X3946491Y-1183293D02*
X3936968Y-1164246D01*
X3936968Y-1164246D02*
X3927444Y-1154722D01*
X3927444Y-1154722D02*
X3908396Y-1145198D01*
X4184587Y-1259484D02*
X4184587Y-1059484D01*
X4270301Y-1259484D02*
X4270301Y-1154722D01*
X4270301Y-1154722D02*
X4260777Y-1135674D01*
X4260777Y-1135674D02*
X4241730Y-1126150D01*
X4241730Y-1126150D02*
X4213158Y-1126150D01*
X4213158Y-1126150D02*
X4194110Y-1135674D01*
X4194110Y-1135674D02*
X4184587Y-1145198D01*
X4394111Y-1259484D02*
X4375063Y-1249960D01*
X4375063Y-1249960D02*
X4365539Y-1240436D01*
X4365539Y-1240436D02*
X4356015Y-1221389D01*
X4356015Y-1221389D02*
X4356015Y-1164246D01*
X4356015Y-1164246D02*
X4365539Y-1145198D01*
X4365539Y-1145198D02*
X4375063Y-1135674D01*
X4375063Y-1135674D02*
X4394111Y-1126150D01*
X4394111Y-1126150D02*
X4422682Y-1126150D01*
X4422682Y-1126150D02*
X4441730Y-1135674D01*
X4441730Y-1135674D02*
X4451253Y-1145198D01*
X4451253Y-1145198D02*
X4460777Y-1164246D01*
X4460777Y-1164246D02*
X4460777Y-1221389D01*
X4460777Y-1221389D02*
X4451253Y-1240436D01*
X4451253Y-1240436D02*
X4441730Y-1249960D01*
X4441730Y-1249960D02*
X4422682Y-1259484D01*
X4422682Y-1259484D02*
X4394111Y-1259484D01*
X4575063Y-1259484D02*
X4556015Y-1249960D01*
X4556015Y-1249960D02*
X4546492Y-1230912D01*
X4546492Y-1230912D02*
X4546492Y-1059484D01*
X4727444Y-1249960D02*
X4708396Y-1259484D01*
X4708396Y-1259484D02*
X4670301Y-1259484D01*
X4670301Y-1259484D02*
X4651253Y-1249960D01*
X4651253Y-1249960D02*
X4641730Y-1230912D01*
X4641730Y-1230912D02*
X4641730Y-1154722D01*
X4641730Y-1154722D02*
X4651253Y-1135674D01*
X4651253Y-1135674D02*
X4670301Y-1126150D01*
X4670301Y-1126150D02*
X4708396Y-1126150D01*
X4708396Y-1126150D02*
X4727444Y-1135674D01*
X4727444Y-1135674D02*
X4736968Y-1154722D01*
X4736968Y-1154722D02*
X4736968Y-1173770D01*
X4736968Y-1173770D02*
X4641730Y-1192817D01*
X4813158Y-1249960D02*
X4832206Y-1259484D01*
X4832206Y-1259484D02*
X4870301Y-1259484D01*
X4870301Y-1259484D02*
X4889349Y-1249960D01*
X4889349Y-1249960D02*
X4898873Y-1230912D01*
X4898873Y-1230912D02*
X4898873Y-1221389D01*
X4898873Y-1221389D02*
X4889349Y-1202341D01*
X4889349Y-1202341D02*
X4870301Y-1192817D01*
X4870301Y-1192817D02*
X4841730Y-1192817D01*
X4841730Y-1192817D02*
X4822682Y-1183293D01*
X4822682Y-1183293D02*
X4813158Y-1164246D01*
X4813158Y-1164246D02*
X4813158Y-1154722D01*
X4813158Y-1154722D02*
X4822682Y-1135674D01*
X4822682Y-1135674D02*
X4841730Y-1126150D01*
X4841730Y-1126150D02*
X4870301Y-1126150D01*
X4870301Y-1126150D02*
X4889349Y-1135674D01*
X4965539Y-1335674D02*
X4975063Y-1326150D01*
X4975063Y-1326150D02*
X4994111Y-1297579D01*
X4994111Y-1297579D02*
X5003634Y-1278531D01*
X5003634Y-1278531D02*
X5013158Y-1249960D01*
X5013158Y-1249960D02*
X5022682Y-1202341D01*
X5022682Y-1202341D02*
X5022682Y-1164246D01*
X5022682Y-1164246D02*
X5013158Y-1116627D01*
X5013158Y-1116627D02*
X5003634Y-1088055D01*
X5003634Y-1088055D02*
X4994111Y-1069008D01*
X4994111Y-1069008D02*
X4975063Y-1040436D01*
X4975063Y-1040436D02*
X4965539Y-1030912D01*
D11*
X-14644Y-1467356D02*
X-14644Y-1396644D01*
X-85356Y-1396644D01*
X-85356Y-1467356D01*
X-14644Y-1467356D01*
D10*
X365539Y-1523484D02*
X251253Y-1523484D01*
X308396Y-1523484D02*
X308396Y-1323484D01*
X308396Y-1323484D02*
X289348Y-1352055D01*
X289348Y-1352055D02*
X270301Y-1371103D01*
X270301Y-1371103D02*
X251253Y-1380627D01*
X451253Y-1504436D02*
X460777Y-1513960D01*
X460777Y-1513960D02*
X451253Y-1523484D01*
X451253Y-1523484D02*
X441729Y-1513960D01*
X441729Y-1513960D02*
X451253Y-1504436D01*
X451253Y-1504436D02*
X451253Y-1523484D01*
X584586Y-1323484D02*
X603634Y-1323484D01*
X603634Y-1323484D02*
X622682Y-1333008D01*
X622682Y-1333008D02*
X632205Y-1342531D01*
X632205Y-1342531D02*
X641729Y-1361579D01*
X641729Y-1361579D02*
X651253Y-1399674D01*
X651253Y-1399674D02*
X651253Y-1447293D01*
X651253Y-1447293D02*
X641729Y-1485388D01*
X641729Y-1485388D02*
X632205Y-1504436D01*
X632205Y-1504436D02*
X622682Y-1513960D01*
X622682Y-1513960D02*
X603634Y-1523484D01*
X603634Y-1523484D02*
X584586Y-1523484D01*
X584586Y-1523484D02*
X565539Y-1513960D01*
X565539Y-1513960D02*
X556015Y-1504436D01*
X556015Y-1504436D02*
X546491Y-1485388D01*
X546491Y-1485388D02*
X536967Y-1447293D01*
X536967Y-1447293D02*
X536967Y-1399674D01*
X536967Y-1399674D02*
X546491Y-1361579D01*
X546491Y-1361579D02*
X556015Y-1342531D01*
X556015Y-1342531D02*
X565539Y-1333008D01*
X565539Y-1333008D02*
X584586Y-1323484D01*
X775062Y-1323484D02*
X794110Y-1323484D01*
X794110Y-1323484D02*
X813158Y-1333008D01*
X813158Y-1333008D02*
X822682Y-1342531D01*
X822682Y-1342531D02*
X832205Y-1361579D01*
X832205Y-1361579D02*
X841729Y-1399674D01*
X841729Y-1399674D02*
X841729Y-1447293D01*
X841729Y-1447293D02*
X832205Y-1485388D01*
X832205Y-1485388D02*
X822682Y-1504436D01*
X822682Y-1504436D02*
X813158Y-1513960D01*
X813158Y-1513960D02*
X794110Y-1523484D01*
X794110Y-1523484D02*
X775062Y-1523484D01*
X775062Y-1523484D02*
X756015Y-1513960D01*
X756015Y-1513960D02*
X746491Y-1504436D01*
X746491Y-1504436D02*
X736967Y-1485388D01*
X736967Y-1485388D02*
X727443Y-1447293D01*
X727443Y-1447293D02*
X727443Y-1399674D01*
X727443Y-1399674D02*
X736967Y-1361579D01*
X736967Y-1361579D02*
X746491Y-1342531D01*
X746491Y-1342531D02*
X756015Y-1333008D01*
X756015Y-1333008D02*
X775062Y-1323484D01*
X965539Y-1323484D02*
X984586Y-1323484D01*
X984586Y-1323484D02*
X1003634Y-1333008D01*
X1003634Y-1333008D02*
X1013158Y-1342531D01*
X1013158Y-1342531D02*
X1022682Y-1361579D01*
X1022682Y-1361579D02*
X1032205Y-1399674D01*
X1032205Y-1399674D02*
X1032205Y-1447293D01*
X1032205Y-1447293D02*
X1022682Y-1485388D01*
X1022682Y-1485388D02*
X1013158Y-1504436D01*
X1013158Y-1504436D02*
X1003634Y-1513960D01*
X1003634Y-1513960D02*
X984586Y-1523484D01*
X984586Y-1523484D02*
X965539Y-1523484D01*
X965539Y-1523484D02*
X946491Y-1513960D01*
X946491Y-1513960D02*
X936967Y-1504436D01*
X936967Y-1504436D02*
X927443Y-1485388D01*
X927443Y-1485388D02*
X917920Y-1447293D01*
X917920Y-1447293D02*
X917920Y-1399674D01*
X917920Y-1399674D02*
X927443Y-1361579D01*
X927443Y-1361579D02*
X936967Y-1342531D01*
X936967Y-1342531D02*
X946491Y-1333008D01*
X946491Y-1333008D02*
X965539Y-1323484D01*
X1117920Y-1523484D02*
X1117920Y-1390150D01*
X1117920Y-1409198D02*
X1127444Y-1399674D01*
X1127444Y-1399674D02*
X1146491Y-1390150D01*
X1146491Y-1390150D02*
X1175063Y-1390150D01*
X1175063Y-1390150D02*
X1194110Y-1399674D01*
X1194110Y-1399674D02*
X1203634Y-1418722D01*
X1203634Y-1418722D02*
X1203634Y-1523484D01*
X1203634Y-1418722D02*
X1213158Y-1399674D01*
X1213158Y-1399674D02*
X1232205Y-1390150D01*
X1232205Y-1390150D02*
X1260777Y-1390150D01*
X1260777Y-1390150D02*
X1279825Y-1399674D01*
X1279825Y-1399674D02*
X1289348Y-1418722D01*
X1289348Y-1418722D02*
X1289348Y-1523484D01*
X1384586Y-1523484D02*
X1384586Y-1390150D01*
X1384586Y-1409198D02*
X1394110Y-1399674D01*
X1394110Y-1399674D02*
X1413158Y-1390150D01*
X1413158Y-1390150D02*
X1441729Y-1390150D01*
X1441729Y-1390150D02*
X1460777Y-1399674D01*
X1460777Y-1399674D02*
X1470301Y-1418722D01*
X1470301Y-1418722D02*
X1470301Y-1523484D01*
X1470301Y-1418722D02*
X1479824Y-1399674D01*
X1479824Y-1399674D02*
X1498872Y-1390150D01*
X1498872Y-1390150D02*
X1527443Y-1390150D01*
X1527443Y-1390150D02*
X1546491Y-1399674D01*
X1546491Y-1399674D02*
X1556015Y-1418722D01*
X1556015Y-1418722D02*
X1556015Y-1523484D01*
X1946491Y-1313960D02*
X1775063Y-1571103D01*
X2203634Y-1323484D02*
X2222682Y-1323484D01*
X2222682Y-1323484D02*
X2241729Y-1333008D01*
X2241729Y-1333008D02*
X2251253Y-1342531D01*
X2251253Y-1342531D02*
X2260777Y-1361579D01*
X2260777Y-1361579D02*
X2270301Y-1399674D01*
X2270301Y-1399674D02*
X2270301Y-1447293D01*
X2270301Y-1447293D02*
X2260777Y-1485388D01*
X2260777Y-1485388D02*
X2251253Y-1504436D01*
X2251253Y-1504436D02*
X2241729Y-1513960D01*
X2241729Y-1513960D02*
X2222682Y-1523484D01*
X2222682Y-1523484D02*
X2203634Y-1523484D01*
X2203634Y-1523484D02*
X2184587Y-1513960D01*
X2184587Y-1513960D02*
X2175063Y-1504436D01*
X2175063Y-1504436D02*
X2165539Y-1485388D01*
X2165539Y-1485388D02*
X2156015Y-1447293D01*
X2156015Y-1447293D02*
X2156015Y-1399674D01*
X2156015Y-1399674D02*
X2165539Y-1361579D01*
X2165539Y-1361579D02*
X2175063Y-1342531D01*
X2175063Y-1342531D02*
X2184587Y-1333008D01*
X2184587Y-1333008D02*
X2203634Y-1323484D01*
X2356015Y-1504436D02*
X2365539Y-1513960D01*
X2365539Y-1513960D02*
X2356015Y-1523484D01*
X2356015Y-1523484D02*
X2346491Y-1513960D01*
X2346491Y-1513960D02*
X2356015Y-1504436D01*
X2356015Y-1504436D02*
X2356015Y-1523484D01*
X2489348Y-1323484D02*
X2508396Y-1323484D01*
X2508396Y-1323484D02*
X2527444Y-1333008D01*
X2527444Y-1333008D02*
X2536968Y-1342531D01*
X2536968Y-1342531D02*
X2546491Y-1361579D01*
X2546491Y-1361579D02*
X2556015Y-1399674D01*
X2556015Y-1399674D02*
X2556015Y-1447293D01*
X2556015Y-1447293D02*
X2546491Y-1485388D01*
X2546491Y-1485388D02*
X2536968Y-1504436D01*
X2536968Y-1504436D02*
X2527444Y-1513960D01*
X2527444Y-1513960D02*
X2508396Y-1523484D01*
X2508396Y-1523484D02*
X2489348Y-1523484D01*
X2489348Y-1523484D02*
X2470301Y-1513960D01*
X2470301Y-1513960D02*
X2460777Y-1504436D01*
X2460777Y-1504436D02*
X2451253Y-1485388D01*
X2451253Y-1485388D02*
X2441729Y-1447293D01*
X2441729Y-1447293D02*
X2441729Y-1399674D01*
X2441729Y-1399674D02*
X2451253Y-1361579D01*
X2451253Y-1361579D02*
X2460777Y-1342531D01*
X2460777Y-1342531D02*
X2470301Y-1333008D01*
X2470301Y-1333008D02*
X2489348Y-1323484D01*
X2622682Y-1323484D02*
X2746491Y-1323484D01*
X2746491Y-1323484D02*
X2679825Y-1399674D01*
X2679825Y-1399674D02*
X2708396Y-1399674D01*
X2708396Y-1399674D02*
X2727444Y-1409198D01*
X2727444Y-1409198D02*
X2736968Y-1418722D01*
X2736968Y-1418722D02*
X2746491Y-1437769D01*
X2746491Y-1437769D02*
X2746491Y-1485388D01*
X2746491Y-1485388D02*
X2736968Y-1504436D01*
X2736968Y-1504436D02*
X2727444Y-1513960D01*
X2727444Y-1513960D02*
X2708396Y-1523484D01*
X2708396Y-1523484D02*
X2651253Y-1523484D01*
X2651253Y-1523484D02*
X2632206Y-1513960D01*
X2632206Y-1513960D02*
X2622682Y-1504436D01*
X2841729Y-1523484D02*
X2879825Y-1523484D01*
X2879825Y-1523484D02*
X2898872Y-1513960D01*
X2898872Y-1513960D02*
X2908396Y-1504436D01*
X2908396Y-1504436D02*
X2927444Y-1475865D01*
X2927444Y-1475865D02*
X2936967Y-1437769D01*
X2936967Y-1437769D02*
X2936967Y-1361579D01*
X2936967Y-1361579D02*
X2927444Y-1342531D01*
X2927444Y-1342531D02*
X2917920Y-1333008D01*
X2917920Y-1333008D02*
X2898872Y-1323484D01*
X2898872Y-1323484D02*
X2860777Y-1323484D01*
X2860777Y-1323484D02*
X2841729Y-1333008D01*
X2841729Y-1333008D02*
X2832206Y-1342531D01*
X2832206Y-1342531D02*
X2822682Y-1361579D01*
X2822682Y-1361579D02*
X2822682Y-1409198D01*
X2822682Y-1409198D02*
X2832206Y-1428246D01*
X2832206Y-1428246D02*
X2841729Y-1437769D01*
X2841729Y-1437769D02*
X2860777Y-1447293D01*
X2860777Y-1447293D02*
X2898872Y-1447293D01*
X2898872Y-1447293D02*
X2917920Y-1437769D01*
X2917920Y-1437769D02*
X2927444Y-1428246D01*
X2927444Y-1428246D02*
X2936967Y-1409198D01*
X3108396Y-1390150D02*
X3108396Y-1523484D01*
X3060777Y-1313960D02*
X3013158Y-1456817D01*
X3013158Y-1456817D02*
X3136967Y-1456817D01*
X3203634Y-1323484D02*
X3203634Y-1361579D01*
X3279825Y-1323484D02*
X3279825Y-1361579D01*
X3575063Y-1599674D02*
X3565539Y-1590150D01*
X3565539Y-1590150D02*
X3546491Y-1561579D01*
X3546491Y-1561579D02*
X3536968Y-1542531D01*
X3536968Y-1542531D02*
X3527444Y-1513960D01*
X3527444Y-1513960D02*
X3517920Y-1466341D01*
X3517920Y-1466341D02*
X3517920Y-1428246D01*
X3517920Y-1428246D02*
X3527444Y-1380627D01*
X3527444Y-1380627D02*
X3536968Y-1352055D01*
X3536968Y-1352055D02*
X3546491Y-1333008D01*
X3546491Y-1333008D02*
X3565539Y-1304436D01*
X3565539Y-1304436D02*
X3575063Y-1294912D01*
X3641729Y-1342531D02*
X3651253Y-1333008D01*
X3651253Y-1333008D02*
X3670301Y-1323484D01*
X3670301Y-1323484D02*
X3717920Y-1323484D01*
X3717920Y-1323484D02*
X3736968Y-1333008D01*
X3736968Y-1333008D02*
X3746491Y-1342531D01*
X3746491Y-1342531D02*
X3756015Y-1361579D01*
X3756015Y-1361579D02*
X3756015Y-1380627D01*
X3756015Y-1380627D02*
X3746491Y-1409198D01*
X3746491Y-1409198D02*
X3632206Y-1523484D01*
X3632206Y-1523484D02*
X3756015Y-1523484D01*
X3994110Y-1523484D02*
X3994110Y-1323484D01*
X4079825Y-1523484D02*
X4079825Y-1418722D01*
X4079825Y-1418722D02*
X4070301Y-1399674D01*
X4070301Y-1399674D02*
X4051253Y-1390150D01*
X4051253Y-1390150D02*
X4022682Y-1390150D01*
X4022682Y-1390150D02*
X4003634Y-1399674D01*
X4003634Y-1399674D02*
X3994110Y-1409198D01*
X4203634Y-1523484D02*
X4184587Y-1513960D01*
X4184587Y-1513960D02*
X4175063Y-1504436D01*
X4175063Y-1504436D02*
X4165539Y-1485388D01*
X4165539Y-1485388D02*
X4165539Y-1428246D01*
X4165539Y-1428246D02*
X4175063Y-1409198D01*
X4175063Y-1409198D02*
X4184587Y-1399674D01*
X4184587Y-1399674D02*
X4203634Y-1390150D01*
X4203634Y-1390150D02*
X4232206Y-1390150D01*
X4232206Y-1390150D02*
X4251253Y-1399674D01*
X4251253Y-1399674D02*
X4260777Y-1409198D01*
X4260777Y-1409198D02*
X4270301Y-1428246D01*
X4270301Y-1428246D02*
X4270301Y-1485388D01*
X4270301Y-1485388D02*
X4260777Y-1504436D01*
X4260777Y-1504436D02*
X4251253Y-1513960D01*
X4251253Y-1513960D02*
X4232206Y-1523484D01*
X4232206Y-1523484D02*
X4203634Y-1523484D01*
X4384587Y-1523484D02*
X4365539Y-1513960D01*
X4365539Y-1513960D02*
X4356015Y-1494912D01*
X4356015Y-1494912D02*
X4356015Y-1323484D01*
X4536968Y-1513960D02*
X4517920Y-1523484D01*
X4517920Y-1523484D02*
X4479825Y-1523484D01*
X4479825Y-1523484D02*
X4460777Y-1513960D01*
X4460777Y-1513960D02*
X4451253Y-1494912D01*
X4451253Y-1494912D02*
X4451253Y-1418722D01*
X4451253Y-1418722D02*
X4460777Y-1399674D01*
X4460777Y-1399674D02*
X4479825Y-1390150D01*
X4479825Y-1390150D02*
X4517920Y-1390150D01*
X4517920Y-1390150D02*
X4536968Y-1399674D01*
X4536968Y-1399674D02*
X4546492Y-1418722D01*
X4546492Y-1418722D02*
X4546492Y-1437769D01*
X4546492Y-1437769D02*
X4451253Y-1456817D01*
X4622682Y-1513960D02*
X4641730Y-1523484D01*
X4641730Y-1523484D02*
X4679825Y-1523484D01*
X4679825Y-1523484D02*
X4698873Y-1513960D01*
X4698873Y-1513960D02*
X4708396Y-1494912D01*
X4708396Y-1494912D02*
X4708396Y-1485388D01*
X4708396Y-1485388D02*
X4698873Y-1466341D01*
X4698873Y-1466341D02*
X4679825Y-1456817D01*
X4679825Y-1456817D02*
X4651253Y-1456817D01*
X4651253Y-1456817D02*
X4632206Y-1447293D01*
X4632206Y-1447293D02*
X4622682Y-1428246D01*
X4622682Y-1428246D02*
X4622682Y-1418722D01*
X4622682Y-1418722D02*
X4632206Y-1399674D01*
X4632206Y-1399674D02*
X4651253Y-1390150D01*
X4651253Y-1390150D02*
X4679825Y-1390150D01*
X4679825Y-1390150D02*
X4698873Y-1399674D01*
X4775063Y-1599674D02*
X4784587Y-1590150D01*
X4784587Y-1590150D02*
X4803634Y-1561579D01*
X4803634Y-1561579D02*
X4813158Y-1542531D01*
X4813158Y-1542531D02*
X4822682Y-1513960D01*
X4822682Y-1513960D02*
X4832206Y-1466341D01*
X4832206Y-1466341D02*
X4832206Y-1428246D01*
X4832206Y-1428246D02*
X4822682Y-1380627D01*
X4822682Y-1380627D02*
X4813158Y-1352055D01*
X4813158Y-1352055D02*
X4803634Y-1333008D01*
X4803634Y-1333008D02*
X4784587Y-1304436D01*
X4784587Y-1304436D02*
X4775063Y-1294912D01*
M02*
