%TF.GenerationSoftware,KiCad,Pcbnew,8.0.8*%
%TF.CreationDate,2025-02-20T13:57:35-06:00*%
%TF.ProjectId,Led_Circuit,4c65645f-4369-4726-9375-69742e6b6963,rev?*%
%TF.SameCoordinates,Original*%
%TF.FileFunction,Legend,Top*%
%TF.FilePolarity,Positive*%
%FSLAX46Y46*%
G04 Gerber Fmt 4.6, Leading zero omitted, Abs format (unit mm)*
G04 Created by KiCad (PCBNEW 8.0.8) date 2025-02-20 13:57:35*
%MOMM*%
%LPD*%
G01*
G04 APERTURE LIST*
%ADD10C,0.150000*%
%ADD11C,0.120000*%
G04 APERTURE END LIST*
D10*
X22261905Y-21414819D02*
X22261905Y-20414819D01*
X22261905Y-20414819D02*
X22500000Y-20414819D01*
X22500000Y-20414819D02*
X22642857Y-20462438D01*
X22642857Y-20462438D02*
X22738095Y-20557676D01*
X22738095Y-20557676D02*
X22785714Y-20652914D01*
X22785714Y-20652914D02*
X22833333Y-20843390D01*
X22833333Y-20843390D02*
X22833333Y-20986247D01*
X22833333Y-20986247D02*
X22785714Y-21176723D01*
X22785714Y-21176723D02*
X22738095Y-21271961D01*
X22738095Y-21271961D02*
X22642857Y-21367200D01*
X22642857Y-21367200D02*
X22500000Y-21414819D01*
X22500000Y-21414819D02*
X22261905Y-21414819D01*
X23785714Y-21414819D02*
X23214286Y-21414819D01*
X23500000Y-21414819D02*
X23500000Y-20414819D01*
X23500000Y-20414819D02*
X23404762Y-20557676D01*
X23404762Y-20557676D02*
X23309524Y-20652914D01*
X23309524Y-20652914D02*
X23214286Y-20700533D01*
X16166666Y-12404819D02*
X16166666Y-13119104D01*
X16166666Y-13119104D02*
X16119047Y-13261961D01*
X16119047Y-13261961D02*
X16023809Y-13357200D01*
X16023809Y-13357200D02*
X15880952Y-13404819D01*
X15880952Y-13404819D02*
X15785714Y-13404819D01*
X17166666Y-13404819D02*
X16595238Y-13404819D01*
X16880952Y-13404819D02*
X16880952Y-12404819D01*
X16880952Y-12404819D02*
X16785714Y-12547676D01*
X16785714Y-12547676D02*
X16690476Y-12642914D01*
X16690476Y-12642914D02*
X16595238Y-12690533D01*
X30454819Y-16476666D02*
X29978628Y-16809999D01*
X30454819Y-17048094D02*
X29454819Y-17048094D01*
X29454819Y-17048094D02*
X29454819Y-16667142D01*
X29454819Y-16667142D02*
X29502438Y-16571904D01*
X29502438Y-16571904D02*
X29550057Y-16524285D01*
X29550057Y-16524285D02*
X29645295Y-16476666D01*
X29645295Y-16476666D02*
X29788152Y-16476666D01*
X29788152Y-16476666D02*
X29883390Y-16524285D01*
X29883390Y-16524285D02*
X29931009Y-16571904D01*
X29931009Y-16571904D02*
X29978628Y-16667142D01*
X29978628Y-16667142D02*
X29978628Y-17048094D01*
X30454819Y-15524285D02*
X30454819Y-16095713D01*
X30454819Y-15809999D02*
X29454819Y-15809999D01*
X29454819Y-15809999D02*
X29597676Y-15905237D01*
X29597676Y-15905237D02*
X29692914Y-16000475D01*
X29692914Y-16000475D02*
X29740533Y-16095713D01*
D11*
%TO.C,D1*%
X24560000Y-16920000D02*
X24560000Y-16764000D01*
X24560000Y-19236000D02*
X24560000Y-19080000D01*
X21328603Y-16919939D02*
G75*
G02*
X24560000Y-16764484I1671397J-1080061D01*
G01*
X21959090Y-16919951D02*
G75*
G02*
X24040961Y-16920000I1040910J-1080049D01*
G01*
X24040961Y-19080000D02*
G75*
G02*
X21959090Y-19080049I-1040961J1080000D01*
G01*
X24560000Y-19235516D02*
G75*
G02*
X21328603Y-19080061I-1560000J1235516D01*
G01*
%TO.C,J1*%
X13440000Y-14040000D02*
X13440000Y-21860000D01*
X13440000Y-15640000D02*
X14360000Y-15640000D01*
X13440000Y-21860000D02*
X19560000Y-21860000D01*
X14200000Y-18000000D02*
X14200000Y-19600000D01*
X14200000Y-19600000D02*
X15200000Y-19600000D01*
X14360000Y-14040000D02*
X13440000Y-14040000D01*
X14360000Y-15640000D02*
X14360000Y-14040000D01*
X14640000Y-15640000D02*
X14360000Y-15640000D01*
X14640000Y-15640000D02*
X14640000Y-14425000D01*
X14700000Y-19600000D02*
X14700000Y-21860000D01*
X15200000Y-18000000D02*
X14200000Y-18000000D01*
X15200000Y-19600000D02*
X15200000Y-18000000D01*
X15200000Y-19600000D02*
X15200000Y-21860000D01*
X16000000Y-17500000D02*
X17000000Y-17500000D01*
X16000000Y-21860000D02*
X16000000Y-17500000D01*
X17000000Y-17500000D02*
X17000000Y-21860000D01*
X17800000Y-18000000D02*
X18800000Y-18000000D01*
X17800000Y-19600000D02*
X17800000Y-18000000D01*
X18640000Y-14040000D02*
X18640000Y-15640000D01*
X18640000Y-15640000D02*
X18360000Y-15640000D01*
X18800000Y-18000000D02*
X18800000Y-19600000D01*
X18800000Y-19600000D02*
X17800000Y-19600000D01*
X19560000Y-14040000D02*
X18640000Y-14040000D01*
X19560000Y-15640000D02*
X18640000Y-15640000D01*
X19560000Y-21860000D02*
X19560000Y-14040000D01*
%TO.C,R1*%
X26130000Y-14540000D02*
X26130000Y-21080000D01*
X26130000Y-21080000D02*
X26460000Y-21080000D01*
X26460000Y-14540000D02*
X26130000Y-14540000D01*
X28540000Y-14540000D02*
X28870000Y-14540000D01*
X28870000Y-14540000D02*
X28870000Y-21080000D01*
X28870000Y-21080000D02*
X28540000Y-21080000D01*
%TD*%
M02*
